<svg width="500" height="369" viewBox="0 0 500 369" fill="none" xmlns="http://www.w3.org/2000/svg">
    <path d="M449.9 343.49H416.78V343.74H449.9V343.49Z" fill="#EBEBEB"/>
    <path d="M331.22 346.21H322.53V346.46H331.22V346.21Z" fill="#EBEBEB"/>
    <path d="M415.78 334.21H396.59V334.46H415.78V334.21Z" fill="#EBEBEB"/>
    <path d="M95.65 335.89H52.46V336.14H95.65V335.89Z" fill="#EBEBEB"/>
    <path d="M110.89 335.89H104.56V336.14H110.89V335.89Z" fill="#EBEBEB"/>
    <path d="M225.15 340.11H131.47V340.36H225.15V340.11Z" fill="#EBEBEB"/>
    <path d="M237 282.8H43.92C42.4056 282.8 40.9532 282.198 39.8824 281.128C38.8115 280.057 38.21 278.604 38.21 277.09V5.66C38.2231 4.15429 38.8305 2.71475 39.9 1.65471C40.9694 0.594662 42.4142 -5.77259e-05 43.92 4.20255e-09H237C238.514 4.20256e-09 239.967 0.601588 241.038 1.67242C242.108 2.74325 242.71 4.19561 242.71 5.71V277.09C242.71 278.604 242.108 280.057 241.038 281.128C239.967 282.198 238.514 282.8 237 282.8ZM43.92 0.200001C42.4727 0.202644 41.0855 0.77874 40.0621 1.80212C39.0387 2.82549 38.4626 4.21273 38.46 5.66V277.09C38.4626 278.537 39.0387 279.924 40.0621 280.948C41.0855 281.971 42.4727 282.547 43.92 282.55H237C238.447 282.547 239.834 281.971 240.858 280.948C241.881 279.924 242.457 278.537 242.46 277.09V5.66C242.457 4.21273 241.881 2.82549 240.858 1.80212C239.834 0.77874 238.447 0.202644 237 0.200001H43.92Z" fill="#EBEBEB"/>
    <path d="M453.31 282.8H260.21C258.696 282.797 257.246 282.195 256.175 281.125C255.105 280.054 254.503 278.604 254.5 277.09V5.66C254.516 4.15511 255.124 2.71708 256.193 1.65759C257.262 0.598109 258.705 0.00254829 260.21 0H453.31C454.812 0.0052045 456.252 0.602249 457.317 1.66173C458.382 2.72121 458.987 4.15775 459 5.66V277.09C459 278.601 458.401 280.05 457.335 281.121C456.268 282.191 454.821 282.795 453.31 282.8ZM260.21 0.200001C258.763 0.202644 257.375 0.77874 256.352 1.80212C255.329 2.82549 254.753 4.21273 254.75 5.66V277.09C254.753 278.537 255.329 279.924 256.352 280.948C257.375 281.971 258.763 282.547 260.21 282.55H453.31C454.757 282.547 456.145 281.971 457.168 280.948C458.191 279.924 458.767 278.537 458.77 277.09V5.66C458.767 4.21273 458.191 2.82549 457.168 1.80212C456.145 0.77874 454.757 0.202644 453.31 0.200001H260.21Z" fill="#EBEBEB"/>
    <path d="M500 327.4H0V327.65H500V327.4Z" fill="#EBEBEB"/>
    <path d="M252.97 236.33H166.56V316.84H252.97V236.33Z" fill="#E6E6E6"/>
    <path d="M180.31 319.37H169.28V326.41H180.31V319.37Z" fill="#E0E0E0"/>
    <path d="M428.43 236.33H252.97V316.06H428.43V236.33Z" fill="#E6E6E6"/>
    <path d="M441.82 230.4H430.79V326.41H441.82V230.4Z" fill="#E6E6E6"/>
    <path d="M337.58 242.68H261.52V312.34H337.58V242.68Z" fill="#F5F5F5"/>
    <path d="M274.36 312.34H294.67L301.99 242.68H281.69L274.36 312.34Z" fill="#FAFAFA"/>
    <path d="M299.87 312.34H303.91L311.23 242.68H307.19L299.87 312.34Z" fill="#FAFAFA"/>
    <path d="M250.85 242.68H174.79V312.34H250.85V242.68Z" fill="#F5F5F5"/>
    <path d="M425.14 242.68H349.08V312.34H425.14V242.68Z" fill="#F5F5F5"/>
    <path d="M428 230.4H163.42V326.4H169.3V321H425V326.38H430.89V230.38L428 230.4ZM169.3 239.09H250.13V272.44H169.3V239.09ZM169.3 312.34V277.4H250.13V312.34H169.3ZM337.58 312.34H256V239.09H337.57L337.58 312.34ZM425.04 312.34H343.47V277.4H425L425.04 312.34ZM425.04 272.44H343.47V239.09H425L425.04 272.44Z" fill="#F0F0F0"/>
    <path d="M214.07 250.94C214.07 251.64 213.862 252.325 213.473 252.908C213.083 253.49 212.53 253.944 211.882 254.211C211.235 254.479 210.523 254.549 209.836 254.411C209.149 254.274 208.518 253.936 208.023 253.44C207.529 252.943 207.192 252.312 207.057 251.624C206.921 250.937 206.993 250.225 207.262 249.578C207.532 248.932 207.987 248.379 208.571 247.992C209.154 247.604 209.839 247.398 210.54 247.4C211.004 247.4 211.464 247.492 211.893 247.67C212.322 247.848 212.712 248.109 213.04 248.437C213.368 248.766 213.627 249.157 213.804 249.586C213.981 250.015 214.071 250.476 214.07 250.94Z" fill="#EBEBEB"/>
    <path d="M210.54 254.47C209.864 254.469 209.203 254.274 208.634 253.909C208.065 253.544 207.613 253.024 207.33 252.41C207.111 252.89 207.001 253.412 207.011 253.939C207.02 254.467 207.147 254.985 207.382 255.457C207.618 255.929 207.957 256.341 208.373 256.665C208.789 256.989 209.273 257.215 209.788 257.328C210.303 257.44 210.837 257.436 211.35 257.315C211.863 257.194 212.343 256.959 212.754 256.628C213.164 256.298 213.496 255.879 213.724 255.404C213.951 254.928 214.07 254.407 214.07 253.88C214.071 253.372 213.958 252.869 213.74 252.41C213.459 253.023 213.008 253.543 212.441 253.908C211.874 254.273 211.214 254.468 210.54 254.47Z" fill="#E0E0E0"/>
    <path d="M210.54 295.53C212.49 295.53 214.07 293.95 214.07 292C214.07 290.051 212.49 288.47 210.54 288.47C208.59 288.47 207.01 290.051 207.01 292C207.01 293.95 208.59 295.53 210.54 295.53Z" fill="#EBEBEB"/>
    <path d="M210.54 295.53C209.864 295.529 209.203 295.335 208.634 294.969C208.065 294.604 207.613 294.084 207.33 293.47C207.111 293.95 207.001 294.472 207.011 295C207.02 295.527 207.147 296.045 207.382 296.517C207.618 296.989 207.957 297.402 208.373 297.725C208.789 298.049 209.273 298.275 209.788 298.388C210.303 298.5 210.837 298.496 211.35 298.375C211.863 298.254 212.343 298.019 212.754 297.688C213.164 297.358 213.496 296.939 213.724 296.464C213.951 295.988 214.07 295.468 214.07 294.94C214.071 294.432 213.958 293.929 213.74 293.47C213.459 294.083 213.008 294.603 212.441 294.968C211.874 295.333 211.214 295.528 210.54 295.53Z" fill="#E0E0E0"/>
    <path d="M392.37 250.94C392.37 251.64 392.162 252.324 391.773 252.907C391.384 253.489 390.832 253.943 390.185 254.21C389.538 254.478 388.826 254.549 388.139 254.412C387.453 254.275 386.822 253.938 386.327 253.443C385.832 252.948 385.495 252.317 385.358 251.631C385.221 250.944 385.292 250.232 385.56 249.585C385.827 248.938 386.281 248.386 386.863 247.997C387.445 247.608 388.13 247.4 388.83 247.4C389.295 247.399 389.756 247.489 390.186 247.667C390.616 247.844 391.007 248.105 391.336 248.434C391.665 248.763 391.926 249.154 392.103 249.584C392.281 250.014 392.371 250.475 392.37 250.94Z" fill="#EBEBEB"/>
    <path d="M388.83 254.47C388.156 254.468 387.496 254.273 386.929 253.908C386.362 253.543 385.911 253.023 385.63 252.41C385.412 252.869 385.299 253.372 385.3 253.88C385.294 254.413 385.407 254.94 385.633 255.422C385.858 255.905 386.19 256.33 386.603 256.667C387.015 257.003 387.499 257.242 388.017 257.366C388.535 257.49 389.074 257.496 389.594 257.382C390.115 257.269 390.603 257.039 391.022 256.711C391.441 256.383 391.781 255.964 392.016 255.486C392.251 255.008 392.376 254.483 392.38 253.951C392.384 253.418 392.268 252.892 392.04 252.41C391.758 253.024 391.305 253.544 390.736 253.909C390.167 254.274 389.506 254.469 388.83 254.47Z" fill="#E0E0E0"/>
    <path d="M330.4 279.54C330.4 280.238 330.193 280.92 329.805 281.501C329.417 282.081 328.866 282.534 328.221 282.801C327.576 283.068 326.866 283.138 326.181 283.002C325.497 282.866 324.868 282.53 324.374 282.036C323.88 281.542 323.544 280.913 323.408 280.228C323.272 279.544 323.342 278.834 323.609 278.189C323.876 277.544 324.328 276.993 324.909 276.605C325.489 276.217 326.172 276.01 326.87 276.01C327.806 276.01 328.704 276.382 329.366 277.044C330.028 277.706 330.4 278.604 330.4 279.54Z" fill="#EBEBEB"/>
    <path d="M326.87 283.08C326.196 283.078 325.536 282.883 324.969 282.518C324.402 282.153 323.951 281.633 323.67 281.02C323.452 281.479 323.339 281.982 323.34 282.49C323.34 283.017 323.459 283.538 323.686 284.013C323.914 284.489 324.246 284.908 324.656 285.238C325.067 285.569 325.547 285.803 326.06 285.924C326.573 286.045 327.107 286.05 327.622 285.938C328.138 285.825 328.621 285.599 329.037 285.275C329.453 284.951 329.792 284.538 330.028 284.067C330.263 283.595 330.391 283.077 330.4 282.549C330.409 282.022 330.299 281.5 330.08 281.02C329.798 281.634 329.345 282.154 328.776 282.519C328.207 282.884 327.546 283.079 326.87 283.08Z" fill="#E0E0E0"/>
    <path d="M388.83 295.53C390.78 295.53 392.36 293.95 392.36 292C392.36 290.051 390.78 288.47 388.83 288.47C386.88 288.47 385.3 290.051 385.3 292C385.3 293.95 386.88 295.53 388.83 295.53Z" fill="#EBEBEB"/>
    <path d="M388.83 295.53C388.156 295.528 387.496 295.333 386.929 294.968C386.362 294.603 385.911 294.083 385.63 293.47C385.412 293.929 385.299 294.432 385.3 294.94C385.294 295.473 385.407 296 385.633 296.482C385.858 296.965 386.19 297.39 386.603 297.727C387.015 298.063 387.499 298.303 388.017 298.426C388.535 298.55 389.074 298.556 389.594 298.442C390.115 298.329 390.603 298.099 391.022 297.771C391.441 297.443 391.781 297.024 392.016 296.546C392.251 296.068 392.376 295.543 392.38 295.011C392.384 294.478 392.268 293.952 392.04 293.47C391.758 294.084 391.305 294.604 390.736 294.969C390.167 295.335 389.506 295.529 388.83 295.53Z" fill="#E0E0E0"/>
    <path opacity="0.1" d="M134.06 22.4199H66.5V123.11H134.06V22.4199Z" fill="black"/>
    <path d="M131.32 19.6802H63.76V120.37H131.32V19.6802Z" fill="#EBEBEB"/>
    <path d="M128.03 28.1899H69.79V114.99H128.03V28.1899Z" fill="#F5F5F5"/>
    <path d="M113.42 61.2799C113.42 63.5919 112.734 65.8521 111.45 67.7745C110.165 69.6969 108.34 71.1952 106.204 72.08C104.068 72.9648 101.717 73.1963 99.4494 72.7452C97.1818 72.2942 95.0988 71.1808 93.464 69.5459C91.8291 67.9111 90.7157 65.8281 90.2647 63.5605C89.8136 61.2928 90.0451 58.9423 90.9299 56.8063C91.8147 54.6702 93.313 52.8445 95.2354 51.56C97.1578 50.2755 99.418 49.5898 101.73 49.5898C103.266 49.5885 104.786 49.89 106.205 50.477C107.624 51.064 108.913 51.9251 109.999 53.0108C111.085 54.0966 111.946 55.3858 112.533 56.8047C113.12 58.2236 113.421 59.7443 113.42 61.2799Z" fill="#E0E0E0"/>
    <path d="M88.4099 92.19L98.1499 80.54L101.73 92.19H88.4099Z" fill="#EBEBEB"/>
    <path d="M80.18 41.0502C72.01 54.3602 77.92 70.8902 87.18 81.7502C88.61 83.4202 91.01 81.0002 89.59 79.3402C81.29 69.6402 75.76 54.7002 83.09 42.7602C84.25 40.8902 81.3 39.1802 80.15 41.0502H80.18Z" fill="#EBEBEB"/>
    <path d="M120.54 40.2402L114.3 46.6302L120.54 51.9702L126.22 46.1102L120.54 40.2402Z" fill="#EBEBEB"/>
    <path d="M131.32 19.6802L134.06 22.4202V123.11H66.5L63.76 120.37H131.32V19.6802Z" fill="#E0E0E0"/>
    <path d="M54.0801 228.46C54.0801 219.95 64.0801 212.74 77.9301 210.28L64.2601 193.94H112.57L98.8901 210.28C112.73 212.74 122.75 219.95 122.75 228.46C122.75 237.84 110.6 306.4 94.5801 321.46L99.5801 327.46H77.2001L82.2001 321.46C66.2301 306.4 54.0801 237.84 54.0801 228.46Z" fill="#F0F0F0"/>
    <path d="M106.92 298.76C101.16 294.58 97.1899 285.91 97.1899 275.86C97.1899 261.74 105.03 250.28 114.69 250.28C116.316 250.304 117.923 250.644 119.42 251.28C116.65 265.67 112.3 284 106.92 298.76Z" fill="#E0E0E0"/>
    <path d="M64.5601 214.74C70.9901 218.52 75.5601 227.74 75.5601 238.46C75.5601 251.6 68.7801 262.46 60.0601 263.86C56.3101 247.14 54.0601 232.45 54.0601 228.46C54.0801 223.07 58.1001 218.21 64.5601 214.74Z" fill="#E6E6E6"/>
    <path d="M413.42 134.9C413.162 135.5 412.788 136.044 412.32 136.5C412.072 136.759 411.793 136.988 411.49 137.18C410.706 137.702 409.781 137.971 408.84 137.95C408.179 137.855 407.565 137.55 407.09 137.081C406.614 136.611 406.303 136.001 406.2 135.34C406.099 134.718 406.184 134.08 406.444 133.505C406.703 132.931 407.126 132.446 407.66 132.11L408.18 132.96C407.819 133.191 407.532 133.522 407.355 133.912C407.177 134.303 407.116 134.736 407.18 135.16C407.33 135.99 408.08 136.93 408.86 136.96C409.639 136.948 410.397 136.709 411.042 136.272C411.687 135.835 412.19 135.219 412.49 134.5C412.773 133.849 412.843 133.124 412.688 132.43C412.534 131.737 412.163 131.11 411.63 130.64C411.189 130.169 410.643 129.81 410.037 129.591C409.43 129.372 408.78 129.299 408.14 129.38C407.061 129.615 406.044 130.076 405.158 130.735C404.271 131.394 403.536 132.234 403 133.2C400.51 137.29 400.68 142.08 401.25 145.38C401.65 147.539 402.284 149.648 403.14 151.67C403.31 152.09 403.49 152.51 403.68 152.92C404.38 154.51 405.16 156.05 405.92 157.57C407.99 161.7 410.12 165.95 410.75 170.83C410.81 171.27 410.86 171.73 410.89 172.19C410.92 172.65 410.94 173.06 410.95 173.5C410.95 173.79 410.95 174.09 410.95 174.38C411 185.14 405.82 194.93 397.3 200.2L397.09 199.14C404.92 194.14 409.85 184.74 409.94 174.73C409.94 174.62 409.94 174.5 409.94 174.38C409.94 174.05 409.94 173.71 409.94 173.38C409.94 173.05 409.94 172.63 409.88 172.26C409.88 172.04 409.88 171.82 409.82 171.6C409.739 170.746 409.605 169.898 409.42 169.06C408.6 165.16 406.85 161.67 405.02 158.06C403.96 155.94 402.88 153.79 402.02 151.53C401.62 150.53 401.26 149.53 400.95 148.44C400.678 147.503 400.458 146.552 400.29 145.59C399.42 140.59 400.07 136.17 402.16 132.72C402.78 131.625 403.627 130.675 404.645 129.935C405.662 129.195 406.827 128.682 408.06 128.43C409.244 128.267 410.447 128.545 411.44 129.21C411.741 129.398 412.02 129.619 412.27 129.87C412.309 129.897 412.346 129.927 412.38 129.96C413.042 130.576 413.497 131.381 413.683 132.265C413.87 133.15 413.778 134.07 413.42 134.9Z" fill="#E6E6E6"/>
    <path d="M409.79 171.61C408.06 168.19 404.68 164.99 402.27 164.46L402.48 163.46C405.2 164.05 408.8 167.46 410.68 171.14L409.79 171.61Z" fill="#E6E6E6"/>
    <path d="M410.85 174.7H409.85C409.822 173.536 410.04 172.378 410.492 171.304C410.944 170.23 411.618 169.264 412.47 168.47L413.15 169.21C412.399 169.91 411.805 170.761 411.409 171.708C411.012 172.654 410.822 173.674 410.85 174.7Z" fill="#E6E6E6"/>
    <path d="M402 151.51C400.079 148.774 397.942 146.196 395.61 143.8L396.34 143.11C398.697 145.556 400.867 148.177 402.83 150.95L402 151.51Z" fill="#E6E6E6"/>
    <path d="M404.035 149.484L402.691 152.585L403.608 152.983L404.953 149.882L404.035 149.484Z" fill="#E6E6E6"/>
    <path d="M415.17 138.4C413.671 138.239 412.235 137.71 410.99 136.86L411.55 136.03C412.66 136.791 413.942 137.265 415.28 137.41L415.17 138.4Z" fill="#E6E6E6"/>
    <path d="M412.269 126.471L411.072 130.12L412.022 130.431L413.219 126.783L412.269 126.471Z" fill="#E6E6E6"/>
    <path d="M408.62 141.92C408.996 141.722 409.426 141.649 409.847 141.712C410.268 141.775 410.658 141.97 410.96 142.27C411.6 143.02 411.34 144.17 410.96 145.09C410.05 147.37 407.07 153.84 403.96 151.09C401 148.59 406.25 143 408.62 141.92Z" fill="#E6E6E6"/>
    <path d="M398.15 142.82C398.4 143.163 398.535 143.576 398.535 144C398.535 144.424 398.4 144.838 398.15 145.18C397.49 145.92 396.32 145.83 395.36 145.6C392.97 145.03 386.13 143.02 388.36 139.6C390.45 136.26 396.74 140.62 398.15 142.82Z" fill="#E6E6E6"/>
    <path d="M405.29 160.91C402.46 156.72 396.19 154.18 390.58 154.91C387.95 155.27 387.58 159.24 388.39 161.36C389.2 163.48 391.31 165.22 393.74 166.28C396.275 167.462 399.153 167.685 401.84 166.91C404.35 166.05 406.67 162.94 405.29 160.91Z" fill="#E6E6E6"/>
    <path d="M423.59 160.71C420.59 160.3 417.43 160.12 414.69 161.37C411.95 162.62 409.83 165.73 410.69 168.63C411.002 169.666 411.67 170.559 412.575 171.151C413.48 171.744 414.566 171.998 415.64 171.87C417.87 171.64 419.78 170.2 421.4 168.65C422.538 167.693 423.401 166.451 423.9 165.05C424.29 163.62 425.06 160.91 423.59 160.71Z" fill="#E6E6E6"/>
    <path d="M412.16 128.78C411.61 127.693 411.375 126.474 411.48 125.26C411.543 124.656 411.767 124.08 412.13 123.592C412.492 123.105 412.979 122.724 413.54 122.49C414.112 122.289 414.74 122.32 415.289 122.576C415.839 122.832 416.266 123.293 416.48 123.86C416.639 124.54 416.631 125.247 416.457 125.923C416.283 126.599 415.948 127.222 415.48 127.74C415.082 128.21 414.559 128.558 413.971 128.742C413.383 128.926 412.755 128.939 412.16 128.78Z" fill="#E6E6E6"/>
    <path d="M423.71 141.08C422.849 141.847 421.794 142.362 420.661 142.569C419.527 142.776 418.358 142.667 417.282 142.254C416.205 141.841 415.264 141.14 414.56 140.227C413.856 139.315 413.416 138.226 413.29 137.08C414.157 136.4 415.183 135.951 416.271 135.776C417.359 135.601 418.474 135.706 419.51 136.08C420.568 136.504 421.504 137.181 422.237 138.054C422.97 138.926 423.476 139.965 423.71 141.08Z" fill="#E6E6E6"/>
    <path d="M412 228.5L414.14 231.06H404.62L406.77 228.5C402.32 224.31 398.58 210.42 396.53 200.2L396.32 199.14C395.598 195.807 395.097 192.429 394.82 189.03C394.82 185.41 399.07 182.35 404.94 181.31L399.14 174.38H419.6L413.8 181.31C419.67 182.31 423.92 185.41 423.92 189.03C423.92 193 418.77 222.09 412 228.5Z" fill="#F0F0F0"/>
    <path d="M245.18 368.71C352.263 368.71 439.07 363.642 439.07 357.39C439.07 351.138 352.263 346.07 245.18 346.07C138.098 346.07 51.29 351.138 51.29 357.39C51.29 363.642 138.098 368.71 245.18 368.71Z" fill="#F5F5F5"/>
    <path d="M291.608 296.382H195.318C192.793 296.418 190.289 295.924 187.967 294.932C185.644 293.941 183.556 292.473 181.836 290.624C180.117 288.775 178.804 286.586 177.982 284.199C177.161 281.811 176.849 279.278 177.068 276.762L193.168 46.612C193.6 41.3163 195.992 36.3722 199.875 32.7458C203.759 29.1195 208.855 27.0715 214.168 27.002H310.458C312.982 26.9645 315.486 27.4571 317.808 28.4477C320.13 29.4383 322.219 30.9051 323.939 32.7531C325.659 34.6012 326.972 36.7895 327.793 39.1767C328.615 41.5639 328.926 44.0969 328.708 46.612L312.608 276.762C312.175 282.059 309.784 287.004 305.901 290.632C302.018 294.26 296.921 296.31 291.608 296.382Z" fill="#FFBC80"/>
    <path d="M286.608 296.382H190.318C187.793 296.418 185.289 295.924 182.967 294.932C180.644 293.941 178.556 292.473 176.836 290.624C175.117 288.775 173.804 286.586 172.982 284.199C172.161 281.811 171.849 279.278 172.068 276.762L188.168 46.612C188.6 41.3163 190.992 36.3722 194.875 32.7458C198.759 29.1195 203.855 27.0715 209.168 27.002H305.458C307.982 26.9645 310.486 27.4571 312.808 28.4477C315.13 29.4383 317.219 30.9051 318.939 32.7531C320.659 34.6012 321.972 36.7895 322.793 39.1767C323.615 41.5639 323.926 44.0969 323.708 46.612L307.608 276.762C307.175 282.059 304.784 287.004 300.901 290.632C297.018 294.26 291.921 296.31 286.608 296.382Z" fill="#FF7A00"/>
    <path d="M305.128 31.5521H280.128C279.318 31.565 278.537 31.8533 277.914 32.3696C277.29 32.8859 276.861 33.5993 276.698 34.3921L276.548 35.1821C276.151 37.1209 275.104 38.8659 273.58 40.1281C272.056 41.3903 270.146 42.0938 268.168 42.1221H244.348C242.453 42.1529 240.621 41.4462 239.239 40.1512C237.856 38.8561 237.031 37.0743 236.938 35.1821V34.3921C236.897 33.6245 236.563 32.9019 236.004 32.3735C235.446 31.845 234.706 31.551 233.938 31.5521H208.938C204.846 31.6104 200.924 33.1904 197.934 35.9839C194.945 38.7775 193.103 42.5843 192.768 46.6621L176.668 276.812C176.5 278.75 176.74 280.702 177.373 282.542C178.006 284.381 179.017 286.068 180.342 287.493C181.667 288.917 183.275 290.048 185.064 290.813C186.853 291.578 188.782 291.959 190.728 291.932H287.018C291.11 291.874 295.034 290.292 298.024 287.497C301.014 284.701 302.855 280.892 303.188 276.812L319.288 46.6621C319.457 44.7159 319.214 42.7558 318.575 40.9097C317.936 39.0636 316.915 37.3727 315.58 35.9472C314.244 34.5218 312.623 33.3936 310.822 32.6364C309.021 31.8791 307.081 31.5097 305.128 31.5521Z" fill="#FFBC80"/>
    <path opacity="0.8" d="M319.188 46.6218L303.098 276.772C302.76 280.851 300.916 284.657 297.925 287.451C294.934 290.244 291.01 291.824 286.918 291.882H190.628C188.683 291.912 186.753 291.533 184.964 290.77C183.175 290.007 181.566 288.876 180.242 287.452C178.917 286.028 177.907 284.341 177.276 282.501C176.644 280.661 176.407 278.709 176.578 276.772L192.668 46.6218C193.012 42.5512 194.858 38.7541 197.847 35.9689C200.835 33.1836 204.753 31.6093 208.838 31.5518H233.838C234.608 31.5509 235.349 31.8463 235.908 32.3768C236.466 32.9074 236.799 33.6325 236.838 34.4018V35.1818C236.921 37.0829 237.741 38.8769 239.124 40.1836C240.507 41.4903 242.345 42.207 244.248 42.1818H268.038C270.024 42.1521 271.94 41.4403 273.464 40.1658C274.988 38.8914 276.027 37.1317 276.408 35.1818L276.568 34.4018C276.733 33.5887 277.177 32.8589 277.824 32.3385C278.47 31.8181 279.278 31.5399 280.108 31.5518H305.108C307.05 31.5229 308.977 31.9007 310.765 32.6611C312.552 33.4216 314.161 34.5477 315.487 35.9671C316.813 37.3866 317.827 39.0678 318.465 40.9028C319.102 42.7379 319.348 44.6859 319.188 46.6218Z" fill="white"/>
    <path d="M305.028 249.112L303.098 276.772C302.76 280.851 300.916 284.657 297.925 287.451C294.934 290.244 291.01 291.824 286.918 291.882H190.628C188.683 291.912 186.753 291.533 184.964 290.77C183.175 290.007 181.566 288.876 180.242 287.452C178.917 286.027 177.907 284.341 177.276 282.501C176.644 280.661 176.407 278.709 176.578 276.772L178.508 249.112H305.028Z" fill="#FF7A00"/>
    <path opacity="0.5" d="M305.028 249.112L303.098 276.772C302.76 280.851 300.916 284.657 297.925 287.451C294.934 290.244 291.01 291.824 286.918 291.882H190.628C188.683 291.912 186.753 291.533 184.964 290.77C183.175 290.007 181.566 288.876 180.242 287.452C178.917 286.027 177.907 284.341 177.276 282.501C176.644 280.661 176.407 278.709 176.578 276.772L178.508 249.112H305.028Z" fill="white"/>
    <g opacity="0.7">
        <path d="M250.978 34.052C250.939 34.5609 250.713 35.0375 250.344 35.39C249.974 35.7425 249.488 35.9463 248.978 35.962C248.731 35.9673 248.487 35.9204 248.26 35.8245C248.032 35.7286 247.828 35.5858 247.66 35.4055C247.492 35.2252 247.364 35.0114 247.284 34.7782C247.205 34.5449 247.175 34.2975 247.198 34.052C247.237 33.5431 247.463 33.0666 247.832 32.714C248.201 32.3615 248.688 32.1578 249.198 32.142C249.444 32.1367 249.689 32.1836 249.916 32.2795C250.143 32.3754 250.347 32.5182 250.515 32.6985C250.683 32.8788 250.812 33.0926 250.891 33.3259C250.971 33.5591 251 33.8066 250.978 34.052Z" fill="black"/>
        <path d="M264.678 32.1421H258.118C257.599 32.1478 257.102 32.3468 256.723 32.7001C256.344 33.0534 256.11 33.5356 256.068 34.0521C256.047 34.2972 256.077 34.544 256.158 34.7766C256.238 35.0091 256.366 35.2222 256.534 35.4022C256.701 35.5822 256.905 35.725 257.131 35.8214C257.358 35.9179 257.602 35.9658 257.848 35.9621H264.408C264.918 35.9463 265.404 35.7426 265.773 35.3901C266.143 35.0375 266.368 34.561 266.408 34.0521C266.43 33.8109 266.402 33.5677 266.325 33.3379C266.248 33.1081 266.125 32.8968 265.962 32.7172C265.799 32.5377 265.601 32.3939 265.38 32.2949C265.159 32.1959 264.92 32.1438 264.678 32.1421Z" fill="black"/>
    </g>
    <path d="M203.468 42.0422H205.488L205.628 40.0122H203.608L203.468 42.0422Z" fill="#FFBC80"/>
    <path d="M207.658 40.0122L207.518 42.0422H209.538L209.688 40.0122L209.828 37.9922H207.798L207.658 40.0122Z" fill="#FFBC80"/>
    <path d="M211.988 35.9619L211.848 37.9919L211.708 40.0119L211.568 42.0419H213.588L213.738 40.0119L213.878 37.9919L214.018 35.9619H211.988Z" fill="#FFBC80"/>
    <path d="M299.058 36.1021L298.958 37.552H297.958L297.758 40.552H298.758L298.658 42.042H307.568L307.978 36.1021H299.058ZM302.758 40.552H299.758L299.968 37.552H302.968L302.758 40.552Z" fill="#FFBC80"/>
    <path d="M209.208 150.872H208.528C208.419 150.874 208.312 150.853 208.213 150.81C208.113 150.768 208.024 150.705 207.95 150.626C207.877 150.547 207.82 150.453 207.786 150.351C207.751 150.248 207.738 150.14 207.748 150.032L208.748 135.702C208.864 134.333 209.485 133.056 210.491 132.119C211.496 131.182 212.814 130.652 214.188 130.632H228.508C228.616 130.63 228.723 130.651 228.823 130.693C228.922 130.736 229.011 130.799 229.085 130.878C229.159 130.957 229.215 131.051 229.25 131.153C229.284 131.256 229.297 131.364 229.288 131.472V132.142C229.272 132.37 229.171 132.584 229.004 132.74C228.837 132.896 228.616 132.982 228.388 132.982H214.018C213.284 133.001 212.582 133.288 212.046 133.789C211.51 134.291 211.176 134.971 211.108 135.702L210.108 150.032C210.088 150.258 209.985 150.47 209.819 150.625C209.653 150.78 209.435 150.868 209.208 150.872Z" fill="#FFBC80"/>
    <path d="M263.528 210.012L263.578 209.332C263.595 209.107 263.696 208.896 263.86 208.74C264.025 208.585 264.241 208.496 264.468 208.492H278.758C279.493 208.476 280.197 208.19 280.736 207.688C281.274 207.187 281.609 206.505 281.678 205.772L282.678 191.442C282.695 191.215 282.797 191.002 282.964 190.847C283.131 190.691 283.35 190.604 283.578 190.602H284.248C284.356 190.6 284.464 190.621 284.564 190.664C284.664 190.706 284.754 190.769 284.828 190.848C284.903 190.927 284.96 191.02 284.996 191.123C285.032 191.225 285.046 191.334 285.038 191.442L284.038 205.772C283.926 207.142 283.308 208.422 282.304 209.361C281.3 210.3 279.982 210.832 278.608 210.852H264.308C264.2 210.852 264.093 210.83 263.995 210.788C263.896 210.745 263.807 210.682 263.734 210.603C263.661 210.524 263.604 210.431 263.569 210.329C263.533 210.227 263.519 210.12 263.528 210.012Z" fill="#FFBC80"/>
    <path d="M287.068 150.872H286.388C286.28 150.874 286.172 150.853 286.073 150.811C285.973 150.768 285.884 150.705 285.81 150.626C285.737 150.547 285.681 150.453 285.646 150.351C285.611 150.248 285.598 150.14 285.608 150.032L286.608 135.812C286.662 135.244 286.536 134.674 286.248 134.182C286.02 133.812 285.701 133.508 285.32 133.3C284.94 133.091 284.512 132.985 284.078 132.992H269.758C269.65 132.992 269.543 132.97 269.445 132.928C269.346 132.885 269.257 132.822 269.184 132.743C269.11 132.664 269.054 132.571 269.019 132.469C268.983 132.367 268.969 132.259 268.978 132.152L269.028 131.472C269.045 131.245 269.147 131.032 269.314 130.877C269.481 130.721 269.7 130.634 269.928 130.632H284.058C285.285 130.6 286.48 131.02 287.418 131.812C287.964 132.295 288.39 132.9 288.661 133.577C288.932 134.254 289.04 134.985 288.978 135.712L287.978 150.032C287.958 150.26 287.853 150.473 287.685 150.628C287.517 150.784 287.297 150.87 287.068 150.872Z" fill="#FFBC80"/>
    <path d="M208.568 210.852C207.839 210.862 207.118 210.701 206.461 210.384C205.805 210.066 205.232 209.6 204.788 209.022C204.066 208.029 203.735 206.804 203.858 205.582L204.858 191.442C204.877 191.216 204.98 191.004 205.146 190.849C205.313 190.694 205.53 190.606 205.758 190.602H206.438C206.545 190.602 206.652 190.624 206.751 190.667C206.849 190.71 206.938 190.772 207.012 190.851C207.085 190.93 207.141 191.023 207.176 191.125C207.212 191.227 207.226 191.335 207.218 191.442L206.218 205.682C206.162 206.247 206.288 206.814 206.578 207.302C206.804 207.67 207.122 207.973 207.501 208.182C207.879 208.39 208.305 208.497 208.738 208.492H223.058C223.166 208.49 223.274 208.511 223.374 208.554C223.474 208.596 223.564 208.659 223.638 208.738C223.713 208.817 223.77 208.91 223.806 209.013C223.842 209.115 223.856 209.224 223.848 209.332V210.012C223.828 210.239 223.725 210.45 223.559 210.605C223.393 210.76 223.175 210.848 222.948 210.852H208.568Z" fill="#FFBC80"/>
    <path d="M222.158 231.062C221.862 231.386 221.5 231.643 221.096 231.816C220.693 231.988 220.257 232.072 219.818 232.062C218.568 232.062 217.728 231.612 216.528 230.242C216.005 230.202 215.496 230.058 215.029 229.818C214.563 229.579 214.149 229.249 213.812 228.847C213.475 228.446 213.221 227.981 213.066 227.481C212.911 226.98 212.857 226.453 212.908 225.932C213.005 224.717 213.568 223.587 214.48 222.778C215.391 221.969 216.58 221.544 217.798 221.592C218.377 221.547 218.958 221.63 219.502 221.833C220.046 222.036 220.54 222.355 220.948 222.768C221.356 223.181 221.67 223.678 221.866 224.224C222.063 224.771 222.139 225.353 222.088 225.932C222.025 226.869 221.677 227.766 221.091 228.5C220.505 229.235 219.708 229.773 218.808 230.042C218.939 230.221 219.11 230.368 219.308 230.468C219.506 230.569 219.725 230.622 219.948 230.622C220.213 230.62 220.474 230.564 220.717 230.458C220.959 230.351 221.177 230.196 221.358 230.002L222.158 231.062ZM217.308 228.652C218.036 228.66 218.738 228.383 219.265 227.881C219.792 227.378 220.102 226.689 220.128 225.962C220.175 225.619 220.146 225.271 220.044 224.94C219.941 224.61 219.768 224.306 219.535 224.051C219.302 223.795 219.016 223.594 218.697 223.461C218.378 223.328 218.033 223.267 217.688 223.282C216.961 223.273 216.26 223.549 215.734 224.049C215.207 224.55 214.896 225.236 214.868 225.962C214.819 226.305 214.846 226.655 214.948 226.986C215.05 227.318 215.223 227.623 215.456 227.88C215.689 228.136 215.976 228.339 216.296 228.472C216.616 228.606 216.961 228.667 217.308 228.652Z" fill="#FF7A00"/>
    <path d="M228.618 230.162L227.158 227.822H225.368L225.208 230.162H223.268L223.858 221.772H227.488C229.728 221.772 231.048 222.932 230.918 224.772C230.889 225.351 230.694 225.909 230.355 226.38C230.016 226.85 229.548 227.212 229.008 227.422L230.698 230.122L228.618 230.162ZM227.268 223.352H225.688L225.478 226.282H227.068C228.248 226.282 228.888 225.722 228.958 224.812C229.028 223.902 228.458 223.352 227.268 223.352Z" fill="#FF7A00"/>
    <path d="M235.248 225.962C235.337 224.75 235.894 223.62 236.801 222.81C237.707 222 238.893 221.574 240.108 221.622C240.744 221.585 241.381 221.701 241.963 221.96C242.546 222.22 243.058 222.614 243.458 223.112L242.128 224.262C241.895 223.951 241.593 223.698 241.246 223.525C240.899 223.351 240.516 223.261 240.128 223.262C239.393 223.24 238.679 223.51 238.141 224.011C237.604 224.513 237.286 225.207 237.258 225.942C237.209 226.29 237.239 226.645 237.345 226.98C237.451 227.315 237.63 227.623 237.869 227.88C238.109 228.138 238.402 228.339 238.729 228.469C239.055 228.599 239.407 228.654 239.758 228.632C240.171 228.631 240.58 228.541 240.956 228.369C241.332 228.196 241.667 227.945 241.938 227.632L243.098 228.782C242.646 229.274 242.093 229.663 241.477 229.922C240.86 230.181 240.196 230.304 239.528 230.282C238.951 230.324 238.372 230.241 237.831 230.039C237.29 229.836 236.799 229.518 236.392 229.108C235.986 228.697 235.673 228.204 235.475 227.66C235.277 227.117 235.2 226.538 235.248 225.962Z" fill="#FF7A00"/>
    <path d="M243.868 225.962C243.965 224.747 244.528 223.617 245.44 222.808C246.351 221.999 247.54 221.574 248.758 221.622C249.337 221.578 249.918 221.66 250.462 221.863C251.006 222.066 251.5 222.385 251.908 222.798C252.316 223.211 252.63 223.708 252.826 224.255C253.023 224.801 253.099 225.384 253.048 225.962C252.953 227.179 252.391 228.311 251.479 229.122C250.567 229.933 249.377 230.36 248.158 230.312C247.578 230.357 246.995 230.274 246.45 230.07C245.906 229.867 245.412 229.547 245.003 229.133C244.595 228.718 244.282 228.22 244.086 227.673C243.889 227.125 243.815 226.541 243.868 225.962ZM251.088 225.962C251.135 225.62 251.106 225.271 251.004 224.941C250.901 224.61 250.728 224.307 250.495 224.051C250.262 223.795 249.976 223.594 249.657 223.461C249.338 223.328 248.993 223.267 248.648 223.282C247.921 223.274 247.22 223.549 246.694 224.049C246.167 224.55 245.856 225.236 245.828 225.962C245.779 226.305 245.806 226.655 245.908 226.987C246.01 227.318 246.183 227.623 246.416 227.88C246.649 228.137 246.936 228.339 247.256 228.472C247.576 228.606 247.921 228.667 248.268 228.652C248.996 228.66 249.698 228.384 250.225 227.881C250.752 227.378 251.062 226.69 251.088 225.962Z" fill="#FF7A00"/>
    <path d="M254.808 221.772H258.628C261.368 221.772 263.138 223.422 262.958 225.962C262.778 228.502 260.788 230.162 258.038 230.162H254.228L254.808 221.772ZM258.058 228.572C258.423 228.6 258.791 228.555 259.139 228.438C259.487 228.321 259.808 228.135 260.082 227.892C260.357 227.648 260.579 227.352 260.736 227.02C260.894 226.689 260.983 226.329 260.998 225.962C261.043 225.612 261.007 225.255 260.894 224.921C260.781 224.586 260.592 224.282 260.343 224.031C260.095 223.78 259.792 223.59 259.458 223.474C259.124 223.358 258.768 223.319 258.418 223.362H256.648L256.278 228.572H258.058Z" fill="#FF7A00"/>
    <path d="M270.758 228.602L270.648 230.162H264.148L264.738 221.772H271.078L270.968 223.332H266.558L266.428 225.152H270.328L270.218 226.662H266.318L266.188 228.602H270.758Z" fill="#FF7A00"/>
    <path d="M315.678 96.7822H188.818L191.808 54.0122H318.668L315.678 96.7822Z" fill="#FFBC80"/>
    <path opacity="0.2" d="M176.838 275.962C176.678 277.925 176.933 279.901 177.586 281.76C178.239 283.618 179.275 285.319 180.628 286.752L315.408 34.7518C314.093 33.4452 312.532 32.4127 310.816 31.714C309.099 31.0154 307.261 30.6645 305.408 30.6818H209.108C205.016 30.7448 201.095 32.3277 198.106 35.1224C195.117 37.9171 193.275 41.7238 192.938 45.8018L176.838 275.962Z" fill="white"/>
    <path d="M223.037 61.5693L221.116 89.1826L222.113 89.252L224.035 61.6388L223.037 61.5693Z" fill="#E0E0E0"/>
    <path d="M254.672 61.566L252.751 89.1792L253.749 89.2486L255.67 61.6354L254.672 61.566Z" fill="#E0E0E0"/>
    <path d="M286.258 61.5471L284.342 89.1606L285.339 89.2299L287.256 61.6163L286.258 61.5471Z" fill="#E0E0E0"/>
</svg>
