<svg width="1164" height="1094" viewBox="0 0 1164 1094" fill="none" xmlns="http://www.w3.org/2000/svg">
    <g clip-path="url(#clip0_1329_285)">
        <mask id="mask0_1329_285" style="mask-type:luminance" maskUnits="userSpaceOnUse" x="0" y="0" width="1164" height="1094">
            <path d="M1164 0H0V1094H1164V0Z" fill="white"/>
        </mask>
        <g mask="url(#mask0_1329_285)">
            <path d="M637.56 866.838H370.063V1073.16H637.56V866.838Z" fill="#99A0AF"/>
            <path d="M570.551 1071.72C570.192 1071.72 569.884 1025.72 569.884 968.983C569.884 912.247 570.192 866.248 570.551 866.248C570.911 866.248 571.219 912.247 571.219 968.983C571.219 1025.72 570.911 1071.72 570.551 1071.72Z" fill="#404754"/>
            <path d="M614.882 1026.21H594.386V1049.4H614.882V1026.21Z" fill="#FAFAFA"/>
            <path d="M482.071 867.378H451.687V911.4H482.071V867.378Z" fill="#404754"/>
            <path d="M482.071 1028.52H451.687V1072.54H482.071V1028.52Z" fill="#404754"/>
            <path d="M1122.96 815.111H785.654V1075.26H1122.96V815.111Z" fill="#99A0AF"/>
            <path d="M1038.43 1073.41C1038.07 1073.41 1037.77 1015.45 1037.77 943.916C1037.77 872.386 1038.07 814.418 1038.43 814.418C1038.79 814.418 1039.1 872.386 1039.1 943.916C1039.1 1015.45 1038.82 1073.41 1038.43 1073.41Z" fill="#404754"/>
            <path d="M1094.35 1016.04H1068.48V1045.26H1094.35V1016.04Z" fill="#FAFAFA"/>
            <path d="M926.863 815.779H888.543V871.282H926.863V815.779Z" fill="#404754"/>
            <path d="M926.863 1018.96H888.543V1074.47H926.863V1018.96Z" fill="#404754"/>
            <path d="M150.338 822.765C164.001 815.728 180.08 814.803 195.233 817.32C203.375 818.655 211.851 821.095 217.398 827.208C222.946 833.321 223.973 844.083 217.629 849.348C213.828 852.481 208.563 852.943 203.632 852.892C191.766 852.738 178.616 850.658 169.138 857.798C163.719 861.881 160.123 868.636 153.728 870.64C147.333 872.643 140.27 868.867 136.931 863.166C133.842 857.219 133.161 850.312 135.03 843.877C135.786 839.418 137.561 835.193 140.216 831.531C142.871 827.87 146.334 824.87 150.338 822.765Z" fill="#99A0AF"/>
            <path d="M119.055 762.382C127.402 774.299 143.634 770.37 151.16 763.076C158.685 755.781 161.87 745.251 164.746 735.209C171.373 712.222 178.025 688.104 173.119 664.706C171.938 657.611 168.818 650.98 164.104 645.546C161.718 642.878 158.675 640.879 155.278 639.748C151.882 638.618 148.248 638.394 144.739 639.1C136.545 641.257 131.46 649.373 127.787 656.898C116.959 679.395 111.29 704.026 111.195 728.993C111.195 740.628 112.505 752.802 119.055 762.382Z" fill="#99A0AF"/>
            <path d="M96.1447 779.488C105.211 768.726 106.932 753.059 102.9 739.575C98.8672 726.091 89.7494 714.636 79.2447 705.261C66.8896 694.271 52.5132 685.792 36.9177 680.296C30.8733 677.855 24.3719 676.751 17.8603 677.06C14.612 677.246 11.4582 678.223 8.67384 679.906C5.88943 681.589 3.55879 683.927 1.88493 686.717C-2.58406 695.219 1.70514 705.518 6.32824 713.942C14.4695 728.765 23.7614 742.926 34.1182 756.295C42.4654 767.031 52.0969 777.638 64.7077 782.493C77.3184 787.347 90.6227 786.782 97.3518 777.972" fill="#99A0AF"/>
            <path d="M118.49 942.221C118.936 940.455 119.194 938.647 119.26 936.827C119.645 932.872 120.108 927.915 120.698 922.033C121.435 914.756 122.541 907.521 124.012 900.356C125.942 891.595 128.579 883.006 131.897 874.672C135.151 866.393 139.552 858.612 144.97 851.556C149.399 845.819 155.038 841.128 161.484 837.816C165.869 835.654 170.567 834.198 175.405 833.501C177.226 833.43 179.035 833.163 180.799 832.705C178.981 832.504 177.146 832.504 175.328 832.705C170.304 833.083 165.388 834.362 160.817 836.48C154.009 839.692 148.039 844.439 143.377 850.349C137.707 857.498 133.136 865.454 129.816 873.953C126.502 882.387 123.924 891.092 122.111 899.971C120.714 907.227 119.745 914.56 119.209 921.93C118.746 928.223 118.567 933.308 118.49 936.827C118.3 938.62 118.3 940.428 118.49 942.221Z" fill="#404754"/>
            <path d="M119.517 930.868C119.669 930.021 119.721 929.159 119.671 928.3C119.671 926.399 119.671 924.011 119.671 921.108C119.671 914.867 119.671 905.827 119.979 894.68C120.544 872.386 122.548 848.449 126.169 814.572C129.688 782.749 134.388 745.739 139.371 721.673C140.424 716.203 141.502 711.271 142.53 706.956C143.557 702.642 144.302 698.892 145.098 695.887C145.894 692.882 146.331 690.75 146.793 688.901C147.045 688.066 147.191 687.203 147.23 686.332C146.843 687.081 146.55 687.875 146.357 688.695C145.792 690.519 145.098 692.779 144.251 695.578C143.403 698.378 142.376 702.282 141.297 706.571C140.218 710.86 138.985 715.792 137.83 721.262C131.66 749.725 127.021 778.498 123.935 807.457C120.236 841.36 118.567 872.232 118.413 894.577C118.413 905.749 118.413 914.816 118.798 921.057C118.978 923.959 119.132 926.348 119.234 928.223C119.222 929.113 119.317 930.001 119.517 930.868Z" fill="#404754"/>
            <path d="M119.671 871.333C119.867 868.828 119.867 866.312 119.671 863.808C119.389 858.979 118.721 852.019 117.36 843.466C115.68 833.467 113.433 823.571 110.63 813.827C107.391 801.834 103.244 790.106 98.2251 778.743C89.6318 757.805 77.2995 738.606 61.8311 722.084C59.1472 719.247 56.2817 716.587 53.2527 714.122C51.9428 712.992 50.6843 711.888 49.6056 711.014L46.4208 708.729C44.4219 707.203 42.2999 705.846 40.0768 704.67C39.7173 705.158 49.0405 710.655 60.8037 723.163C75.7665 739.839 87.7709 758.949 96.2988 779.667C101.231 790.956 105.393 802.566 108.755 814.418C111.58 824.072 113.92 833.861 115.767 843.749C117.308 852.199 118.336 859.159 118.747 863.885C118.856 866.388 119.166 868.879 119.671 871.333Z" fill="#404754"/>
            <path d="M58.1326 967.288L64.0912 1049.04H169.113L175.071 967.288H58.1326Z" fill="#99A0AF"/>
            <path d="M187.579 935.08H47.9874V967.288H187.579V935.08Z" fill="#99A0AF"/>
            <path d="M47.9874 1045.91V1054.82H54.5625H185.293V1045.91H47.9874Z" fill="#404754"/>
            <path d="M60.9835 1069.56L54.5625 1053.84H180.285L172.785 1069.56H60.9835Z" fill="#404754"/>
            <path d="M173.119 993.999C172.988 994.275 172.824 994.533 172.631 994.77C172.22 995.309 171.681 996.002 171.065 996.85L164.952 1004.56L164.669 1004.91L164.412 1004.56L149.387 983.777H150.235L135.441 1004.71L134.979 1005.38L134.465 1004.76L116.923 983.88H117.925L116.974 985.113L101.281 1004.76L100.742 1005.43L100.28 1004.74L85.4602 983.803H86.3335L68.0979 1004.56L67.7897 1004.94L67.5329 1004.5L61.8311 995.052C61.2147 994.025 60.7524 993.177 60.3671 992.484C60.1735 992.197 60.018 991.886 59.9048 991.559C60.1451 991.805 60.3523 992.081 60.5212 992.381L62.1393 994.821L68.1236 1004.25H67.5586L85.5373 983.238L85.9739 982.698L86.3849 983.263L101.333 1004.12H100.357L115.998 984.419C116.332 984.008 116.666 983.597 116.949 983.212L117.462 982.57L117.976 983.186L135.467 1004.12H134.491L149.439 983.289L149.875 982.673L150.286 983.289C156.219 991.739 161.253 998.905 165.003 1004.3H164.464L170.833 996.593C171.527 995.797 172.092 995.155 172.529 994.616C172.71 994.396 172.908 994.19 173.119 993.999Z" fill="#F5F5F5"/>
            <path d="M176.535 966.749C176.535 967.108 150.209 967.416 117.771 967.416C85.3318 967.416 59.0059 967.108 59.0059 966.749C59.0059 966.389 85.3061 966.106 117.771 966.106C150.235 966.106 176.535 966.389 176.535 966.749Z" fill="#F5F5F5"/>
            <path d="M913.051 39.9493L891.528 40.0658L892.108 147.166L913.63 147.049L913.051 39.9493Z" fill="#404754"/>
            <path d="M760.801 40.2345L705.068 40.536L705.388 99.6594L761.121 99.3578L760.801 40.2345Z" fill="#99A0AF"/>
            <path d="M816.276 39.9343L760.543 40.2358L760.863 99.3592L816.596 99.0577L816.276 39.9343Z" fill="#F5F5F5"/>
            <path d="M705.135 56.8977C742.188 57.2059 779.258 57.0347 816.346 56.3841C816.503 56.3841 816.653 56.3218 816.764 56.211C816.874 56.1002 816.937 55.95 816.937 55.7933C816.937 55.6367 816.874 55.4864 816.764 55.3756C816.653 55.2648 816.503 55.2026 816.346 55.2026C779.31 54.9971 742.171 55.2026 705.135 55.8961C705.021 55.9219 704.92 55.9856 704.847 56.0766C704.775 56.1675 704.735 56.2805 704.735 56.3969C704.735 56.5133 704.775 56.6262 704.847 56.7172C704.92 56.8082 705.021 56.8719 705.135 56.8977Z" fill="#404754"/>
            <path d="M771.595 98.3749L670.325 98.9229L670.586 147.105L771.856 146.557L771.595 98.3749Z" fill="#99A0AF"/>
            <path d="M872.374 97.8296L771.104 98.3776L771.365 146.56L872.635 146.012L872.374 97.8296Z" fill="#F5F5F5"/>
            <path d="M670.385 112.375C737.651 113.12 805.148 112.375 872.439 111.373C872.596 111.373 872.746 111.311 872.857 111.2C872.968 111.089 873.03 110.939 873.03 110.782C873.03 110.626 872.968 110.476 872.857 110.365C872.746 110.254 872.596 110.192 872.439 110.192C805.173 109.832 737.651 109.858 670.385 111.348C670.248 111.348 670.118 111.402 670.021 111.498C669.925 111.594 669.871 111.725 669.871 111.861C669.871 111.997 669.925 112.128 670.021 112.224C670.118 112.321 670.248 112.375 670.385 112.375Z" fill="#404754"/>
            <path d="M1024.85 147.151H632.501V164.41H1024.85V147.151Z" fill="#404754"/>
            <path d="M712.66 155.447H696.736V214.34H712.66V155.447Z" fill="#404754"/>
            <path d="M950.416 155.447H934.492V214.34H950.416V155.447Z" fill="#404754"/>
            <path d="M934.049 0L912.526 0.11645L913.323 147.411L934.846 147.295L934.049 0Z" fill="#99A0AF"/>
            <path d="M967.664 27.4283L934.224 27.6093L934.87 146.986L968.309 146.805L967.664 27.4283Z" fill="#F5F5F5"/>
            <path d="M967.444 50.4768C956.328 51.2619 945.171 51.2619 934.055 50.4768C945.172 49.7257 956.327 49.7257 967.444 50.4768Z" fill="#404754"/>
            <path d="M967.444 45.5968C961.89 46.1589 956.304 46.3477 950.724 46.1619C945.144 46.3467 939.558 46.1579 934.004 45.5968C945.119 44.8116 956.277 44.8116 967.393 45.5968H967.444Z" fill="#404754"/>
            <path d="M967.444 128.89C956.328 129.675 945.171 129.675 934.055 128.89C945.172 128.139 956.327 128.139 967.444 128.89Z" fill="#404754"/>
            <path d="M967.444 123.881C956.327 124.632 945.172 124.632 934.055 123.881C945.171 123.096 956.328 123.096 967.444 123.881Z" fill="#404754"/>
            <path d="M951.263 112.94C950.955 112.94 950.698 100.894 950.698 86.0489C950.698 71.2036 950.955 59.1322 951.263 59.1322C951.571 59.1322 951.854 71.1779 951.854 86.0489C951.854 100.92 951.597 112.94 951.263 112.94Z" fill="#404754"/>
            <path d="M1004.22 56.795H967.829V146.894H1004.22V56.795Z" fill="#99A0AF"/>
            <path d="M922.96 31.3937C926.378 31.3937 929.149 28.6224 929.149 25.2038C929.149 21.7853 926.378 19.014 922.96 19.014C919.541 19.014 916.77 21.7853 916.77 25.2038C916.77 28.6224 919.541 31.3937 922.96 31.3937Z" fill="#404754"/>
            <path d="M924.886 42.2323H921.059V129.866H924.886V42.2323Z" fill="#404754"/>
            <path d="M1134.54 1073.85C1134.54 1074.24 887.67 1074.52 583.239 1074.52C278.808 1074.52 31.8837 1074.24 31.8837 1073.85C31.8837 1073.47 278.706 1073.18 583.239 1073.18C887.773 1073.18 1134.54 1073.49 1134.54 1073.85Z" fill="#263238"/>
            <path d="M324.346 131.253C336.458 146.075 343.016 164.66 342.89 183.802C342.761 194.64 340.758 206.583 347.076 215.393C351.853 222.071 360.586 225.435 364.464 232.678C369.138 241.385 365.157 252.403 368.034 261.855C372.092 275.262 387.811 280.887 397.134 291.34C401.108 295.963 403.889 301.489 405.232 307.435C406.575 313.381 406.44 319.566 404.839 325.448C403.141 331.306 400.069 336.673 395.878 341.105C391.688 345.536 386.501 348.903 380.748 350.927C374.604 353.348 367.752 353.238 361.69 350.618C355.398 347.485 351.417 341.038 348.335 334.746C342.145 322.366 287.772 255.46 284.69 241.95" fill="#263238"/>
            <path d="M284.793 115.483C262.55 111.887 241.13 126.655 231.807 147.151C222.484 167.647 222.175 190.813 221.533 213.415C220.891 236.017 219.247 259.441 207.767 278.806C200.473 291.109 189.172 301.922 187.399 316.074C185.807 328.761 192.382 341.552 190.199 354.163C188.298 365.156 179.925 374.71 180.259 385.831C180.67 399.238 194.463 409.332 207.844 409.691C221.225 410.051 233.759 403.039 244.264 394.718C261.378 381.129 275.074 363.721 284.253 343.889" fill="#263238"/>
            <path d="M248.193 168.494C247.494 162.899 247.927 157.221 249.465 151.796C251.003 146.372 253.615 141.311 257.146 136.915C260.677 132.52 265.055 128.878 270.02 126.206C274.986 123.535 280.437 121.888 286.051 121.364C308.473 119.207 328.429 135.927 331.794 158.221C334.748 177.766 337.265 197.491 337.188 204.657C336.905 226.257 324.346 234.656 319.209 237.198C317.361 237.862 315.451 238.335 313.507 238.611V238.765L318.284 263.576C320.468 279.834 311.401 294.396 295.169 296.682C278.937 298.968 266.172 286.563 263.68 270.305L248.193 168.494Z" fill="#FFBE9D"/>
            <path d="M327.377 167.672C327.017 168.186 324.166 166.671 320.519 167.21C316.872 167.749 314.432 169.958 313.97 169.573C313.507 169.188 313.97 168.546 315.1 167.518C316.504 166.15 318.299 165.252 320.236 164.95C322.137 164.657 324.081 164.981 325.784 165.874C327.068 166.696 327.556 167.467 327.377 167.672Z" fill="#263238"/>
            <path d="M294.861 175.583C294.501 176.097 291.65 174.556 287.977 175.095C284.305 175.634 281.916 177.869 281.454 177.484C280.991 177.098 281.454 176.431 282.584 175.429C283.988 174.061 285.783 173.163 287.721 172.86C289.624 172.59 291.564 172.922 293.268 173.811C294.527 174.607 295.04 175.352 294.861 175.583Z" fill="#263238"/>
            <path d="M308.191 195.18C310.028 194.296 311.97 193.649 313.97 193.253C314.894 193.022 315.742 192.714 315.819 192.046C315.736 191.108 315.379 190.215 314.792 189.478L310.965 182.646C305.648 173.092 301.667 165.181 302.052 164.95C302.438 164.719 307.189 172.347 312.326 181.901C313.636 184.264 314.894 186.524 316.024 188.656C316.771 189.701 317.134 190.971 317.052 192.252C316.967 192.602 316.802 192.928 316.571 193.205C316.339 193.481 316.047 193.7 315.716 193.844C315.215 194.063 314.689 194.219 314.149 194.306C312.21 194.856 310.207 195.15 308.191 195.18Z" fill="#263238"/>
            <path d="M313.302 238.637C313.302 238.637 299.356 241.847 280.144 233.808C280.144 233.808 288.44 251.659 314.612 245.315L313.302 238.637Z" fill="#EB996E"/>
            <path d="M292.986 166.003C292.78 167.056 289.056 167.107 284.844 168.263C280.632 169.419 277.319 171.063 276.625 170.266C276.317 169.881 276.779 168.854 278.038 167.698C279.732 166.249 281.735 165.204 283.893 164.643C286.051 164.083 288.309 164.021 290.494 164.462C292.19 164.847 292.986 165.515 292.986 166.003Z" fill="#263238"/>
            <path d="M324.371 159.582C323.858 160.506 321.212 160.018 318.182 160.404C315.151 160.789 312.66 161.791 311.94 160.994C311.632 160.609 311.94 159.736 312.916 158.786C314.263 157.592 315.954 156.854 317.745 156.68C319.514 156.466 321.306 156.798 322.882 157.63C324.115 158.323 324.603 159.12 324.371 159.582Z" fill="#263238"/>
            <path d="M286.924 180.309C286.981 180.706 287.116 181.089 287.321 181.433C287.527 181.778 287.798 182.079 288.121 182.318C288.444 182.557 288.81 182.729 289.2 182.825C289.59 182.921 289.995 182.939 290.392 182.877C290.777 182.833 291.15 182.712 291.489 182.522C291.828 182.332 292.125 182.077 292.364 181.771C292.603 181.465 292.779 181.115 292.881 180.74C292.983 180.366 293.01 179.975 292.96 179.59C292.84 178.79 292.407 178.07 291.757 177.589C291.107 177.108 290.293 176.903 289.493 177.021C289.106 177.062 288.731 177.181 288.391 177.37C288.05 177.558 287.751 177.814 287.512 178.121C287.272 178.427 287.097 178.779 286.996 179.155C286.895 179.531 286.871 179.923 286.924 180.309Z" fill="#263238"/>
            <path d="M319.312 173.297C319.432 174.097 319.865 174.816 320.515 175.298C321.165 175.779 321.979 175.983 322.779 175.865C323.165 175.821 323.538 175.7 323.876 175.51C324.215 175.321 324.512 175.065 324.752 174.759C324.991 174.453 325.166 174.103 325.269 173.728C325.371 173.354 325.398 172.963 325.348 172.578C325.227 171.778 324.794 171.059 324.145 170.577C323.495 170.096 322.68 169.892 321.88 170.01C321.493 170.051 321.118 170.169 320.778 170.358C320.438 170.547 320.139 170.802 319.899 171.109C319.66 171.416 319.484 171.767 319.383 172.143C319.282 172.519 319.258 172.912 319.312 173.297Z" fill="#263238"/>
            <path d="M313.944 202.268C312.936 201.955 311.849 202.004 310.873 202.407C309.898 202.811 309.094 203.543 308.602 204.477C308.131 205.335 307.941 206.318 308.056 207.29C308.171 208.261 308.586 209.172 309.244 209.897C309.944 210.584 310.865 211 311.844 211.071C312.823 211.142 313.795 210.862 314.586 210.282C315.577 209.38 316.176 208.126 316.255 206.789C316.43 205.563 316.136 204.316 315.434 203.296C315.073 202.797 314.558 202.431 313.968 202.255C313.378 202.079 312.747 202.101 312.172 202.32" fill="#EB996E"/>
            <path d="M328.943 140.627C326.927 132.49 321.897 125.421 314.869 120.851C309.116 116.695 302.282 114.296 295.195 113.942C288.063 113.635 281.1 116.165 275.829 120.979C272.089 124.686 269.95 129.711 269.87 134.977L270.281 131.381C269.202 134.307 269.202 137.522 270.281 140.447C270.872 142.014 271.591 143.606 272.208 145.173C274.046 149.701 277.457 153.412 281.813 155.627C283.786 156.685 285.996 157.224 288.234 157.193C289.355 157.171 290.457 156.904 291.464 156.412C292.471 155.919 293.359 155.213 294.065 154.342C295.659 151.558 296.154 148.278 295.452 145.148C297.137 148.241 299.542 150.884 302.463 152.853C303.955 153.806 305.729 154.217 307.488 154.015C309.247 153.814 310.882 153.014 312.12 151.748C314.226 149.18 313.405 145.122 312.12 141.937C314.107 144.941 316.891 147.333 320.159 148.846C321.019 149.339 321.973 149.649 322.958 149.755C323.944 149.861 324.942 149.762 325.887 149.462C326.643 149.088 327.304 148.546 327.82 147.879C328.336 147.211 328.694 146.436 328.866 145.61C329.247 143.974 329.274 142.275 328.943 140.627Z" fill="#263238"/>
            <path d="M310.374 147.459C310.143 147.459 310.194 144.403 309.192 139.754C308.037 133.577 304.931 127.932 300.331 123.65C297.803 121.351 294.753 119.703 291.445 118.847C288.735 118.182 285.914 118.112 283.175 118.642C280.65 119.232 278.238 120.229 276.034 121.595C276.034 121.595 276.471 120.953 277.601 120.131C279.223 118.997 281.044 118.178 282.969 117.717C285.85 117.043 288.847 117.043 291.727 117.717C295.276 118.603 298.545 120.37 301.23 122.854C306.047 127.313 309.192 133.286 310.143 139.78C310.448 141.699 310.603 143.64 310.605 145.584C310.637 146.218 310.558 146.852 310.374 147.459Z" fill="#455A64"/>
            <path d="M546.922 446.907L448.168 407.739C448.168 407.739 397.596 341.398 398.649 340.114L363.128 378.999L414.753 448.834L534.414 476.88L554.961 471.179C550.441 449.373 546.922 446.907 546.922 446.907Z" fill="#FFBE9D"/>
            <path d="M331.691 257.643L318.233 252.506L260.136 259.877V270.151L258.467 270.356C245.943 273.019 233.932 277.685 222.895 284.174C212.556 290.485 204.342 299.744 199.307 310.761C194.272 321.778 192.648 334.048 194.642 345.995C197.005 360.687 201.577 378.537 210.412 388.862C227.287 408.613 242.697 384.213 242.697 384.213C242.697 384.213 253.279 408.356 252.662 419.785C252.149 429.365 247.936 449.296 246.575 455.511C246.519 455.76 246.514 456.017 246.561 456.267C246.608 456.518 246.705 456.756 246.847 456.967C246.989 457.179 247.172 457.359 247.386 457.497C247.6 457.636 247.839 457.729 248.09 457.772L370.654 480.45L371.245 450.477L367.341 327.195L361.819 279.32C361.819 279.32 361.998 256.461 331.691 257.643Z" fill="#1ED561"/>
            <path d="M359.944 271.358L406.688 338.881L369.061 384.701L359.944 271.358Z" fill="#1ED561"/>
            <path d="M370.037 413.441C369.87 411.992 369.809 410.533 369.858 409.075C369.858 406.044 369.858 402.063 369.704 397.209C369.476 384.18 368.542 371.174 366.904 358.247C364.978 343.093 362.024 329.558 359.79 319.721L357.067 308.163C356.672 306.765 356.381 305.34 356.194 303.9C356.778 305.234 357.242 306.618 357.581 308.035C358.377 310.603 359.456 314.635 360.689 319.515C364.005 332.188 366.527 345.055 368.24 358.041C369.891 371.022 370.697 384.097 370.654 397.183C370.654 402.32 370.525 406.275 370.371 409.075C370.385 410.537 370.273 411.998 370.037 413.441Z" fill="#263238"/>
            <path d="M254.974 310.783C254.974 310.988 251.429 310.962 245.753 311.245C238.347 311.647 230.981 312.6 223.716 314.096C216.454 315.62 209.312 317.672 202.347 320.234C197.005 322.212 193.795 323.676 193.692 323.471C194.35 322.955 195.076 322.531 195.849 322.212C197.262 321.442 199.368 320.466 202.014 319.361C215.873 313.638 230.684 310.571 245.676 310.32C248.553 310.32 250.813 310.32 252.482 310.475C253.324 310.447 254.164 310.551 254.974 310.783Z" fill="#FAFAFA"/>
            <path d="M363.231 341.68C361.353 342.363 359.392 342.795 357.401 342.965C347.904 344.351 338.282 344.678 328.712 343.941C326.713 343.906 324.728 343.613 322.805 343.067C324.787 342.891 326.781 342.891 328.763 343.067C332.41 343.067 337.47 343.067 343.044 343.067C348.617 343.067 353.651 342.502 357.298 342.168C359.257 341.826 361.243 341.663 363.231 341.68Z" fill="#FAFAFA"/>
            <path d="M384.677 311.142C381.846 314.413 378.454 317.153 374.661 319.233C371.079 321.654 367.083 323.395 362.872 324.369C362.718 324.01 368.008 321.801 373.967 318C379.926 314.199 384.42 310.834 384.677 311.142Z" fill="#FAFAFA"/>
            <path d="M365.8 279.834C357.696 287.123 347.372 291.467 336.494 292.162C336.494 291.751 343.557 290.672 351.674 287.205C359.79 283.738 365.543 279.5 365.8 279.834Z" fill="#FAFAFA"/>
            <path d="M368.342 393.973C367.587 394.481 366.777 394.903 365.928 395.231C364.31 396.002 361.973 396.952 358.993 398.057C351.253 400.838 343.263 402.868 335.133 404.118C327.004 405.373 318.772 405.829 310.554 405.479C307.394 405.351 304.852 405.12 303.105 404.889C302.191 404.828 301.286 404.664 300.408 404.401C300.408 404.169 304.312 404.401 310.682 404.555C327.012 404.707 343.258 402.209 358.788 397.158C364.644 395.231 368.265 393.767 368.342 393.973Z" fill="#FAFAFA"/>
            <path d="M369.293 428.774C369.293 428.774 368.933 429.031 368.188 429.417L364.901 430.855C362.076 432.19 357.889 433.937 352.65 435.992C347.41 438.046 341.066 440.024 333.926 441.976C318.403 446.156 302.47 448.628 286.411 449.347C279.014 449.63 272.362 449.604 266.763 449.347C261.164 449.09 256.669 448.679 253.561 448.243L249.991 447.755C249.571 447.724 249.156 447.638 248.758 447.498C249.175 447.432 249.6 447.432 250.017 447.498L253.613 447.729C256.72 447.986 261.318 448.243 266.788 448.397C272.259 448.551 279.014 448.397 286.359 448.14C293.705 447.883 301.77 446.959 310.168 445.572C318.567 444.185 326.478 442.515 333.618 440.717C340.758 438.92 347.076 436.89 352.316 435.016C357.555 433.141 361.819 431.574 364.695 430.393L368.034 429.083C368.442 428.936 368.864 428.833 369.293 428.774Z" fill="#FAFAFA"/>
            <path d="M144.019 974.788L130.124 1037.53L104.775 1084C104.343 1084.79 104.08 1085.66 104 1086.56C103.919 1087.46 104.025 1088.37 104.309 1089.22C104.593 1090.08 105.05 1090.87 105.651 1091.54C106.252 1092.22 106.986 1092.76 107.805 1093.14C108.757 1093.58 109.799 1093.78 110.845 1093.73C111.89 1093.68 112.909 1093.38 113.815 1092.86C125.578 1086.08 168.753 1060.83 169.498 1056.18C170.397 1050.81 188.555 990.969 188.555 990.969L144.019 974.788Z" fill="#09983D"/>
            <g opacity="0.6">
                <path d="M107.805 1093.14L170.551 1052.04L169.883 1054.61C169.334 1056.91 167.986 1058.93 166.082 1060.31C160.945 1063.99 146.639 1073.85 114.021 1092.91C113.084 1093.46 112.027 1093.76 110.942 1093.8C109.857 1093.85 108.78 1093.62 107.805 1093.14Z" fill="white"/>
            </g>
            <g opacity="0.6">
                <path d="M162.666 1028.7C161.76 1029.08 161.025 1029.78 160.603 1030.66C160.181 1031.55 160.102 1032.56 160.38 1033.5C160.723 1034.42 161.404 1035.17 162.283 1035.6C163.162 1036.03 164.172 1036.1 165.106 1035.81C166.076 1035.41 166.862 1034.66 167.308 1033.71C167.755 1032.76 167.83 1031.68 167.52 1030.68C167.065 1029.77 166.28 1029.07 165.325 1028.72C164.369 1028.37 163.317 1028.4 162.383 1028.8" fill="white"/>
            </g>
            <path d="M128.763 1069.36C127.727 1067.05 126.273 1064.95 124.474 1063.17C122.402 1061.72 120.075 1060.69 117.616 1060.11C117.616 1059.93 118.515 1059.65 120.031 1059.8C122.003 1060.06 123.858 1060.88 125.373 1062.16C126.899 1063.4 128.025 1065.06 128.609 1066.94C129.046 1068.41 128.917 1069.36 128.763 1069.36Z" fill="#263238"/>
            <path d="M122.265 1076.62C121.906 1076.83 120.39 1074.31 117.385 1072.59C115.468 1071.7 113.495 1070.94 111.478 1070.31C112.587 1069.94 113.766 1069.85 114.918 1070.03C116.071 1070.21 117.163 1070.67 118.104 1071.36C121.52 1073.34 122.625 1076.55 122.265 1076.62Z" fill="#263238"/>
            <path d="M139.653 1060.67C137.469 1058.25 135.099 1056 132.564 1053.95C129.772 1052.24 126.853 1050.76 123.832 1049.5C127.306 1049.43 130.691 1050.6 133.386 1052.79C136.357 1054.58 138.583 1057.38 139.653 1060.67Z" fill="#263238"/>
            <path d="M145.483 1041.95C145.227 1042.28 142.119 1040 137.778 1038.74C133.438 1037.48 129.508 1037.69 129.482 1037.25C132.341 1036.51 135.347 1036.56 138.181 1037.38C141.016 1038.21 143.575 1039.79 145.586 1041.95H145.483Z" fill="#263238"/>
            <path d="M150.029 1023.64C147.524 1022.09 144.82 1020.89 141.99 1020.07C139.076 1019.67 136.121 1019.67 133.207 1020.07C133.207 1019.91 134.003 1019.3 135.647 1018.81C137.807 1018.22 140.075 1018.15 142.269 1018.6C144.463 1019.04 146.523 1019.99 148.283 1021.38C149.593 1022.61 150.132 1023.54 150.029 1023.64Z" fill="#263238"/>
            <path d="M142.941 1016.6C142.943 1015.79 143.118 1014.98 143.454 1014.24C144.182 1012.12 145.336 1010.17 146.845 1008.51C147.832 1007.2 149.22 1006.24 150.8 1005.79C151.338 1005.7 151.89 1005.78 152.384 1006C152.879 1006.23 153.293 1006.61 153.574 1007.07C154.046 1008.03 154.147 1009.13 153.856 1010.15C153.198 1012.21 151.844 1013.98 150.026 1015.15C148.208 1016.32 146.039 1016.83 143.891 1016.58C141.773 1016.27 139.791 1015.35 138.196 1013.93C136.601 1012.5 135.464 1010.63 134.927 1008.56C134.804 1008.04 134.793 1007.49 134.895 1006.96C134.996 1006.43 135.209 1005.92 135.518 1005.48C135.873 1005.07 136.351 1004.78 136.882 1004.65C137.413 1004.53 137.97 1004.57 138.472 1004.79C139.923 1005.51 141.162 1006.6 142.067 1007.95C143.429 1009.73 144.463 1011.74 145.124 1013.88C145.437 1014.64 145.585 1015.47 145.56 1016.29C144.525 1013.52 143.079 1010.93 141.271 1008.59C140.429 1007.49 139.338 1006.61 138.086 1006.02C137.811 1005.9 137.505 1005.87 137.213 1005.94C136.922 1006.01 136.66 1006.17 136.468 1006.4C136.289 1006.71 136.173 1007.04 136.129 1007.39C136.085 1007.74 136.113 1008.1 136.212 1008.43C136.747 1010.18 137.764 1011.73 139.146 1012.92C140.527 1014.11 142.216 1014.89 144.019 1015.16C145.836 1015.37 147.671 1014.96 149.224 1014C150.777 1013.03 151.957 1011.57 152.572 1009.85C152.821 1009.15 152.821 1008.39 152.572 1007.69C152.427 1007.43 152.202 1007.21 151.93 1007.09C151.658 1006.96 151.353 1006.92 151.057 1006.97C149.718 1007.34 148.526 1008.11 147.641 1009.18C145.671 1011.37 144.082 1013.88 142.941 1016.6Z" fill="#263238"/>
            <g opacity="0.3">
                <path d="M142.324 981.594L139.319 995.977L184.754 1003.53L188.555 990.969L143.942 974.788L142.324 981.594Z" fill="black"/>
            </g>
            <path d="M346.922 998.006L343.172 1048.14C343.172 1048.14 392.896 1068.69 393.102 1078.14L295.503 1074.36L298.071 995.977L346.922 998.006Z" fill="#09983D"/>
            <g opacity="0.6">
                <path d="M313.25 1042.75C312.303 1043 311.482 1043.59 310.942 1044.41C310.403 1045.23 310.182 1046.22 310.322 1047.19C310.539 1048.15 311.11 1048.98 311.921 1049.53C312.732 1050.08 313.722 1050.3 314.689 1050.14C315.696 1049.88 316.569 1049.25 317.138 1048.37C317.707 1047.5 317.933 1046.45 317.771 1045.42C317.446 1044.44 316.757 1043.63 315.848 1043.15C314.938 1042.67 313.879 1042.57 312.891 1042.85" fill="white"/>
            </g>
            <g opacity="0.6">
                <path d="M295.554 1074.36L296.119 1066.45L389.48 1072.95C389.48 1072.95 393.769 1075.01 393.153 1078.09L295.554 1074.36Z" fill="white"/>
            </g>
            <path d="M344.816 1047.7C344.816 1048.19 342.402 1048.32 340.013 1049.76C337.624 1051.2 336.289 1053.15 335.852 1052.94C335.416 1052.74 336.237 1050.02 339.165 1048.32C342.093 1046.63 344.944 1047.27 344.816 1047.7Z" fill="#263238"/>
            <path d="M354.884 1052.4C354.884 1052.89 352.881 1053.61 351.185 1055.56C349.49 1057.52 348.951 1059.62 348.463 1059.6C347.975 1059.57 347.795 1056.85 349.953 1054.46C352.11 1052.07 354.884 1051.89 354.884 1052.4Z" fill="#263238"/>
            <path d="M360.226 1064.81C359.79 1064.81 359.225 1062.47 360.534 1059.93C361.844 1057.39 364.13 1056.41 364.31 1056.82C364.49 1057.23 363.077 1058.57 362.024 1060.67C360.971 1062.78 360.689 1064.78 360.226 1064.81Z" fill="#263238"/>
            <path d="M344.354 1036.2C344.148 1036.61 341.991 1035.86 339.217 1035.94C336.443 1036.02 334.388 1036.79 334.08 1036.38C333.772 1035.97 335.929 1034.35 339.217 1034.3C342.504 1034.25 344.662 1035.84 344.354 1036.2Z" fill="#263238"/>
            <g opacity="0.3">
                <path d="M346.229 1007.95L345.561 1016.88L297.66 1014.57L297.994 1004.25L346.229 1007.95Z" fill="black"/>
            </g>
            <path d="M344.996 1026.05C343.382 1026.44 341.691 1026.37 340.116 1025.85C338.335 1025.48 336.609 1024.88 334.979 1024.08C334.028 1023.61 333.11 1023.07 332.231 1022.48C331.695 1022.15 331.21 1021.75 330.793 1021.28C330.509 1020.91 330.356 1020.46 330.356 1019.99C330.356 1019.53 330.509 1019.08 330.793 1018.71C331.042 1018.38 331.366 1018.12 331.737 1017.95C332.108 1017.77 332.515 1017.69 332.924 1017.71C333.543 1017.73 334.156 1017.83 334.748 1018.01C335.776 1018.31 336.773 1018.71 337.727 1019.2C339.349 1019.99 340.832 1021.04 342.119 1022.3C344.302 1024.49 344.996 1026.31 344.842 1026.39C344.688 1026.46 343.583 1025 341.349 1023.18C340.037 1022.15 338.605 1021.29 337.085 1020.61C336.179 1020.23 335.253 1019.91 334.311 1019.63C333.284 1019.32 332.411 1019.3 332.128 1019.63C331.846 1019.97 332.128 1019.89 332.128 1020.2C332.436 1020.54 332.791 1020.83 333.181 1021.07C334.005 1021.64 334.863 1022.17 335.749 1022.64C337.231 1023.45 338.788 1024.12 340.398 1024.64C341.962 1025 343.499 1025.47 344.996 1026.05Z" fill="#263238"/>
            <path d="M344.354 1026.72C343.5 1025.28 343.114 1023.61 343.249 1021.94C343.259 1020.14 343.554 1018.34 344.122 1016.63C344.491 1015.62 344.947 1014.65 345.484 1013.72C345.772 1013.09 346.219 1012.54 346.781 1012.12C347.343 1011.71 348.002 1011.45 348.694 1011.36C349.133 1011.39 349.554 1011.54 349.909 1011.8C350.264 1012.06 350.537 1012.42 350.698 1012.83C350.921 1013.4 351.059 1014.01 351.108 1014.62C351.277 1015.71 351.277 1016.82 351.108 1017.91C350.765 1019.73 349.98 1021.43 348.823 1022.87C346.819 1025.44 344.816 1025.82 344.765 1025.67C344.713 1025.51 346.306 1024.56 347.872 1022.17C348.771 1020.81 349.359 1019.27 349.593 1017.65C349.723 1016.72 349.723 1015.77 349.593 1014.83C349.465 1013.8 349.105 1012.93 348.72 1013.03C348.335 1013.13 347.384 1013.75 346.948 1014.57C346.446 1015.39 346.008 1016.25 345.638 1017.14C345.043 1018.69 344.663 1020.32 344.508 1021.97C344.174 1024.85 344.61 1026.72 344.354 1026.72Z" fill="#263238"/>
            <path d="M246.036 457.309C246.036 457.309 230.625 458.003 220.352 510.706C210.078 563.409 131.768 990.455 131.768 990.455L188.555 990.969L295.554 584.958L288.44 1003.61L346.126 1008.02C346.126 1008.02 389.403 544.968 389.788 518.026C390.302 484.431 371.013 450.452 371.013 450.452L246.036 457.309Z" fill="#263238"/>
            <path d="M324.089 452.815C324.449 452.815 318.541 482.993 310.913 520.055C303.285 557.117 296.813 587.116 296.453 587.038C296.094 586.961 301.975 556.86 309.603 519.798C317.231 482.736 323.806 452.738 324.089 452.815Z" fill="#455A64"/>
            <path d="M332.924 460.34C332.924 460.186 334.465 459.723 336.238 461.29C336.741 461.747 337.139 462.307 337.405 462.932C337.671 463.557 337.799 464.232 337.779 464.912C337.714 465.77 337.407 466.593 336.894 467.284C336.38 467.976 335.68 468.507 334.876 468.816C334.092 469.172 333.224 469.3 332.37 469.187C331.516 469.073 330.712 468.722 330.048 468.173C329.551 467.708 329.159 467.142 328.898 466.513C328.637 465.884 328.512 465.207 328.532 464.526C328.532 462.163 330.125 461.342 330.151 461.496C329.717 462.439 329.49 463.463 329.483 464.501C329.517 465.022 329.655 465.532 329.889 465.999C330.123 466.467 330.447 466.883 330.844 467.223C331.351 467.572 331.937 467.789 332.549 467.852C333.162 467.916 333.78 467.824 334.348 467.587C334.915 467.349 335.414 466.972 335.798 466.491C336.182 466.01 336.439 465.441 336.546 464.835C336.584 464.314 336.517 463.792 336.349 463.297C336.181 462.803 335.916 462.348 335.57 461.958C334.311 460.494 332.899 460.545 332.924 460.34Z" fill="#455A64"/>
            <path d="M330.484 481.195C330.484 481.041 332.077 481.195 333.053 483.327C333.301 483.936 333.413 484.591 333.382 485.247C333.351 485.904 333.177 486.546 332.873 487.128C332.431 487.821 331.809 488.379 331.074 488.745C330.338 489.11 329.517 489.269 328.699 489.203C327.88 489.137 327.095 488.849 326.428 488.37C325.76 487.892 325.236 487.24 324.911 486.486C324.706 485.867 324.638 485.211 324.714 484.563C324.789 483.915 325.006 483.292 325.348 482.736C326.555 480.81 328.198 480.861 328.147 481.015C328.096 481.17 326.914 481.529 326.169 483.173C325.793 484.095 325.793 485.128 326.169 486.049C326.438 486.559 326.83 486.993 327.311 487.31C327.792 487.627 328.345 487.818 328.919 487.864C329.493 487.91 330.069 487.81 330.594 487.574C331.12 487.337 331.576 486.972 331.923 486.512C332.406 485.634 332.526 484.601 332.256 483.635C331.512 481.889 330.356 481.375 330.484 481.195Z" fill="#455A64"/>
            <path d="M276.06 460.854C275.955 461.736 275.73 462.6 275.392 463.422C274.59 465.774 273.585 468.051 272.387 470.228C268.469 477.494 262.809 483.674 255.915 488.214C249.021 492.755 241.108 495.515 232.886 496.246C230.416 496.461 227.932 496.461 225.463 496.246C224.593 496.218 223.73 496.08 222.895 495.835C222.895 495.578 226.773 496.015 232.911 495.244C240.912 494.273 248.578 491.46 255.307 487.026C262.036 482.592 267.646 476.657 271.694 469.689C274.699 464.501 275.829 460.777 276.06 460.854Z" fill="#455A64"/>
            <path d="M386.552 498.326C386.552 498.326 385.884 498.018 384.831 497.299C383.36 496.241 381.985 495.055 380.722 493.755C376.498 489.479 373.202 484.377 371.041 478.769C368.88 473.161 367.9 467.166 368.163 461.162C368.221 459.354 368.454 457.557 368.856 455.794C369.138 454.535 369.318 453.868 369.421 453.893C369.524 453.919 369.113 456.693 369.113 461.187C369.117 472.986 373.501 484.362 381.415 493.113C384.42 496.426 386.681 498.121 386.552 498.326Z" fill="#455A64"/>
            <path d="M585.782 499.816C586.629 497.761 586.398 498.583 572.786 489.542C572.786 489.542 592.306 502.384 590.277 496.272C588.521 493.956 586.374 491.966 583.933 490.39C589.069 493.421 592.049 493.755 592.948 492.522C594.489 490.39 583.316 482.248 578 478.575C582.86 482.053 587.958 485.185 593.256 487.95C596.415 488.926 594.9 485.228 592.768 482.531C590.636 479.834 574.096 463.91 569.652 459.158C569.23 458.797 568.89 458.348 568.657 457.842C568.424 457.337 568.304 456.787 568.304 456.23C568.304 455.674 568.424 455.124 568.657 454.619C568.89 454.113 569.23 453.664 569.652 453.303C577.614 448.166 581.107 439.973 581.005 437.276C580.916 436.669 580.638 436.105 580.209 435.666C579.78 435.227 579.224 434.935 578.619 434.833C578.014 434.73 577.392 434.822 576.842 435.094C576.293 435.367 575.844 435.807 575.56 436.351C573.55 438.849 571.208 441.061 568.599 442.926C566.577 444.504 564.301 445.728 561.87 446.548C559.045 447.472 545.15 446.702 542.171 445.186L532.693 477.317C532.693 477.317 567.084 493.395 573.608 496.528C581.621 500.33 585.191 501.383 585.782 499.816Z" fill="#FFBE9D"/>
            <path d="M566.596 484.791C566.313 485.176 570.782 488.438 576.561 492.111C582.34 495.784 587.194 498.429 587.426 498.044C587.657 497.659 583.188 494.371 577.435 490.724C571.681 487.077 566.853 484.303 566.596 484.791Z" fill="#EB996E"/>
            <path d="M569.832 478.498C569.575 478.884 574.147 482.633 580.106 486.897C586.064 491.161 590.996 494.32 591.252 493.96C591.509 493.6 586.963 489.825 580.979 485.561C574.995 481.298 570.115 478.139 569.832 478.498Z" fill="#EB996E"/>
            <path d="M573.248 472.129C572.991 472.488 577.255 476.135 582.777 480.245C588.299 484.354 593.051 487.385 593.256 487.025C593.462 486.666 589.275 483.019 583.753 478.909C578.231 474.8 573.531 471.769 573.248 472.129Z" fill="#EB996E"/>
            <path d="M223.46 355.755L248.681 357.142C250.468 364.183 252.856 371.058 255.821 377.689C276.137 342.451 291.779 295.218 295.785 276.238C295.22 274.372 294.527 272.265 293.705 269.92C293.09 266.374 293.194 262.74 294.013 259.235C294.707 255.023 295.888 249.321 296.222 246.701C297.326 238.688 298.611 237.404 301.359 238.329C305.16 239.561 299.792 260.853 302.9 261.316C304.595 261.547 306.624 254.253 307.24 248.268C307.857 242.284 310.528 223.894 312.506 222.584C315.408 220.786 317.925 223.637 317.206 229.596C316.487 235.555 315.536 253.61 318.695 253.842C321.854 254.073 324.423 223.56 324.423 223.56C324.423 223.56 323.935 216.934 327.582 217.088C334.183 217.37 329.046 249.552 328.481 252.609C328.07 254.715 331.512 255.177 331.82 252.814C332.128 250.451 333.72 222.276 340.424 222.507C345.561 222.687 336.443 249.013 339.345 255.126C342.247 261.239 344.251 234.399 349.182 234.758C351.006 234.913 352.367 235.272 349.002 250.451C345.719 262.522 341.783 274.405 337.213 286.049C329.508 328.171 295.118 462.908 241.387 438.252C211.337 424.46 197.288 356.063 197.288 356.063L223.46 355.755Z" fill="#FFBE9D"/>
            <path d="M337.265 286.28C337.309 285.962 337.395 285.651 337.522 285.356C337.753 284.688 338.035 283.815 338.421 282.787C339.268 280.347 340.424 276.957 341.939 272.514C343.455 268.071 345.278 262.677 347.076 256.307C348.001 253.148 348.771 249.707 349.465 246.034C349.824 244.185 350.158 242.284 350.389 240.332C350.453 239.366 350.453 238.396 350.389 237.43C350.389 236.428 350.158 235.606 349.362 235.58C348.566 235.555 348.001 236.043 347.436 236.89C346.924 237.797 346.503 238.752 346.177 239.741C345.458 241.77 344.893 243.928 344.328 246.111C343.763 248.294 343.249 250.58 342.581 252.891C342.29 254.158 341.768 255.359 341.04 256.436C340.857 256.647 340.616 256.799 340.347 256.872C340.177 256.91 340.001 256.908 339.832 256.868C339.663 256.828 339.506 256.751 339.371 256.641C339.076 256.371 338.832 256.049 338.652 255.691C338.38 255.06 338.199 254.394 338.112 253.713C337.995 248.533 338.513 243.358 339.653 238.303C340.09 235.735 340.552 233.166 340.886 230.598C341.04 229.288 341.194 228.029 341.22 226.642C341.246 225.256 341.04 223.792 340.501 223.56C339.962 223.329 338.652 224.048 337.933 225.127C337.223 226.267 336.662 227.492 336.263 228.774C335.387 231.457 334.726 234.205 334.285 236.993C333.797 239.818 333.412 242.695 333.078 245.623C332.95 247.087 332.796 248.551 332.667 250.04L332.462 252.275C332.489 252.752 332.411 253.23 332.234 253.673C332.056 254.117 331.784 254.517 331.435 254.843C330.995 255.165 330.464 255.338 329.919 255.338C329.374 255.338 328.844 255.165 328.404 254.843C328.155 254.679 327.944 254.463 327.784 254.211C327.625 253.958 327.521 253.675 327.479 253.379C327.44 253.107 327.44 252.83 327.479 252.557V252.018L328.173 247.523C328.609 244.493 328.969 241.462 329.251 238.38C329.534 235.298 329.765 232.19 329.816 229.082C329.967 226.006 329.655 222.923 328.892 219.939C328.715 219.182 328.255 218.52 327.608 218.09C327.298 217.99 326.965 217.991 326.655 218.093C326.346 218.194 326.077 218.391 325.887 218.655C325.055 220.175 324.714 221.916 324.911 223.637C324.346 229.673 323.704 235.606 322.83 241.436C322.394 244.339 321.906 247.241 321.187 250.092C320.981 250.785 320.776 251.504 320.519 252.224C320.275 253.095 319.762 253.868 319.055 254.432C318.742 254.586 318.386 254.629 318.046 254.554C317.705 254.48 317.4 254.292 317.18 254.021C316.866 253.692 316.63 253.297 316.487 252.866C316.209 252.153 316.011 251.413 315.896 250.657C315.294 245.068 315.242 239.433 315.742 233.834C316.121 231.224 316.267 228.585 316.178 225.949C316.095 224.824 315.58 223.775 314.74 223.021C314.543 222.898 314.323 222.817 314.093 222.782C313.864 222.746 313.629 222.758 313.404 222.816C313.164 222.897 312.932 223 312.711 223.124C312.48 223.329 312.506 223.124 312.351 223.56C311.423 225.87 310.742 228.272 310.322 230.726C309.809 233.295 309.372 235.632 308.987 238.046C308.602 240.46 308.242 242.823 307.934 245.186C307.626 247.549 307.472 249.861 307.009 252.172C306.61 254.431 306.008 256.648 305.211 258.799C305 259.346 304.751 259.878 304.466 260.391C304.107 260.879 303.901 261.495 302.925 261.804C302.676 261.85 302.418 261.82 302.185 261.72C301.952 261.619 301.754 261.452 301.616 261.239C301.436 260.942 301.298 260.622 301.205 260.288C301.089 259.73 301.02 259.163 300.999 258.593C300.999 254.201 301.59 250.195 301.821 246.316C301.989 244.462 301.989 242.597 301.821 240.743C301.821 239.921 301.436 238.945 300.973 238.765C300.65 238.607 300.294 238.524 299.933 238.524C299.573 238.524 299.217 238.607 298.893 238.765C297.815 239.923 297.147 241.403 296.992 242.977C296.607 244.544 296.453 246.137 296.171 247.652C295.092 253.713 293.962 258.953 293.422 263.216C293.169 265.091 293.169 266.992 293.422 268.867C293.782 270.408 294.321 271.795 294.604 272.873C294.886 273.952 295.169 274.723 295.349 275.442C295.444 275.717 295.513 276.001 295.554 276.289C295.4 276.041 295.279 275.773 295.195 275.493L294.321 272.925C293.962 271.82 293.422 270.588 292.986 268.892C292.711 266.967 292.711 265.013 292.986 263.088C293.474 258.747 294.501 253.559 295.554 247.472C295.837 245.957 295.991 244.364 296.325 242.721C296.509 241.852 296.74 240.995 297.018 240.152C297.275 239.218 297.835 238.396 298.611 237.815C299.077 237.568 299.598 237.438 300.126 237.438C300.654 237.438 301.174 237.568 301.641 237.815C302.143 238.131 302.556 238.572 302.839 239.093C303.123 239.615 303.267 240.201 303.259 240.794C303.439 242.725 303.439 244.668 303.259 246.599C303.08 250.503 302.463 254.587 302.566 258.747C302.585 259.239 302.645 259.729 302.746 260.211C302.746 260.699 303.105 260.905 303.054 260.802C303.002 260.699 303.542 260.391 303.747 259.98C304.001 259.524 304.224 259.052 304.415 258.568C305.176 256.486 305.735 254.335 306.085 252.147C306.521 249.912 306.675 247.601 306.983 245.212C307.292 242.823 307.6 240.46 307.985 238.02C308.37 235.58 308.807 233.14 309.295 230.649C309.713 228.047 310.437 225.504 311.452 223.072C311.658 222.665 311.968 222.319 312.351 222.071C312.693 221.884 313.055 221.737 313.43 221.634C313.861 221.511 314.313 221.482 314.756 221.548C315.199 221.615 315.623 221.775 315.999 222.019C316.595 222.493 317.087 223.083 317.445 223.755C317.803 224.427 318.018 225.165 318.079 225.923C318.272 227.321 318.272 228.738 318.079 230.135C317.951 231.445 317.822 232.704 317.745 234.142C317.245 239.613 317.296 245.12 317.899 250.58C318.009 251.228 318.181 251.865 318.413 252.48C318.49 252.729 318.622 252.957 318.798 253.148C318.798 253.148 318.798 253.148 318.927 253.148C318.927 253.739 318.927 253.148 318.927 253.379C318.927 253.611 318.927 253.379 318.927 253.174C319.247 252.745 319.498 252.268 319.671 251.761C319.911 251.128 320.117 250.46 320.288 249.758C320.981 247.035 321.444 244.159 321.88 241.282C322.753 235.503 323.395 229.57 323.935 223.56V223.689C323.706 221.572 324.166 219.437 325.245 217.602C325.657 217.077 326.222 216.694 326.862 216.505C327.501 216.316 328.184 216.332 328.815 216.549C329.353 216.848 329.827 217.252 330.206 217.737C330.585 218.222 330.863 218.779 331.024 219.374C331.846 222.532 332.184 225.797 332.025 229.057C332.025 232.242 331.743 235.375 331.46 238.483C331.178 241.59 330.792 244.647 330.356 247.678C330.125 249.219 329.894 250.708 329.662 252.224C329.457 253.174 329.508 253.2 329.662 253.482C329.841 253.602 330.051 253.667 330.266 253.667C330.481 253.667 330.691 253.602 330.869 253.482C331.178 253.251 331.229 252.814 331.306 251.967L331.486 249.732L331.948 245.289C332.256 242.361 332.667 239.433 333.155 236.582C333.631 233.719 334.317 230.894 335.21 228.132C335.676 226.736 336.306 225.4 337.085 224.151C337.509 223.478 338.069 222.901 338.729 222.456C339.095 222.191 339.519 222.018 339.966 221.951C340.413 221.884 340.869 221.925 341.297 222.071C341.691 222.313 342.023 222.644 342.268 223.036C342.513 223.428 342.664 223.871 342.71 224.331C342.816 225.054 342.859 225.784 342.838 226.514C342.838 227.927 342.658 229.288 342.504 230.649C342.145 233.218 341.657 235.94 341.194 238.534C340.091 243.413 339.557 248.403 339.602 253.405C339.674 253.942 339.812 254.468 340.013 254.972C340.106 255.154 340.218 255.326 340.347 255.485C340.347 255.485 340.347 255.485 340.347 255.306C340.924 254.377 341.348 253.363 341.605 252.301C342.273 250.066 342.812 247.806 343.403 245.597C343.933 243.399 344.576 241.231 345.33 239.099C345.685 238.043 346.15 237.028 346.716 236.068C347.023 235.546 347.423 235.084 347.898 234.707C348.156 234.483 348.464 234.325 348.797 234.245C349.129 234.193 349.467 234.193 349.798 234.245C350.149 234.28 350.484 234.408 350.768 234.616C351.053 234.823 351.277 235.103 351.417 235.426C351.631 235.966 351.744 236.541 351.75 237.122C351.77 238.16 351.71 239.199 351.571 240.229C351.34 242.233 350.954 244.133 350.595 246.008C349.85 249.681 349.028 253.174 348.026 256.282C346.1 262.651 344.174 268.045 342.607 272.437C341.04 276.829 339.705 280.142 338.806 282.505C338.369 283.584 338.01 284.431 337.753 285.073C337.638 285.493 337.474 285.898 337.265 286.28Z" fill="#EB996E"/>
            <path d="M197.057 358.657C201.937 375.891 211.491 402.474 221.739 430.572C222.062 431.478 222.646 432.266 223.418 432.839C224.19 433.412 225.115 433.743 226.075 433.789C227.035 433.836 227.987 433.597 228.811 433.102C229.635 432.607 230.293 431.878 230.702 431.009L255.821 377.869C255.821 377.869 249.76 334.206 250.274 335.773C250.787 337.34 198.444 341.424 198.444 341.424L197.057 358.657Z" fill="#1ED561"/>
            <path d="M253.664 350.105C253.664 350.31 250.53 351.235 245.573 353.135C239.095 355.594 232.854 358.638 226.927 362.228C221.008 365.834 215.421 369.96 210.232 374.556C206.251 378.074 203.966 380.489 203.811 380.335C203.657 380.181 204.248 379.616 205.224 378.46C206.6 376.854 208.057 375.319 209.59 373.862C214.653 368.987 220.234 364.681 226.233 361.02C232.235 357.404 238.607 354.442 245.24 352.185C247.245 351.494 249.285 350.911 251.352 350.439C252.1 350.205 252.88 350.092 253.664 350.105Z" fill="#FAFAFA"/>
            <path d="M263.629 363.358C261.997 361.712 260.582 359.865 259.417 357.861C256.418 353.185 253.839 348.251 251.712 343.119C249.583 337.971 247.924 332.641 246.755 327.195C246.156 324.967 245.854 322.67 245.856 320.363C246.622 322.516 247.231 324.722 247.68 326.964C249.055 332.282 250.771 337.506 252.816 342.605C254.953 347.677 257.406 352.609 260.162 357.373C261.444 359.292 262.603 361.291 263.629 363.358Z" fill="#263238"/>
            <path d="M280.375 128.042C276.018 135.224 273.316 143.287 272.468 151.644C271.619 160.001 272.645 168.442 275.469 176.353C278.038 183.416 282.147 190.377 281.402 197.876C280.658 205.376 274.802 212.799 276.856 220.196C278.089 224.588 281.839 227.901 283.303 232.164C284.972 237.301 283.303 242.72 282.404 247.986C280.349 261.444 284.664 274.979 285.717 288.54C286.77 302.102 283.149 318 271.026 323.907C267.353 325.705 262.55 326.219 259.494 323.471C255.59 320.003 256.669 313.736 257.748 308.6C268.381 257.232 235.531 207.097 243.031 155.113C244.238 146.791 248.887 132.665 254.871 126.861C260.855 121.056 277.473 121.724 283.123 127.888" fill="#263238"/>
            <path d="M229.778 277.06C229.778 277.06 231.345 275.211 233.656 271.563C236.9 266.413 239.172 260.711 240.36 254.741C241.135 250.628 241.402 246.436 241.156 242.258C240.707 237.401 240.526 232.522 240.616 227.644C240.77 224.973 241.262 222.332 242.08 219.785C243.019 217.161 244.206 214.632 245.625 212.234C248.501 207.379 252.123 202.859 255.462 198.031C258.89 193.467 261.275 188.206 262.448 182.62C263.017 177.358 262.713 172.039 261.549 166.876C260.577 162.078 260.197 157.178 260.419 152.288C260.724 148.016 261.588 143.802 262.987 139.754C264.949 133.88 268.037 128.445 272.079 123.753C273.153 122.477 274.32 121.284 275.572 120.183C275.969 119.76 276.418 119.389 276.908 119.078C276.908 119.078 275.187 120.748 272.464 124.215C265.98 132.264 262.189 142.147 261.626 152.467C261.454 157.278 261.877 162.092 262.884 166.799C264.109 172.1 264.439 177.57 263.86 182.98C262.643 188.722 260.189 194.13 256.669 198.827C253.304 203.732 249.683 208.227 246.858 212.953C245.468 215.262 244.315 217.706 243.416 220.247C242.603 222.69 242.111 225.228 241.952 227.798C241.838 232.622 241.976 237.449 242.363 242.258C242.567 246.52 242.239 250.791 241.387 254.972C240.1 261.023 237.658 266.77 234.195 271.897C233.258 273.283 232.228 274.605 231.113 275.853C230.714 276.303 230.266 276.708 229.778 277.06Z" fill="#455A64"/>
            <path d="M205.43 280.887C205.636 280.288 205.903 279.711 206.226 279.166C206.868 277.959 207.69 276.366 208.794 274.363C210.952 270.177 214.162 264.089 217.321 256.384C221.186 247.385 223.329 237.741 223.639 227.952C223.641 225.132 223.426 222.316 222.997 219.528C222.561 216.651 221.893 213.749 221.456 210.718C220.922 207.584 220.992 204.375 221.662 201.267C222.53 198.075 224.316 195.208 226.799 193.022C231.627 188.63 237.457 185.754 240.488 180.591C243.114 175.472 244.661 169.869 245.034 164.128C245.578 158.865 246.768 153.689 248.578 148.718C252.65 138.045 259.903 128.881 269.357 122.469C270.864 121.454 272.434 120.536 274.057 119.72C274.605 119.392 275.191 119.133 275.803 118.95C275.803 118.95 273.492 120.183 269.665 122.905C264.271 126.754 259.602 131.528 255.873 137.006C253.287 140.76 251.181 144.825 249.606 149.103C247.875 154.086 246.754 159.26 246.267 164.513C245.496 169.984 244.88 176.097 241.592 181.516C238.305 186.935 232.295 190.017 227.697 194.358C225.355 196.391 223.666 199.072 222.843 202.063C222.219 205.004 222.158 208.037 222.663 211.001C223.074 213.955 223.716 216.883 224.153 219.785C224.597 222.639 224.804 225.526 224.77 228.415C224.421 238.383 222.162 248.192 218.117 257.309C215.49 263.47 212.506 269.474 209.179 275.288L206.457 279.32C206.171 279.877 205.826 280.402 205.43 280.887Z" fill="#455A64"/>
            <path d="M1055.21 1006.64C1055.32 1006.26 1055.48 1005.9 1055.67 1005.56C1056.03 1004.79 1056.52 1003.76 1057.11 1002.45C1058.89 998.437 1060.33 994.278 1061.4 990.018C1064.22 978.974 1065.22 962.1 1061.04 942.066C1058.76 931.141 1055.79 920.374 1052.12 909.833C1048.37 898.404 1043.98 886.281 1040.41 873.157C1036.38 859.468 1034.43 845.252 1034.63 830.984C1035.17 816.061 1039.59 801.19 1044.44 786.345C1049.3 771.5 1054.31 757.04 1055.8 742.4C1057.45 728.361 1054.63 714.158 1047.73 701.82C1041.31 689.979 1033.22 679.834 1027.18 669.355C1021.53 659.618 1017.37 649.091 1014.83 638.124C1011.19 622.244 1010.92 605.777 1014.03 589.787C1015.17 583.936 1016.89 578.214 1019.17 572.707C1019.1 573.092 1019 573.47 1018.86 573.837L1017.84 577.099C1016.96 579.975 1015.81 584.29 1014.7 589.941C1011.83 605.859 1012.26 622.198 1015.96 637.944C1018.54 648.778 1022.72 659.166 1028.37 668.764C1034.4 679.038 1042.52 689.312 1049.09 701.203C1056.16 713.792 1059.06 728.293 1057.39 742.631C1055.87 757.477 1050.84 772.091 1045.99 786.91C1041.13 801.73 1036.76 816.447 1036.23 831.112C1036 845.238 1037.9 859.317 1041.88 872.874C1045.39 885.921 1049.71 898.044 1053.43 909.525C1057.06 920.123 1059.98 930.952 1062.17 941.938C1066.25 962.125 1065.09 979.18 1062.17 990.249C1061.02 994.518 1059.48 998.67 1057.57 1002.65L1055.98 1005.71C1055.76 1006.05 1055.5 1006.36 1055.21 1006.64Z" fill="#263238"/>
            <path d="M1035.4 679.706C1035.4 679.706 1023.13 640.384 1045.16 617.371C1045.33 617.186 1045.55 617.052 1045.8 616.984C1046.04 616.916 1046.3 616.916 1046.54 616.985C1046.78 617.055 1047 617.19 1047.17 617.376C1047.34 617.562 1047.45 617.791 1047.5 618.039C1048.68 624.537 1050.15 644.313 1035.4 679.706Z" fill="#1ED561"/>
            <path d="M1042.77 630.47C1042.74 632.905 1042.46 635.331 1041.95 637.713C1041.13 642.721 1040.18 648.577 1039.15 655.049C1038.13 661.522 1037.18 667.403 1036.38 672.386C1036.16 674.815 1035.73 677.221 1035.1 679.577C1034.85 677.148 1034.91 674.7 1035.25 672.283C1035.66 667.788 1036.46 661.624 1037.56 654.844C1038.67 648.063 1039.87 642.002 1040.82 637.558C1041.2 635.128 1041.85 632.749 1042.77 630.47Z" fill="#263238"/>
            <path d="M1049.84 772.45C1049.84 772.45 1057.36 731.947 1087.62 721.93C1087.86 721.847 1088.11 721.832 1088.36 721.886C1088.61 721.941 1088.83 722.063 1089.02 722.238C1089.2 722.414 1089.33 722.637 1089.39 722.882C1089.45 723.127 1089.44 723.384 1089.37 723.625C1087.36 729.866 1079.43 748.025 1049.84 772.45Z" fill="#5DE890"/>
            <path d="M1079.37 732.332C1078.2 734.471 1076.83 736.492 1075.27 738.368L1064.66 752.365L1054.13 766.414C1052.8 768.453 1051.3 770.369 1049.63 772.142C1050.57 769.882 1051.78 767.743 1053.23 765.772C1055.8 761.997 1059.29 756.911 1063.5 751.441C1067.71 745.97 1071.54 741.167 1074.44 737.674C1075.89 735.718 1077.54 733.926 1079.37 732.332Z" fill="#263238"/>
            <path d="M1041.67 873.979C1041.67 873.979 1037.1 833.038 1063.14 814.674C1063.34 814.517 1063.58 814.421 1063.84 814.397C1064.09 814.373 1064.35 814.421 1064.57 814.538C1064.8 814.654 1064.99 814.832 1065.12 815.052C1065.25 815.272 1065.31 815.524 1065.3 815.779C1065.22 822.38 1062.89 842.053 1041.67 873.979Z" fill="#5DE890"/>
            <path d="M1058.36 827.054C1057.89 829.445 1057.16 831.779 1056.18 834.014L1050.12 850.503C1047.86 856.668 1045.83 862.241 1044.11 866.992C1043.45 869.331 1042.59 871.608 1041.54 873.799C1041.78 871.363 1042.31 868.965 1043.13 866.659C1044.39 862.344 1046.34 856.385 1048.73 849.964C1051.12 843.543 1053.46 837.764 1055.23 833.629C1056.05 831.337 1057.1 829.133 1058.36 827.054Z" fill="#263238"/>
            <path d="M1064.45 976.149C1064.45 976.149 1061.37 935.055 1088.03 917.641C1088.24 917.497 1088.48 917.415 1088.74 917.403C1088.99 917.39 1089.24 917.449 1089.46 917.572C1089.68 917.694 1089.87 917.877 1089.99 918.097C1090.11 918.318 1090.17 918.57 1090.16 918.823C1089.85 925.423 1086.82 945.02 1064.45 976.149Z" fill="#5DE890"/>
            <path d="M1082.74 929.867C1082.16 932.239 1081.35 934.545 1080.3 936.75C1078.4 941.424 1076.14 947.023 1073.65 953.008C1071.16 958.992 1068.97 964.565 1067.07 969.266C1066.31 971.584 1065.34 973.828 1064.17 975.969C1064.51 973.54 1065.14 971.16 1066.04 968.88C1067.46 964.617 1069.61 958.761 1072.23 952.417C1074.85 946.073 1077.37 940.371 1079.3 936.313C1080.21 934.048 1081.37 931.887 1082.74 929.867Z" fill="#263238"/>
            <path d="M1017.73 645.161C1017.73 645.161 981.313 626.052 980.517 594.23C980.515 593.98 980.58 593.735 980.706 593.519C980.832 593.304 981.013 593.126 981.232 593.005C981.45 592.884 981.697 592.824 981.946 592.832C982.196 592.84 982.438 592.914 982.649 593.048C988.068 596.798 1003.12 609.743 1017.73 645.161Z" fill="#1ED561"/>
            <path d="M988.094 605.171C989.803 606.918 991.327 608.837 992.64 610.899C995.619 614.982 999.087 619.811 1002.91 625.128L1013.19 639.305C1014.75 641.17 1016.14 643.173 1017.35 645.289C1015.47 643.726 1013.79 641.941 1012.34 639.973C1009.44 636.531 1005.64 631.6 1001.63 626.026C997.623 620.453 994.104 615.291 991.69 611.515C990.274 609.531 989.069 607.405 988.094 605.171Z" fill="#263238"/>
            <path d="M1056.95 729.584C1056.95 729.584 1019.35 712.761 1016.71 680.99C1016.68 680.74 1016.73 680.49 1016.84 680.265C1016.96 680.041 1017.13 679.853 1017.34 679.72C1017.55 679.587 1017.8 679.515 1018.05 679.513C1018.3 679.51 1018.55 679.577 1018.76 679.706C1024.39 683.122 1040.18 695.09 1056.95 729.584Z" fill="#1ED561"/>
            <path d="M1024.98 691.469C1026.79 693.1 1028.42 694.916 1029.86 696.888L1041 710.475L1052.18 724.01C1053.85 725.782 1055.36 727.698 1056.7 729.738C1054.72 728.283 1052.93 726.602 1051.35 724.73C1048.27 721.442 1044.16 716.767 1039.82 711.451C1035.48 706.134 1031.68 701.177 1029.01 697.556C1027.44 695.682 1026.09 693.641 1024.98 691.469Z" fill="#263238"/>
            <path d="M1035.25 823.818C1035.25 823.818 1009.57 791.713 1021.56 762.177C1021.65 761.945 1021.81 761.744 1022.01 761.595C1022.22 761.447 1022.45 761.357 1022.7 761.336C1022.95 761.315 1023.2 761.363 1023.43 761.475C1023.65 761.587 1023.84 761.759 1023.97 761.971C1027.54 767.545 1036.1 785.42 1035.25 823.818Z" fill="#5DE890"/>
            <path d="M1024.15 775.224C1025.03 777.506 1025.67 779.873 1026.05 782.287C1027.13 787.218 1028.39 793.023 1029.78 799.444C1031.17 805.865 1032.48 811.644 1033.55 816.575C1034.24 818.916 1034.71 821.314 1034.97 823.741C1033.84 821.557 1032.98 819.246 1032.4 816.858C1031.14 812.517 1029.6 806.584 1028.16 799.752C1026.72 792.92 1025.59 786.91 1024.87 782.493C1024.37 780.103 1024.13 777.666 1024.15 775.224Z" fill="#263238"/>
            <path d="M1060.93 934.541C1060.93 934.541 1023.61 917.102 1021.51 885.305C1021.48 885.052 1021.53 884.796 1021.64 884.568C1021.76 884.34 1021.93 884.148 1022.15 884.014C1022.37 883.88 1022.61 883.81 1022.87 883.811C1023.12 883.812 1023.37 883.885 1023.59 884.021C1029.11 887.539 1044.7 899.791 1060.93 934.541Z" fill="#5DE890"/>
            <path d="M1029.52 895.887C1031.29 897.571 1032.89 899.42 1034.3 901.409L1045.21 915.15L1056.16 928.891C1057.8 930.688 1059.28 932.631 1060.57 934.695C1058.66 933.195 1056.94 931.471 1055.44 929.558C1052.38 926.219 1048.37 921.468 1044.11 916.074C1039.85 910.681 1036.15 905.672 1033.53 901.999C1031.96 900.125 1030.62 898.073 1029.52 895.887Z" fill="#263238"/>
            <path d="M1135.19 772.63C1135.19 772.63 1135.19 772.938 1135.19 773.529C1135.19 774.12 1135.19 775.096 1135.19 776.097C1135.19 778.666 1134.93 781.927 1134.75 786.088C1134.29 794.872 1133.59 807.123 1132.8 821.763C1130.23 836.66 1122.52 853.174 1112.25 869.227C1104.78 881.041 1096.84 891.777 1090.16 901.768C1084.07 910.537 1078.59 919.719 1073.78 929.25C1070.59 935.69 1068.01 942.414 1066.07 949.335C1065.43 951.775 1064.91 953.701 1064.63 955.011C1064.51 955.693 1064.33 956.363 1064.09 957.014C1064.1 956.322 1064.19 955.633 1064.35 954.96C1064.53 953.624 1064.91 951.672 1065.51 949.181C1067.23 942.14 1069.69 935.297 1072.83 928.762C1077.6 919.156 1083.07 909.911 1089.19 901.101C1095.91 891.032 1103.7 880.271 1111.15 868.533C1121.29 852.558 1128.84 836.3 1131.69 821.635C1132.72 807.021 1133.57 794.795 1134.26 786.011C1134.59 781.85 1134.88 778.537 1135.08 776.046C1135.08 775.018 1135.26 774.145 1135.34 773.477C1135.25 773.203 1135.2 772.918 1135.19 772.63Z" fill="#263238"/>
            <path d="M1112.97 866.273C1112.97 866.273 1128.76 828.261 1108.91 803.322C1108.76 803.122 1108.55 802.969 1108.31 802.88C1108.08 802.791 1107.82 802.769 1107.57 802.817C1107.33 802.865 1107.1 802.981 1106.91 803.151C1106.73 803.322 1106.59 803.542 1106.52 803.785C1104.75 810.154 1101.49 829.7 1112.97 866.273Z" fill="#1ED561"/>
            <path d="M1110.09 816.601C1110.77 818.945 1111.2 821.356 1111.35 823.792C1111.92 828.261 1112.53 834.451 1113.02 841.309C1113.51 848.166 1113.74 854.382 1113.74 858.902C1113.89 861.342 1113.75 863.792 1113.3 866.196C1112.86 863.799 1112.64 861.365 1112.66 858.928C1112.33 853.791 1111.92 847.961 1111.48 841.411C1111.04 834.862 1110.63 828.929 1110.27 823.895C1109.97 821.475 1109.91 819.032 1110.09 816.601Z" fill="#263238"/>
            <path d="M1112.97 866.273C1112.97 866.273 1128.76 828.261 1108.91 803.322C1108.76 803.122 1108.55 802.969 1108.31 802.88C1108.08 802.791 1107.82 802.769 1107.57 802.817C1107.33 802.865 1107.1 802.981 1106.91 803.151C1106.73 803.322 1106.59 803.542 1106.52 803.785C1104.75 810.154 1101.49 829.7 1112.97 866.273Z" fill="#15A549"/>
            <path d="M1064.04 957.939C1064.04 957.939 1076.7 918.745 1054.87 895.527C1054.7 895.342 1054.49 895.208 1054.24 895.138C1054 895.069 1053.75 895.067 1053.51 895.133C1053.27 895.2 1053.05 895.332 1052.87 895.514C1052.7 895.697 1052.59 895.924 1052.53 896.169C1051.3 902.642 1049.63 922.418 1064.04 957.939Z" fill="#1ED561"/>
            <path d="M1057.13 908.575C1058.02 910.858 1058.64 913.237 1058.98 915.663C1059.91 920.055 1061.01 926.194 1062.06 932.974C1063.12 939.755 1063.84 945.945 1064.22 950.439C1064.55 952.865 1064.6 955.323 1064.35 957.759C1063.74 955.4 1063.33 952.995 1063.12 950.568C1062.37 945.559 1061.5 939.703 1060.55 933.205C1059.6 926.707 1058.67 920.851 1057.98 915.843C1057.46 913.454 1057.17 911.019 1057.13 908.575Z" fill="#263238"/>
            <path d="M1064.04 957.939C1064.04 957.939 1076.7 918.745 1054.87 895.527C1054.7 895.342 1054.49 895.208 1054.24 895.138C1054 895.069 1053.75 895.067 1053.51 895.133C1053.27 895.2 1053.05 895.332 1052.87 895.514C1052.7 895.697 1052.59 895.924 1052.53 896.169C1051.3 902.642 1049.63 922.418 1064.04 957.939Z" fill="#15A549"/>
            <path d="M1133.1 819.811C1133.1 819.811 1166.83 796.182 1163.44 764.488C1163.41 764.239 1163.32 764.002 1163.16 763.803C1163.01 763.604 1162.81 763.451 1162.57 763.361C1162.34 763.27 1162.09 763.246 1161.84 763.291C1161.59 763.336 1161.36 763.448 1161.18 763.615C1156.27 768.033 1143.12 782.724 1133.1 819.811Z" fill="#1ED561"/>
            <path d="M1133.1 819.811C1133.1 819.811 1166.83 796.182 1163.44 764.488C1163.41 764.239 1163.32 764.002 1163.16 763.803C1163.01 763.604 1162.81 763.451 1162.57 763.361C1162.34 763.27 1162.09 763.246 1161.84 763.291C1161.59 763.336 1161.36 763.448 1161.18 763.615C1156.27 768.033 1143.12 782.724 1133.1 819.811Z" fill="#15A549"/>
            <path d="M1157.32 776.328C1156.66 778.681 1155.72 780.947 1154.53 783.083C1152.6 787.141 1149.8 792.689 1146.54 798.75C1143.28 804.812 1140.14 810.18 1137.73 813.981C1136.54 816.115 1135.1 818.098 1133.44 819.888C1134.34 817.628 1135.46 815.461 1136.78 813.416C1139.19 808.973 1142.04 803.784 1145.18 798.006L1153.55 782.595C1154.6 780.388 1155.87 778.289 1157.32 776.328Z" fill="#263238"/>
            <path d="M1077.65 919.079C1077.65 919.079 1118.34 912.735 1129.23 882.788C1129.31 882.554 1129.34 882.301 1129.29 882.056C1129.24 881.81 1129.13 881.582 1128.97 881.396C1128.8 881.211 1128.58 881.075 1128.34 881.003C1128.1 880.931 1127.85 880.927 1127.61 880.99C1121.26 882.891 1102.88 890.211 1077.65 919.079Z" fill="#1ED561"/>
            <path d="M1077.65 919.079C1077.65 919.079 1118.34 912.735 1129.23 882.788C1129.31 882.554 1129.34 882.301 1129.29 882.056C1129.24 881.81 1129.13 881.582 1128.97 881.396C1128.8 881.211 1128.58 881.075 1128.34 881.003C1128.1 880.931 1127.85 880.927 1127.61 880.99C1121.26 882.891 1102.88 890.211 1077.65 919.079Z" fill="#15A549"/>
            <path d="M1118.54 890.724C1116.89 892.524 1115.05 894.135 1113.05 895.527C1109.53 898.353 1104.57 902.102 1099 906.109C1093.42 910.116 1088.21 913.532 1084.36 915.895C1082.35 917.296 1080.17 918.443 1077.88 919.311C1079.71 917.686 1081.68 916.233 1083.77 914.97L1098.1 904.85L1112.4 894.577C1114.31 893.079 1116.37 891.787 1118.54 890.724Z" fill="#263238"/>
            <path d="M1038.82 993.974L1026.95 1073.85H1100.92L1091.34 993.974H1038.82Z" fill="#455A64"/>
            <path d="M1094.32 1018.71C1094.32 1019.14 1080.97 1019.48 1064.5 1019.48C1048.04 1019.48 1034.66 1019.14 1034.66 1018.71C1044.59 1017.95 1054.55 1017.69 1064.5 1017.94C1074.45 1017.69 1084.4 1017.95 1094.32 1018.71Z" fill="#263238"/>
            <path d="M1095.76 1025.08C1095.76 1025.51 1081.97 1025.85 1064.94 1025.85C1047.91 1025.85 1034.12 1025.51 1034.12 1025.08C1034.12 1024.64 1047.91 1024.31 1064.94 1024.31C1081.97 1024.31 1095.76 1024.64 1095.76 1025.08Z" fill="#263238"/>
            <path d="M808.127 219.066C808.127 219.066 807.434 219.066 806.098 219.066C804.148 218.95 802.192 218.95 800.242 219.066C792.699 219.507 785.287 221.245 778.334 224.202C767.311 228.823 757.719 236.296 750.544 245.854C746.12 251.822 742.829 258.551 740.835 265.707C736.34 282.754 738.768 300.887 747.59 316.151C749.995 320.376 752.929 324.278 756.323 327.76C759.746 331.449 763.734 334.57 768.137 337.006C772.656 339.549 777.773 340.835 782.957 340.73C788.302 340.666 793.427 338.594 797.314 334.926C799.193 332.956 800.667 330.637 801.649 328.098C802.632 325.56 803.105 322.853 803.042 320.132C803.002 314.478 801.207 308.976 797.905 304.387C791.253 295.013 780.465 288.72 768.985 285.33C757.08 281.986 744.508 281.809 732.514 284.816C726.391 286.409 720.49 288.756 714.946 291.802C709.349 294.961 704.265 298.953 699.87 303.643C698.817 304.85 697.609 305.954 696.659 307.29L693.757 311.194C691.992 313.945 690.413 316.81 689.031 319.772C686.284 325.785 684.407 332.159 683.458 338.701C681.593 351.771 683.371 365.102 688.594 377.227C693.587 389.074 702.283 398.986 713.379 405.479C718.759 408.553 724.765 410.371 730.947 410.796C737.008 411.135 743.036 409.688 748.284 406.635C753.492 403.756 757.608 399.243 759.995 393.793C762.248 388.421 762.404 382.4 760.432 376.919C758.402 371.63 755.083 366.933 750.775 363.255C746.597 359.644 741.779 356.848 736.572 355.01C726.416 351.808 715.549 351.621 705.289 354.471C695.688 357.072 686.871 361.984 679.605 368.777C672.987 375.117 667.947 382.919 664.888 391.558C659.538 406.548 659.784 422.967 665.582 437.789C670.103 448.855 677.38 458.581 686.719 466.042C692.603 470.76 699.155 474.578 706.162 477.368C708.576 478.267 710.451 478.935 711.736 479.295L713.636 479.911C713.636 479.911 712.968 479.783 711.684 479.423C709.787 478.915 707.918 478.306 706.085 477.599C698.986 474.932 692.348 471.171 686.411 466.453C676.913 458.997 669.493 449.224 664.862 438.072C658.963 423.109 658.662 406.52 664.015 391.353C667.079 382.583 672.175 374.662 678.886 368.237C686.254 361.308 695.203 356.283 704.955 353.598C715.431 350.675 726.529 350.853 736.906 354.111C742.266 355.981 747.225 358.848 751.52 362.561C755.997 366.36 759.442 371.228 761.536 376.713C763.649 382.44 763.557 388.747 761.28 394.409C758.746 400.075 754.449 404.769 749.028 407.791C743.587 410.962 737.34 412.479 731.05 412.157C724.717 411.715 718.568 409.835 713.071 406.661C701.721 400.077 692.809 389.993 687.67 377.92C682.334 365.573 680.503 351.995 682.379 338.675C683.359 332.001 685.279 325.498 688.081 319.361C689.492 316.337 691.105 313.411 692.909 310.603L695.889 306.622C696.839 305.261 698.072 304.054 699.15 302.872C703.649 298.094 708.845 294.024 714.561 290.801C720.234 287.696 726.274 285.314 732.539 283.712C744.763 280.649 757.575 280.835 769.704 284.251C781.416 287.744 792.383 294.14 799.292 303.848C802.764 308.628 804.651 314.377 804.685 320.286C804.81 326.1 802.621 331.727 798.598 335.927C794.489 339.785 789.081 341.957 783.445 342.014C778.052 342.137 772.727 340.796 768.035 338.136C763.526 335.648 759.45 332.448 755.963 328.659C752.525 325.099 749.548 321.121 747.102 316.818C738.123 301.271 735.684 282.795 740.322 265.451C742.377 258.212 745.747 251.412 750.261 245.392C757.569 235.761 767.325 228.267 778.514 223.689C785.525 220.788 792.994 219.154 800.576 218.86C802.543 218.73 804.516 218.73 806.483 218.86L808.127 219.066Z" fill="#99A0AF"/>
            <path d="M893.886 476.058H533.772V753.804H893.886V476.058Z" fill="#5DE890"/>
            <path d="M533.772 476.058L600.293 538.111H954.294L893.886 476.058H533.772Z" fill="#5DE890"/>
            <path d="M533.772 476.058L893.988 475.416H894.271L894.476 475.596L954.268 537.006L954.885 537.648L955.989 538.778H954.397L600.396 538.496H600.242L533.772 476.058L600.55 537.7H600.268L954.268 537.443L953.806 538.573L953.164 537.931L893.398 476.521L893.86 476.726L533.772 476.058Z" fill="#263238"/>
            <path d="M641.953 604.144C640.002 604.214 638.157 605.048 636.814 606.465C635.472 607.883 634.74 609.77 634.775 611.722C634.81 613.674 635.611 615.534 637.003 616.901C638.396 618.269 640.27 619.036 642.222 619.036C644.174 619.036 646.048 618.269 647.441 616.901C648.834 615.534 649.634 613.674 649.669 611.722C649.705 609.77 648.972 607.883 647.63 606.465C646.288 605.048 644.443 604.214 642.492 604.144" fill="#263238"/>
            <path d="M727.043 604.144C725.1 604.218 723.264 605.051 721.929 606.464C720.594 607.878 719.867 609.759 719.904 611.702C719.941 613.646 720.74 615.498 722.127 616.859C723.515 618.221 725.382 618.984 727.326 618.984C729.27 618.984 731.136 618.221 732.524 616.859C733.912 615.498 734.71 613.646 734.747 611.702C734.784 609.759 734.057 607.878 732.722 606.464C731.387 605.051 729.551 604.218 727.608 604.144" fill="#263238"/>
            <path d="M727.531 670.614C726.046 664.94 723.634 659.551 720.391 654.664C716.784 649.438 712.153 644.999 706.779 641.617C700.295 637.314 692.732 634.919 684.953 634.706C677.175 634.492 669.492 636.468 662.782 640.409C657.24 643.503 652.376 647.678 648.476 652.686C644.964 657.393 642.265 662.653 640.489 668.251C640.508 667.833 640.577 667.419 640.694 667.018C640.94 665.861 641.257 664.72 641.644 663.602C643.052 659.476 645.106 655.601 647.731 652.121C651.603 646.879 656.528 642.505 662.191 639.279C669.075 635.17 676.985 633.105 684.998 633.323C693.011 633.541 700.797 636.035 707.446 640.512C712.914 644.026 717.586 648.646 721.162 654.073C723.601 657.696 725.448 661.684 726.632 665.888C726.948 667.028 727.197 668.186 727.377 669.355C727.466 669.769 727.517 670.19 727.531 670.614Z" fill="#263238"/>
            <path opacity="0.5" d="M534.594 479.115L598.29 559.865H893.885V538.111H600.293L534.594 479.115Z" fill="black"/>
            <path d="M822.87 753.187C822.51 753.187 822.202 704.876 822.202 645.315C822.202 585.754 822.51 537.443 822.87 537.443C823.229 537.443 823.563 585.728 823.563 645.315C823.563 704.902 823.255 753.187 822.87 753.187Z" fill="#263238"/>
            <path d="M879.426 690.21H847.68V726.091H879.426V690.21Z" fill="#F5F5F5"/>
            <path d="M533.772 476.058L459.854 538.111H533.772V476.058Z" fill="#1ED561"/>
            <path d="M533.772 476.058L459.854 538.111H533.772V476.058Z" fill="#1ED561"/>
            <path d="M904.519 753.804H490.469V1073.16H904.519V753.804Z" fill="#1ED561"/>
            <path d="M904.519 753.804H490.469V1073.16H904.519V753.804Z" fill="#1ED561"/>
            <path d="M800.781 1070.9C800.422 1070.9 800.114 999.727 800.114 911.939C800.114 824.152 800.422 752.956 800.781 752.956C801.141 752.956 801.449 824.126 801.449 911.939C801.449 999.752 801.141 1070.9 800.781 1070.9Z" fill="#263238"/>
            <path d="M869.409 1000.47H837.664V1036.35H869.409V1000.47Z" fill="#F5F5F5"/>
            <path d="M663.81 754.651H616.782V822.791H663.81V754.651Z" fill="#263238"/>
            <path d="M663.81 1004.07H616.782V1072.21H663.81V1004.07Z" fill="#263238"/>
            <path d="M900.923 753.804H899.844H896.737L884.794 753.932L840.797 754.138L695.709 754.472L550.569 754.292L506.599 754.086L494.656 753.958L506.599 753.829L550.569 753.624L695.709 753.418L840.797 753.624L884.794 753.829L896.737 753.958H899.844L900.923 753.804Z" fill="#263238"/>
            <path d="M191.329 200.907L146.228 189.812H146.562C134.917 197.219 121.451 201.264 107.651 201.498C99.4815 201.535 91.3524 200.349 83.534 197.979C69.7883 193.566 57.5935 185.309 48.3907 174.186C39.1879 163.062 33.3619 149.537 31.6012 135.208C30.2183 124.371 31.2363 113.362 34.583 102.963C37.9297 92.5632 43.5232 83.0271 50.9668 75.0306C54.8797 70.7327 59.2652 66.89 64.0399 63.5756C66.4542 62.0603 68.8685 60.4936 71.3855 59.1837L75.2124 57.3344L77.113 56.4098L79.1163 55.6907C89.4295 51.693 100.493 50.0011 111.529 50.7337C126.321 51.6941 140.496 57.0114 152.27 66.0156C164.044 75.0198 172.89 87.3078 177.691 101.331C180.359 109.175 181.763 117.394 181.852 125.679C181.916 139.449 178.174 152.968 171.039 164.744V164.333C183.573 186.961 189.891 198.39 191.303 200.907C189.839 198.339 183.29 187.115 170.32 164.719V164.513V164.308C177.199 152.645 180.752 139.321 180.593 125.782C180.474 117.629 179.052 109.548 176.381 101.845C171.632 88.1083 162.936 76.0782 151.382 67.2608C139.828 58.4434 125.929 53.2305 111.427 52.2747C100.607 51.5696 89.7646 53.235 79.6557 57.1547L77.7037 57.8481L75.8288 58.7727L72.079 60.5706C69.5106 61.8805 67.2504 63.3958 64.8618 64.8855C60.1792 68.111 55.8718 71.8498 52.0199 76.0323C44.7123 83.8824 39.2197 93.2428 35.9309 103.451C32.6421 113.659 31.6374 124.466 32.9881 135.105C35.3693 154.597 45.3697 172.354 60.8037 184.495C67.7039 189.963 75.5347 194.139 83.9192 196.823C91.5972 199.197 99.5889 200.401 107.625 200.394C121.26 200.248 134.59 196.346 146.151 189.118H146.305H146.588L191.329 200.907Z" fill="#99A0AF"/>
            <path d="M100.357 92.5984L102.643 130.354C102.734 131.843 103.367 133.247 104.422 134.302C105.477 135.357 106.881 135.99 108.37 136.081C109.937 136.17 111.479 135.655 112.678 134.642C113.877 133.629 114.642 132.196 114.817 130.636L119.003 92.8039C119.076 92.127 119.004 91.4424 118.793 90.7955C118.581 90.1485 118.234 89.5539 117.775 89.0511C117.316 88.5484 116.755 88.149 116.13 87.8794C115.505 87.6098 114.83 87.4761 114.149 87.4873H104.98C104.337 87.5065 103.704 87.6555 103.119 87.9254C102.535 88.1953 102.011 88.5804 101.579 89.0578C101.148 89.5352 100.817 90.0949 100.607 90.7033C100.397 91.3117 100.312 91.9564 100.357 92.5984Z" fill="#1ED561"/>
            <path d="M118.336 157.168C117.761 158.892 116.688 160.408 115.252 161.523C113.816 162.638 112.082 163.302 110.269 163.432C108.455 163.562 106.644 163.151 105.064 162.252C103.484 161.353 102.206 160.005 101.392 158.38C100.578 156.755 100.263 154.925 100.489 153.121C100.714 151.317 101.469 149.62 102.658 148.245C103.848 146.87 105.418 145.879 107.171 145.396C108.923 144.913 110.78 144.961 112.505 145.533C113.653 145.913 114.714 146.516 115.628 147.307C116.542 148.098 117.291 149.061 117.833 150.141C118.374 151.222 118.698 152.399 118.784 153.604C118.87 154.81 118.718 156.021 118.336 157.168Z" fill="#1ED561"/>
        </g>
    </g>
    <defs>
        <clipPath id="clip0_1329_285">
            <rect width="1164" height="1094" fill="white"/>
        </clipPath>
    </defs>
</svg>
