<svg width="343" height="75" viewBox="0 0 343 75" fill="none" xmlns="http://www.w3.org/2000/svg">
    <path d="M0 73.7216V0.994319H30.0426C35.4877 0.994319 40.187 1.9768 44.1406 3.94176C48.1179 5.88305 51.1837 8.67661 53.3381 12.3224C55.4924 15.9446 56.5696 20.2415 56.5696 25.2131C56.5696 30.2557 55.4687 34.5407 53.267 38.0682C51.0653 41.572 47.9403 44.2472 43.892 46.0938C39.8438 47.9167 35.0497 48.8281 29.5099 48.8281H10.5114V34.9787H26.2429C28.8944 34.9787 31.108 34.6354 32.8835 33.9489C34.6828 33.2386 36.044 32.1733 36.9673 30.7528C37.8906 29.3087 38.3523 27.4621 38.3523 25.2131C38.3523 22.964 37.8906 21.1056 36.9673 19.6378C36.044 18.1463 34.6828 17.0336 32.8835 16.2997C31.0843 15.5421 28.8707 15.1634 26.2429 15.1634H17.5781V73.7216H0ZM40.9446 40.483L59.0554 73.7216H39.8793L22.1236 40.483H40.9446Z" fill="black"/>
    <path d="M83.7891 0.994319V73.7216H66.2109V0.994319H83.7891Z" fill="black"/>
    <path d="M94.8242 73.7216V0.994319H144.469V15.2699H112.402V30.1847H141.309V44.4957H112.402V73.7216H94.8242Z" fill="black"/>
    <path d="M159.97 73.7216H141.078L165.616 0.994319H189.018L213.556 73.7216H194.664L177.583 19.3182H177.015L159.97 73.7216ZM157.449 45.0994H196.937V58.4517H157.449V45.0994Z" fill="black"/>
    <path d="M258.452 22.7983C258.215 20.1941 257.161 18.17 255.291 16.7259C253.445 15.2581 250.805 14.5241 247.372 14.5241C245.099 14.5241 243.205 14.8201 241.69 15.4119C240.175 16.0038 239.039 16.8206 238.281 17.8622C237.524 18.8802 237.133 20.0521 237.109 21.3778C237.062 22.4669 237.275 23.4257 237.749 24.2543C238.246 25.0829 238.956 25.8168 239.879 26.456C240.826 27.0715 241.963 27.616 243.288 28.0895C244.614 28.563 246.106 28.9773 247.763 29.3324L254.013 30.7528C257.611 31.5341 260.784 32.5758 263.53 33.8778C266.3 35.1799 268.62 36.7306 270.49 38.5298C272.384 40.3291 273.816 42.4006 274.787 44.7443C275.758 47.0881 276.255 49.7159 276.278 52.6278C276.255 57.2206 275.095 61.1624 272.798 64.4531C270.502 67.7438 267.199 70.2652 262.891 72.0171C258.606 73.7689 253.433 74.6449 247.372 74.6449C241.288 74.6449 235.985 73.7334 231.463 71.9105C226.941 70.0876 223.426 67.3177 220.916 63.6009C218.407 59.884 217.116 55.1847 217.045 49.5028H233.878C234.02 51.8466 234.647 53.7997 235.76 55.3622C236.873 56.9247 238.4 58.1084 240.341 58.9134C242.306 59.7183 244.579 60.1207 247.159 60.1207C249.527 60.1207 251.539 59.8011 253.196 59.1619C254.877 58.5227 256.167 57.6349 257.067 56.4986C257.966 55.3622 258.428 54.0601 258.452 52.5923C258.428 51.2192 258.002 50.0473 257.173 49.0767C256.345 48.0824 255.066 47.2301 253.338 46.5199C251.634 45.786 249.456 45.1113 246.804 44.4957L239.205 42.7202C232.907 41.276 227.947 38.9441 224.325 35.7244C220.703 32.4811 218.904 28.1013 218.928 22.5852C218.904 18.0871 220.111 14.1454 222.55 10.7599C224.988 7.37453 228.362 4.73485 232.67 2.84091C236.979 0.946971 241.892 0 247.408 0C253.042 0 257.931 0.958806 262.074 2.87642C266.241 4.77036 269.472 7.43371 271.768 10.8665C274.065 14.2992 275.237 18.2765 275.284 22.7983H258.452Z" fill="black"/>
    <path d="M313.423 74.7159C307.765 74.7159 302.711 73.8163 298.26 72.0171C293.833 70.1941 290.353 67.732 287.82 64.6307C285.31 61.5057 284.055 57.9782 284.055 54.0483C284.055 51.0417 284.777 48.2836 286.222 45.7742C287.666 43.2647 289.619 41.1813 292.081 39.5242C294.567 37.8433 297.337 36.7661 300.391 36.2926V35.7244C296.39 34.9905 293.111 33.1321 290.554 30.1492C288.021 27.1662 286.754 23.6742 286.754 19.6733C286.754 15.8854 287.902 12.5118 290.199 9.55256C292.519 6.59328 295.679 4.26136 299.68 2.55682C303.705 0.852273 308.286 0 313.423 0C318.561 0 323.13 0.852273 327.131 2.55682C331.155 4.26136 334.316 6.59328 336.612 9.55256C338.932 12.5118 340.092 15.8854 340.092 19.6733C340.092 23.6979 338.802 27.2017 336.222 30.1847C333.665 33.1439 330.41 34.9905 326.456 35.7244V36.2926C329.486 36.7661 332.232 37.8433 334.695 39.5242C337.18 41.1813 339.145 43.2647 340.589 45.7742C342.057 48.2836 342.791 51.0417 342.791 54.0483C342.791 57.9782 341.525 61.5057 338.991 64.6307C336.458 67.732 332.978 70.1941 328.551 72.0171C324.148 73.8163 319.105 74.7159 313.423 74.7159ZM313.423 62.2514C315.578 62.2514 317.472 61.849 319.105 61.044C320.739 60.2154 322.017 59.0672 322.94 57.5994C323.887 56.1316 324.361 54.4744 324.361 52.6278C324.361 50.7339 323.887 49.053 322.94 47.5852C321.993 46.1174 320.691 44.9692 319.034 44.1406C317.401 43.2884 315.53 42.8622 313.423 42.8622C311.34 42.8622 309.47 43.2884 307.812 44.1406C306.155 44.9692 304.853 46.1174 303.906 47.5852C302.959 49.053 302.486 50.7339 302.486 52.6278C302.486 54.4744 302.947 56.1316 303.871 57.5994C304.818 59.0436 306.108 60.1799 307.741 61.0085C309.399 61.8371 311.293 62.2514 313.423 62.2514ZM313.423 30.4688C315.27 30.4688 316.903 30.09 318.324 29.3324C319.768 28.5748 320.893 27.5213 321.697 26.1719C322.526 24.8224 322.94 23.2955 322.94 21.5909C322.94 19.8864 322.526 18.3831 321.697 17.081C320.893 15.7789 319.78 14.7609 318.359 14.027C316.939 13.2694 315.294 12.8906 313.423 12.8906C311.577 12.8906 309.931 13.2694 308.487 14.027C307.043 14.7609 305.919 15.7789 305.114 17.081C304.309 18.3831 303.906 19.8864 303.906 21.5909C303.906 23.2955 304.309 24.8224 305.114 26.1719C305.942 27.4976 307.079 28.5511 308.523 29.3324C309.967 30.09 311.6 30.4688 313.423 30.4688Z" fill="black"/>
</svg>
