<svg width="344" height="75" viewBox="0 0 344 75" fill="none" xmlns="http://www.w3.org/2000/svg">
<path d="M0.50415 73.9999V1.27264H30.5468C35.9918 1.27264 40.6912 2.25512 44.6448 4.22008C48.6221 6.16137 51.6879 8.95493 53.8422 12.6008C55.9966 16.2229 57.0737 20.5198 57.0737 25.4914C57.0737 30.534 55.9729 34.819 53.7712 38.3465C51.5695 41.8503 48.4445 44.5255 44.3962 46.3721C40.3479 48.195 35.5539 49.1064 30.0141 49.1064H11.0155V35.257H26.747C29.3986 35.257 31.6121 34.9137 33.3877 34.2272C35.1869 33.517 36.5482 32.4516 37.4715 31.0312C38.3948 29.587 38.8564 27.7404 38.8564 25.4914C38.8564 23.2423 38.3948 21.3839 37.4715 19.9161C36.5482 18.4246 35.1869 17.3119 33.3877 16.578C31.5884 15.8205 29.3749 15.4417 26.747 15.4417H18.0823V73.9999H0.50415ZM41.4488 40.7613L59.5596 73.9999H40.3834L22.6277 40.7613H41.4488Z" fill="#FF4091"/>
<path d="M84.2932 1.27264V73.9999H66.7151V1.27264H84.2932Z" fill="#FF4091"/>
<path d="M95.3284 73.9999V1.27264H144.973V15.5482H112.906V30.463H141.813V44.7741H112.906V73.9999H95.3284Z" fill="#FF4091"/>
<path d="M160.474 73.9999H141.582L166.12 1.27264H189.522L214.061 73.9999H195.169L178.088 19.5965H177.519L160.474 73.9999ZM157.953 45.3778H197.441V58.73H157.953V45.3778Z" fill="#FF4091"/>
<path d="M258.956 23.0766C258.719 20.4724 257.666 18.4483 255.795 17.0042C253.949 15.5364 251.309 14.8025 247.876 14.8025C245.604 14.8025 243.71 15.0984 242.194 15.6903C240.679 16.2821 239.543 17.0989 238.785 18.1405C238.028 19.1585 237.637 20.3304 237.614 21.6562C237.566 22.7452 237.779 23.704 238.253 24.5326C238.75 25.3612 239.46 26.0951 240.383 26.7343C241.33 27.3498 242.467 27.8943 243.793 28.3678C245.118 28.8413 246.61 29.2556 248.267 29.6107L254.517 31.0312C258.115 31.8124 261.288 32.8541 264.034 34.1562C266.804 35.4582 269.124 37.0089 270.994 38.8082C272.888 40.6074 274.32 42.6789 275.291 45.0226C276.262 47.3664 276.759 49.9942 276.783 52.9062C276.759 57.499 275.599 61.4407 273.302 64.7314C271.006 68.0222 267.703 70.5435 263.395 72.2954C259.11 74.0473 253.937 74.9232 247.876 74.9232C241.792 74.9232 236.489 74.0118 231.967 72.1888C227.445 70.3659 223.93 67.596 221.42 63.8792C218.911 60.1623 217.621 55.463 217.55 49.7812H234.382C234.524 52.1249 235.151 54.078 236.264 55.6405C237.377 57.203 238.904 58.3867 240.845 59.1917C242.81 59.9966 245.083 60.3991 247.663 60.3991C250.031 60.3991 252.043 60.0795 253.7 59.4403C255.381 58.8011 256.671 57.9133 257.571 56.7769C258.471 55.6405 258.932 54.3385 258.956 52.8707C258.932 51.4975 258.506 50.3257 257.677 49.355C256.849 48.3607 255.57 47.5084 253.842 46.7982C252.138 46.0643 249.96 45.3896 247.308 44.7741L239.709 42.9985C233.411 41.5544 228.452 39.2225 224.829 36.0028C221.207 32.7594 219.408 28.3796 219.432 22.8636C219.408 18.3654 220.615 14.4237 223.054 11.0383C225.492 7.65285 228.866 5.01317 233.175 3.11923C237.483 1.22529 242.396 0.27832 247.912 0.27832C253.546 0.27832 258.435 1.23713 262.578 3.15474C266.745 5.04868 269.976 7.71203 272.273 11.1448C274.569 14.5776 275.741 18.5548 275.788 23.0766H258.956Z" fill="#FF4091"/>
<path d="M313.927 74.9942C308.269 74.9942 303.215 74.0946 298.764 72.2954C294.337 70.4725 290.857 68.0103 288.324 64.909C285.814 61.784 284.56 58.2565 284.56 54.3266C284.56 51.32 285.282 48.5619 286.726 46.0525C288.17 43.543 290.123 41.4597 292.585 39.8025C295.071 38.1216 297.841 37.0444 300.895 36.5709V36.0028C296.894 35.2689 293.615 33.4104 291.058 30.4275C288.525 27.4445 287.258 23.9526 287.258 19.9516C287.258 16.1637 288.407 12.7902 290.703 9.83088C293.023 6.8716 296.184 4.53968 300.185 2.83514C304.209 1.13059 308.79 0.27832 313.927 0.27832C319.065 0.27832 323.634 1.13059 327.635 2.83514C331.659 4.53968 334.82 6.8716 337.116 9.83088C339.436 12.7902 340.596 16.1637 340.596 19.9516C340.596 23.9762 339.306 27.48 336.726 30.463C334.169 33.4223 330.914 35.2689 326.96 36.0028V36.5709C329.99 37.0444 332.737 38.1216 335.199 39.8025C337.685 41.4597 339.649 43.543 341.094 46.0525C342.561 48.5619 343.295 51.32 343.295 54.3266C343.295 58.2565 342.029 61.784 339.496 64.909C336.962 68.0103 333.482 70.4725 329.055 72.2954C324.652 74.0946 319.609 74.9942 313.927 74.9942ZM313.927 62.5297C316.082 62.5297 317.976 62.1273 319.609 61.3224C321.243 60.4938 322.521 59.3456 323.444 57.8778C324.391 56.41 324.865 54.7528 324.865 52.9062C324.865 51.0122 324.391 49.3314 323.444 47.8635C322.498 46.3957 321.195 45.2475 319.538 44.4189C317.905 43.5667 316.034 43.1405 313.927 43.1405C311.844 43.1405 309.974 43.5667 308.317 44.4189C306.659 45.2475 305.357 46.3957 304.41 47.8635C303.463 49.3314 302.99 51.0122 302.99 52.9062C302.99 54.7528 303.452 56.41 304.375 57.8778C305.322 59.3219 306.612 60.4582 308.246 61.2868C309.903 62.1154 311.797 62.5297 313.927 62.5297ZM313.927 30.7471C315.774 30.7471 317.408 30.3683 318.828 29.6107C320.272 28.8531 321.397 27.7996 322.202 26.4502C323.03 25.1008 323.444 23.5738 323.444 21.8692C323.444 20.1647 323.03 18.6614 322.202 17.3593C321.397 16.0572 320.284 15.0392 318.864 14.3053C317.443 13.5477 315.798 13.1689 313.927 13.1689C312.081 13.1689 310.435 13.5477 308.991 14.3053C307.547 15.0392 306.423 16.0572 305.618 17.3593C304.813 18.6614 304.41 20.1647 304.41 21.8692C304.41 23.5738 304.813 25.1008 305.618 26.4502C306.446 27.776 307.583 28.8295 309.027 29.6107C310.471 30.3683 312.105 30.7471 313.927 30.7471Z" fill="#FF4091"/>
</svg>
