<svg width="954" height="339" viewBox="0 0 954 339" fill="none" xmlns="http://www.w3.org/2000/svg">
    <path fill-rule="evenodd" clip-rule="evenodd" d="M458.928 60.4202C442.597 60.4207 426.934 66.9086 415.386 78.4566C403.837 90.0049 397.35 105.668 397.35 122V316.26C397.35 317.989 395.948 319.39 394.22 319.39C392.491 319.39 391.09 317.989 391.09 316.26V122C391.09 104.008 398.237 86.7525 410.96 74.0301C423.682 61.3075 440.938 54.1602 458.93 54.1602H458.934L516.286 54.2402C534.232 54.2763 551.432 61.4316 564.108 74.1356C576.784 86.8395 583.902 104.054 583.9 122C583.9 122 583.9 122 583.9 122V163.34C583.9 181.333 576.752 198.589 564.03 211.313C551.308 224.038 534.053 231.187 516.06 231.19H435C433.271 231.19 431.87 229.789 431.87 228.06C431.87 226.331 433.271 224.93 435 224.93H516.059C516.059 224.93 516.059 224.93 516.059 224.93C532.392 224.927 548.055 218.438 559.603 206.887C571.152 195.337 577.64 179.673 577.64 163.34V122C577.642 105.712 571.182 90.0874 559.676 78.5572C548.172 67.0277 532.563 60.5335 516.276 60.5002M516.274 60.5001L458.93 60.4202C458.929 60.4202 458.928 60.4202 458.928 60.4202" fill="#32BCAD"/>
    <path fill-rule="evenodd" clip-rule="evenodd" d="M593.67 57.2804C593.67 55.5517 595.071 54.1504 596.8 54.1504H621.68C629.554 54.1504 637.106 57.2784 642.674 62.8463L642.674 62.8463C648.242 68.4144 651.37 75.9661 651.37 83.8404V228.94C651.37 230.669 649.969 232.07 648.24 232.07C646.511 232.07 645.11 230.669 645.11 228.94V83.8404C645.11 77.6262 642.642 71.6668 638.248 67.2729C633.854 62.8789 627.894 60.4104 621.68 60.4104H596.8C595.071 60.4104 593.67 59.009 593.67 57.2804Z" fill="#32BCAD"/>
    <path d="M642.901 34.8L631.62 23.51C630.954 22.845 630.426 22.0554 630.066 21.1864C629.706 20.3173 629.521 19.3857 629.521 18.445C629.521 17.5042 629.706 16.5727 630.066 15.7036C630.426 14.8345 630.954 14.0449 631.62 13.38L642.901 2.09997C644.247 0.754699 646.071 -0.000976563 647.975 -0.000976562C649.878 -0.000976563 651.703 0.754699 653.05 2.09997L664.32 13.38C664.985 14.0449 665.513 14.8345 665.873 15.7036C666.234 16.5727 666.419 17.5042 666.419 18.445C666.419 19.3857 666.234 20.3173 665.873 21.1864C665.513 22.0554 664.985 22.845 664.32 23.51L653 34.8C652.334 35.4658 651.544 35.9939 650.674 36.3543C649.804 36.7146 648.871 36.9001 647.93 36.9001C646.988 36.9001 646.056 36.7146 645.186 36.3543C644.316 35.9939 643.526 35.4658 642.86 34.8" fill="#32BCAD"/>
    <path fill-rule="evenodd" clip-rule="evenodd" d="M752.297 73.3638C743.907 64.9817 732.531 60.2756 720.671 60.2805L696 60.2805C694.271 60.2805 692.87 58.8792 692.87 57.1505C692.87 55.4219 694.271 54.0205 696 54.0205L720.669 54.0205C720.669 54.0205 720.67 54.0205 720.67 54.0205C734.19 54.0152 747.158 59.3805 756.722 68.9363L814.433 126.647L814.435 126.648C815.921 128.136 817.686 129.316 819.628 130.122C821.569 130.927 823.652 131.341 825.755 131.341C827.858 131.341 829.941 130.927 831.882 130.122C833.824 129.316 835.589 128.136 837.076 126.648L894.577 69.1571C899.311 64.4246 904.93 60.6713 911.115 58.1118C917.3 55.5526 923.927 54.237 930.62 54.2405C930.62 54.2405 930.62 54.2405 930.62 54.2405H950.68C952.409 54.2405 953.81 55.6419 953.81 57.3705C953.81 59.0992 952.409 60.5005 950.68 60.5005L930.618 60.5005C924.748 60.4972 918.934 61.6511 913.509 63.8961C908.084 66.141 903.155 69.4329 899.003 73.5841L841.505 131.072C841.505 131.072 841.505 131.072 841.505 131.072C839.437 133.142 836.982 134.784 834.28 135.904C831.577 137.025 828.68 137.601 825.755 137.601C822.83 137.601 819.933 137.025 817.23 135.904C814.528 134.784 812.073 133.142 810.006 131.072L752.298 73.3647C752.298 73.3644 752.297 73.3641 752.297 73.3638Z" fill="#32BCAD"/>
    <path fill-rule="evenodd" clip-rule="evenodd" d="M825.755 153.488C821.509 153.488 817.437 155.174 814.432 158.175L756.723 215.884L756.722 215.885C747.157 225.44 734.19 230.805 720.67 230.801C720.67 230.801 720.67 230.801 720.67 230.801H696C694.271 230.801 692.87 229.399 692.87 227.671C692.87 225.942 694.271 224.541 696 224.541H720.67C732.53 224.544 743.907 219.839 752.298 211.456L810.007 153.747L810.008 153.746C814.186 149.573 819.849 147.228 825.755 147.228C831.661 147.228 837.325 149.573 841.502 153.746L841.503 153.747L899.003 211.247C907.389 219.628 918.762 224.334 930.619 224.331H950.68C952.409 224.331 953.81 225.732 953.81 227.461C953.81 229.189 952.409 230.591 950.68 230.591H930.621C930.621 230.591 930.621 230.591 930.621 230.591C917.104 230.595 904.139 225.229 894.578 215.675L894.577 215.674L837.078 158.175" fill="#32BCAD"/>
    <path d="M247.13 264.53C241.043 264.552 235.012 263.368 229.386 261.046C223.76 258.723 218.649 255.309 214.35 251L167 203.62C165.325 202.019 163.097 201.125 160.78 201.125C158.463 201.125 156.235 202.019 154.56 203.62L107.05 251.13C102.753 255.445 97.6444 258.866 92.018 261.196C86.3916 263.525 80.3594 264.716 74.27 264.7H65L125 324.7C133.999 333.68 146.192 338.723 158.905 338.723C171.618 338.723 183.811 333.68 192.81 324.7L252.93 264.57L247.13 264.53Z" fill="#32BCAD"/>
    <path d="M74.28 97.0904C80.3695 97.0741 86.4018 98.265 92.0283 100.594C97.6548 102.923 102.764 106.345 107.06 110.66L154.57 158.18C156.221 159.827 158.458 160.751 160.79 160.751C163.122 160.751 165.359 159.827 167.01 158.18L214.35 110.84C218.643 106.519 223.751 103.094 229.378 100.763C235.005 98.4314 241.039 97.241 247.13 97.2604H252.83L192.71 37.1404C188.258 32.6868 182.972 29.154 177.155 26.7437C171.337 24.3334 165.102 23.0928 158.805 23.0928C152.508 23.0928 146.273 24.3334 140.455 26.7437C134.638 29.154 129.352 32.6868 124.9 37.1404L65 97.0904H74.28Z" fill="#32BCAD"/>
    <path d="M302.56 147L266.23 110.67C265.411 111.005 264.535 111.181 263.65 111.19H247.13C238.534 111.211 230.293 114.625 224.2 120.69L176.86 168C172.597 172.255 166.819 174.646 160.795 174.646C154.771 174.646 148.994 172.255 144.73 168L97.2103 120.51C91.119 114.442 82.8783 111.024 74.2803 111H54.0003C53.1645 110.981 52.3386 110.815 51.5603 110.51L15.0003 147C6.02066 155.999 0.977539 168.192 0.977539 180.905C0.977539 193.617 6.02066 205.811 15.0003 214.81L51.4803 251.29C52.2569 250.979 53.0839 250.813 53.9203 250.8H74.2803C82.8781 250.775 91.1184 247.357 97.2103 241.29L144.72 193.78C153.31 185.2 168.28 185.2 176.86 193.78L224.2 241.11C230.293 247.174 238.534 250.588 247.13 250.61H263.65C264.536 250.616 265.412 250.792 266.23 251.13L302.56 214.8C307.014 210.348 310.547 205.062 312.957 199.245C315.367 193.427 316.608 187.192 316.608 180.895C316.608 174.598 315.367 168.362 312.957 162.545C310.547 156.727 307.014 151.442 302.56 146.99" fill="#32BCAD"/>
    <path d="M443.54 299.75C440.537 299.882 437.557 300.334 434.65 301.1V312.94C436.874 313.72 439.214 314.112 441.57 314.1C447.51 314.1 450.32 312.1 450.32 306.87C450.32 301.95 448.02 299.75 443.54 299.75ZM432.65 321.75V298.32H434.28L434.45 299.32C437.479 298.515 440.582 298.016 443.71 297.83C445.878 297.678 448.03 298.302 449.78 299.59C451.78 301.25 452.46 303.93 452.46 306.85C452.46 309.77 451.46 312.79 448.66 314.38C446.524 315.446 444.158 315.972 441.77 315.91C439.357 315.895 436.958 315.528 434.65 314.82V321.71L432.65 321.75Z" fill="#32BCAD"/>
    <path d="M467.36 299.68C461.43 299.68 458.78 301.54 458.78 306.77C458.78 311.82 461.39 314.1 467.36 314.1C473.33 314.1 475.91 312.26 475.91 307.04C475.91 301.99 473.3 299.68 467.36 299.68ZM475 314.1C473 315.52 470.38 315.93 467.36 315.93C464.34 315.93 461.63 315.49 459.7 314.1C457.53 312.57 456.64 310.1 456.64 306.91C456.64 303.72 457.53 301.24 459.7 299.68C461.63 298.29 464.28 297.85 467.36 297.85C470.44 297.85 473.03 298.29 475 299.68C477.2 301.24 478.05 303.78 478.05 306.87C478.05 309.96 477.17 312.57 475 314.1Z" fill="#32BCAD"/>
    <path d="M503.1 315.45L496.48 301.24H496.35L489.83 315.45H488L481 298.32H483.2L489.07 312.7H489.21L495.59 298.32H497.42L503.96 312.7H504.1L509.83 298.32H512L504.94 315.45H503.1Z" fill="#32BCAD"/>
    <path d="M524.75 299.64C519.25 299.64 517.39 302.09 517.05 305.64H532.45C532.28 301.74 530.28 299.64 524.75 299.64ZM524.68 315.93C521.39 315.93 519.25 315.45 517.55 314.03C515.55 312.3 514.88 309.79 514.88 306.91C514.88 304.03 515.79 301.24 518.07 299.58C520.064 298.326 522.398 297.721 524.75 297.85C527.148 297.705 529.534 298.283 531.6 299.51C534.07 301.17 534.55 304.09 534.55 307.41H517C517.07 310.94 518.22 314.06 524.87 314.06C527.843 313.982 530.804 313.647 533.72 313.06V314.86C530.756 315.469 527.745 315.821 524.72 315.91" fill="#32BCAD"/>
    <path d="M540.3 315.45V298.32H541.92L542.09 299.32C545.72 298.4 547.42 297.83 550.61 297.83H550.85V299.73H550.37C547.69 299.73 546.06 300.1 542.3 301.08V315.43L540.3 315.45Z" fill="#32BCAD"/>
    <path d="M562.47 299.64C556.98 299.64 555.11 302.09 554.77 305.64H570.17C570 301.74 568 299.64 562.47 299.64ZM562.4 315.93C559.11 315.93 556.98 315.45 555.28 314.03C553.28 312.3 552.6 309.79 552.6 306.91C552.6 304.03 553.52 301.24 555.79 299.58C557.785 298.328 560.118 297.724 562.47 297.85C564.868 297.705 567.254 298.283 569.32 299.51C571.8 301.17 572.32 304.09 572.32 307.41H554.7C554.77 310.94 555.92 314.06 562.57 314.06C565.546 313.982 568.511 313.648 571.43 313.06V314.86C568.466 315.469 565.454 315.82 562.43 315.91" fill="#32BCAD"/>
    <path d="M594.2 300.83C591.976 300.053 589.635 299.664 587.28 299.68C581.34 299.68 578.53 301.68 578.53 306.91C578.53 311.86 580.84 314.03 585.31 314.03C588.311 313.891 591.289 313.445 594.2 312.7V300.83ZM594.58 315.45L594.4 314.45C591.372 315.263 588.269 315.766 585.14 315.95C582.969 316.113 580.812 315.484 579.07 314.18C577.07 312.52 576.39 309.84 576.39 306.93C576.39 303.87 577.39 300.99 580.19 299.43C582.329 298.339 584.709 297.802 587.11 297.87C589.511 297.903 591.897 298.266 594.2 298.95V291.1H596.2V315.45H594.58Z" fill="#32BCAD"/>
    <path d="M625.55 299.75C622.547 299.881 619.567 300.334 616.66 301.1V312.91C618.879 313.711 621.221 314.114 623.58 314.1C629.52 314.1 632.33 312.1 632.33 306.87C632.33 301.95 630.03 299.75 625.55 299.75ZM630.67 314.4C628.537 315.465 626.174 315.99 623.79 315.93C621.181 315.913 618.591 315.478 616.12 314.64L616.02 315.45H614.66V291.1H616.66V299.27C619.628 298.51 622.662 298.035 625.72 297.85C627.888 297.698 630.04 298.321 631.79 299.61C633.79 301.27 634.47 303.95 634.47 306.87C634.47 309.79 633.47 312.81 630.67 314.4Z" fill="#32BCAD"/>
    <path d="M637.13 322V320.14C638.13 320.24 639.03 320.31 639.67 320.31C642.15 320.31 643.67 319.59 645.03 316.78L645.68 315.42L636.68 298.29H639L646.67 313.08H646.8L654.09 298.29H656.37L646.73 317.53C644.97 321.02 643.07 322.17 639.57 322.17C638.744 322.166 637.919 322.109 637.1 322" fill="#32BCAD"/>
    <path d="M684 305.68H677.36V311.68H684C688.58 311.68 690.31 311.17 690.31 308.68C690.31 306 687.93 305.68 683.96 305.68M682.76 296H677.34V302.1H682.8C687.31 302.1 689.11 301.56 689.11 299.02C689.11 296.3 686.83 296.02 682.76 296.02M693.08 313.9C690.63 315.46 687.68 315.52 682.29 315.52H672.14V292.22H682.05C686.7 292.22 689.55 292.28 691.92 293.71C692.707 294.179 693.348 294.86 693.768 295.675C694.189 296.489 694.373 297.406 694.3 298.32C694.3 300.76 693.3 302.39 690.63 303.48V303.61C693.63 304.29 695.55 305.82 695.55 309.11C695.625 310.049 695.433 310.991 694.996 311.826C694.559 312.661 693.894 313.356 693.08 313.83" fill="#32BCAD"/>
    <path d="M715.84 308.26C713.84 308.09 711.84 307.99 709.67 307.99C706.18 307.99 704.95 308.7 704.95 310.3C704.95 311.9 705.95 312.6 708.65 312.6C711.075 312.52 713.485 312.185 715.84 311.6V308.26ZM716.84 315.45L716.71 314.45C713.678 315.305 710.557 315.808 707.41 315.95C705.591 316.073 703.78 315.633 702.22 314.69C701.55 314.127 701.029 313.407 700.705 312.594C700.381 311.782 700.263 310.901 700.362 310.032C700.461 309.162 700.774 308.331 701.273 307.611C701.771 306.892 702.44 306.308 703.22 305.91C705.02 305.06 707.43 304.99 709.64 304.99C711.43 304.99 713.84 305.09 715.84 305.23V304.92C715.84 302.24 714.08 301.36 709.26 301.36C707.4 301.36 705.12 301.46 702.95 301.66V298.2C705.36 298 708.08 297.87 710.32 297.87C713.32 297.87 716.39 298.1 718.32 299.46C720.25 300.82 720.66 302.79 720.66 305.33V315.47L716.84 315.45Z" fill="#32BCAD"/>
    <path d="M743 315.45V306C743 302.88 741.41 301.76 738.56 301.76C736.195 301.865 733.847 302.227 731.56 302.84V315.46H726.78V298.32H730.68L730.85 299.41C733.832 298.532 736.906 298.009 740.01 297.85C742.118 297.682 744.213 298.31 745.88 299.61C747.23 300.83 747.74 302.53 747.74 304.97V315.45H743Z" fill="#32BCAD"/>
    <path d="M761.26 315.93C759.05 315.93 756.64 315.62 754.88 314.13C752.78 312.43 752.17 309.76 752.17 306.87C752.17 304.16 753.05 301.2 755.66 299.54C757.8 298.15 760.44 297.85 763.19 297.85C765.19 297.85 767.09 297.98 769.19 298.18V301.85C767.46 301.68 765.39 301.55 763.73 301.55C759.18 301.55 757.04 302.97 757.04 306.91C757.04 310.6 758.64 312.2 762.37 312.2C764.788 312.121 767.194 311.826 769.56 311.32V314.84C766.823 315.477 764.029 315.842 761.22 315.93" fill="#32BCAD"/>
    <path d="M783.73 301.44C779.18 301.44 777.18 302.87 777.18 306.77C777.18 310.67 779.18 312.33 783.73 312.33C788.28 312.33 790.21 310.94 790.21 307.04C790.21 303.14 788.28 301.44 783.73 301.44ZM791.94 314.13C789.84 315.55 787.09 315.93 783.73 315.93C780.37 315.93 777.56 315.52 775.49 314.13C773.11 312.57 772.26 309.99 772.26 306.91C772.26 303.83 773.11 301.2 775.49 299.64C777.56 298.25 780.3 297.85 783.73 297.85C787.16 297.85 789.84 298.25 791.94 299.64C794.31 301.2 795.13 303.82 795.13 306.87C795.13 309.92 794.28 312.57 791.94 314.13Z" fill="#32BCAD"/>
    <path d="M822.74 315.93C819.86 315.93 816.74 315.45 814.4 313.52C811.62 311.21 810.77 307.65 810.77 303.82C810.77 300.39 811.859 296.32 815.479 293.95C818.299 292.12 821.79 291.74 825.32 291.74C827.9 291.74 830.55 291.91 833.43 292.15V296.32C830.96 296.12 827.9 295.95 825.53 295.95C818.91 295.95 816.099 298.46 816.099 303.82C816.099 309.18 818.71 311.72 823.59 311.72C827.077 311.6 830.544 311.134 833.94 310.33V314.47C830.263 315.32 826.511 315.809 822.74 315.93Z" fill="#32BCAD"/>
    <path d="M848 300.9C844 300.9 842.5 302.33 842.19 304.9H853.729C853.589 302.12 851.96 300.9 848 300.9ZM847.28 315.9C844.47 315.9 841.92 315.56 840.02 314C838.12 312.44 837.27 309.76 837.27 306.84C837.27 304.23 838.12 301.31 840.5 299.61C842.6 298.12 845.28 297.82 848 297.82C850.44 297.82 853.319 298.09 855.419 299.55C858.169 301.48 858.419 304.47 858.419 307.99H842.159C842.259 310.61 843.649 312.3 848.469 312.3C851.53 312.233 854.582 311.939 857.599 311.42V314.78C854.195 315.427 850.744 315.801 847.28 315.9Z" fill="#32BCAD"/>
    <path d="M879.72 315.45V306C879.72 302.88 878.13 301.76 875.28 301.76C872.914 301.865 870.567 302.227 868.28 302.84V315.46H863.5V298.32H867.4L867.57 299.41C870.552 298.532 873.626 298.009 876.73 297.85C878.838 297.682 880.932 298.31 882.6 299.61C883.95 300.83 884.46 302.53 884.46 304.97V315.45H879.72Z" fill="#32BCAD"/>
    <path d="M898.09 315.93C895.78 315.93 893.68 315.28 892.53 313.48C891.587 311.924 891.147 310.115 891.27 308.3V301.88H887.81V298.32H891.27L891.78 293.13H896V298.32H902.75V301.88H896V307.38C895.936 308.487 896.096 309.596 896.47 310.64C896.98 311.79 898.1 312.23 899.6 312.23C900.747 312.209 901.891 312.095 903.02 311.89V315.32C901.391 315.672 899.735 315.877 898.07 315.93" fill="#32BCAD"/>
    <path d="M907.44 315.45V298.32H911.34L911.51 299.41C914.246 298.481 917.103 297.955 919.99 297.85C920.194 297.838 920.397 297.838 920.6 297.85V302C920.06 302 919.41 302 918.94 302C916.672 302.009 914.414 302.305 912.22 302.88V315.53L907.44 315.45Z" fill="#32BCAD"/>
    <path d="M938 308.26C936 308.09 934 307.99 931.82 307.99C928.33 307.99 927.11 308.7 927.11 310.3C927.11 311.9 928.11 312.6 930.8 312.6C933.228 312.52 935.641 312.185 938 311.6V308.26ZM939 315.45L938.86 314.45C935.827 315.305 932.707 315.808 929.56 315.95C927.741 316.073 925.929 315.633 924.37 314.69C923.74 314.207 923.237 313.578 922.906 312.856C922.575 312.134 922.425 311.343 922.47 310.55C922.423 309.575 922.675 308.609 923.191 307.78C923.708 306.951 924.464 306.299 925.36 305.91C927.16 305.06 929.56 304.99 931.77 304.99C933.57 304.99 935.98 305.09 937.98 305.23V304.92C937.98 302.24 936.21 301.36 931.4 301.36C929.53 301.36 927.26 301.46 925.09 301.66V298.2C927.5 298 930.21 297.87 932.45 297.87C935.45 297.87 938.52 298.1 940.45 299.46C942.38 300.82 942.79 302.79 942.79 305.33V315.47L939 315.45Z" fill="#32BCAD"/>
    <path d="M948.92 291.1H953.71V315.45H948.92V291.1Z" fill="#32BCAD"/>
</svg>
