<svg width="953" height="339" viewBox="0 0 953 339" fill="none" xmlns="http://www.w3.org/2000/svg">
    <g clip-path="url(#clip0_224_8)">
        <path d="M393.22 316.26V122C393.22 104.838 400.037 88.3786 412.173 76.2432C424.308 64.1077 440.768 57.29 457.93 57.29L515.28 57.37C532.397 57.4045 548.802 64.2292 560.892 76.3462C572.983 88.4633 579.772 104.883 579.77 122V163.34C579.77 180.503 572.952 196.963 560.817 209.1C548.682 221.238 532.223 228.057 515.06 228.06H434" stroke="#313131" stroke-width="6.26" stroke-linecap="round" stroke-linejoin="round"/>
        <path d="M595.8 57.2803H620.68C627.724 57.2803 634.48 60.0786 639.461 65.0595C644.442 70.0405 647.24 76.7961 647.24 83.8403V228.94" stroke="#313131" stroke-width="6.26" stroke-linecap="round" stroke-linejoin="round"/>
        <path d="M641.9 34.8L630.62 23.51C629.954 22.845 629.426 22.0554 629.066 21.1864C628.706 20.3173 628.521 19.3857 628.521 18.445C628.521 17.5042 628.706 16.5727 629.066 15.7036C629.426 14.8345 629.954 14.0449 630.62 13.38L641.9 2.09997C643.246 0.754699 645.071 -0.000976563 646.975 -0.000976562C648.878 -0.000976563 650.703 0.754699 652.05 2.09997L663.32 13.38C663.985 14.0449 664.513 14.8345 664.873 15.7036C665.234 16.5727 665.419 17.5042 665.419 18.445C665.419 19.3857 665.234 20.3173 664.873 21.1864C664.513 22.0554 663.985 22.845 663.32 23.51L652 34.8C651.334 35.4658 650.544 35.9939 649.674 36.3543C648.804 36.7146 647.871 36.9001 646.93 36.9001C645.988 36.9001 645.056 36.7146 644.186 36.3543C643.316 35.9939 642.526 35.4658 641.86 34.8" fill="#32BCAD"/>
        <path d="M695 57.1504H719.67C732.36 57.1451 744.533 62.181 753.51 71.1504L811.22 128.86C812.997 130.639 815.107 132.05 817.429 133.013C819.751 133.976 822.241 134.471 824.755 134.471C827.269 134.471 829.759 133.976 832.081 133.013C834.403 132.05 836.513 130.639 838.29 128.86L895.79 71.3704C900.233 66.9286 905.507 63.406 911.312 61.0038C917.117 58.6016 923.338 57.3669 929.62 57.3704H949.68" stroke="#313131" stroke-width="6.26" stroke-linecap="round" stroke-linejoin="round"/>
        <path d="M695 227.67H719.67C732.36 227.674 744.532 222.639 753.51 213.67L811.22 155.96C814.811 152.373 819.679 150.357 824.755 150.357C829.831 150.357 834.699 152.373 838.29 155.96L895.79 213.46C904.764 222.428 916.933 227.464 929.62 227.46H949.68" stroke="#313131" stroke-width="6.26" stroke-linecap="round" stroke-linejoin="round"/>
        <path d="M246.13 264.53C240.043 264.552 234.012 263.368 228.386 261.046C222.76 258.723 217.649 255.309 213.35 251L166 203.62C164.325 202.019 162.097 201.125 159.78 201.125C157.463 201.125 155.235 202.019 153.56 203.62L106.05 251.13C101.753 255.445 96.6444 258.866 91.018 261.196C85.3916 263.525 79.3594 264.716 73.27 264.7H64L124 324.7C132.999 333.68 145.192 338.723 157.905 338.723C170.618 338.723 182.811 333.68 191.81 324.7L251.93 264.57L246.13 264.53Z" fill="#32BCAD"/>
        <path d="M73.28 97.0904C79.3695 97.0741 85.4018 98.265 91.0283 100.594C96.6548 102.923 101.764 106.345 106.06 110.66L153.57 158.18C155.221 159.827 157.458 160.751 159.79 160.751C162.122 160.751 164.359 159.827 166.01 158.18L213.35 110.84C217.643 106.519 222.751 103.094 228.378 100.763C234.005 98.4314 240.039 97.241 246.13 97.2604H251.83L191.71 37.1404C187.258 32.6868 181.972 29.154 176.155 26.7437C170.337 24.3334 164.102 23.0928 157.805 23.0928C151.508 23.0928 145.273 24.3334 139.455 26.7437C133.638 29.154 128.352 32.6868 123.9 37.1404L64 97.0904H73.28Z" fill="#32BCAD"/>
        <path d="M301.56 147L265.23 110.67C264.411 111.005 263.535 111.181 262.65 111.19H246.13C237.534 111.211 229.293 114.625 223.2 120.69L175.86 168C171.597 172.255 165.819 174.646 159.795 174.646C153.771 174.646 147.994 172.255 143.73 168L96.2103 120.51C90.119 114.442 81.8783 111.024 73.2803 111H53.0003C52.1645 110.981 51.3386 110.815 50.5603 110.51L14.0003 147C5.02066 155.999 -0.0224609 168.192 -0.0224609 180.905C-0.0224609 193.617 5.02066 205.811 14.0003 214.81L50.4803 251.29C51.2569 250.979 52.0839 250.813 52.9203 250.8H73.2803C81.8781 250.775 90.1184 247.357 96.2103 241.29L143.72 193.78C152.31 185.2 167.28 185.2 175.86 193.78L223.2 241.11C229.293 247.174 237.534 250.588 246.13 250.61H262.65C263.536 250.616 264.412 250.792 265.23 251.13L301.56 214.8C306.014 210.348 309.547 205.062 311.957 199.245C314.367 193.427 315.608 187.192 315.608 180.895C315.608 174.598 314.367 168.362 311.957 162.545C309.547 156.727 306.014 151.442 301.56 146.99" fill="#32BCAD"/>
        <path d="M442.54 299.75C439.537 299.882 436.557 300.334 433.65 301.1V312.94C435.874 313.72 438.214 314.112 440.57 314.1C446.51 314.1 449.32 312.1 449.32 306.87C449.32 301.95 447.02 299.75 442.54 299.75ZM431.65 321.75V298.32H433.28L433.45 299.32C436.479 298.515 439.582 298.016 442.71 297.83C444.878 297.678 447.03 298.302 448.78 299.59C450.78 301.25 451.46 303.93 451.46 306.85C451.46 309.77 450.46 312.79 447.66 314.38C445.524 315.446 443.158 315.972 440.77 315.91C438.357 315.895 435.958 315.528 433.65 314.82V321.71L431.65 321.75Z" fill="#313131"/>
        <path d="M466.36 299.68C460.43 299.68 457.78 301.54 457.78 306.77C457.78 311.82 460.39 314.1 466.36 314.1C472.33 314.1 474.91 312.26 474.91 307.04C474.91 301.99 472.3 299.68 466.36 299.68ZM474 314.1C472 315.52 469.38 315.93 466.36 315.93C463.34 315.93 460.63 315.49 458.7 314.1C456.53 312.57 455.64 310.1 455.64 306.91C455.64 303.72 456.53 301.24 458.7 299.68C460.63 298.29 463.28 297.85 466.36 297.85C469.44 297.85 472.03 298.29 474 299.68C476.2 301.24 477.05 303.78 477.05 306.87C477.05 309.96 476.17 312.57 474 314.1Z" fill="#313131"/>
        <path d="M502.1 315.45L495.48 301.24H495.35L488.83 315.45H487L480 298.32H482.2L488.07 312.7H488.21L494.59 298.32H496.42L502.96 312.7H503.1L508.83 298.32H511L503.94 315.45H502.1Z" fill="#313131"/>
        <path d="M523.75 299.64C518.25 299.64 516.39 302.09 516.05 305.64H531.45C531.28 301.74 529.28 299.64 523.75 299.64ZM523.68 315.93C520.39 315.93 518.25 315.45 516.55 314.03C514.55 312.3 513.88 309.79 513.88 306.91C513.88 304.03 514.79 301.24 517.07 299.58C519.064 298.326 521.398 297.721 523.75 297.85C526.148 297.705 528.534 298.283 530.6 299.51C533.07 301.17 533.55 304.09 533.55 307.41H516C516.07 310.94 517.22 314.06 523.87 314.06C526.843 313.982 529.804 313.647 532.72 313.06V314.86C529.756 315.469 526.745 315.821 523.72 315.91" fill="#313131"/>
        <path d="M539.3 315.45V298.32H540.92L541.09 299.32C544.72 298.4 546.42 297.83 549.61 297.83H549.85V299.73H549.37C546.69 299.73 545.06 300.1 541.3 301.08V315.43L539.3 315.45Z" fill="#313131"/>
        <path d="M561.47 299.64C555.98 299.64 554.11 302.09 553.77 305.64H569.17C569 301.74 567 299.64 561.47 299.64ZM561.4 315.93C558.11 315.93 555.98 315.45 554.28 314.03C552.28 312.3 551.6 309.79 551.6 306.91C551.6 304.03 552.52 301.24 554.79 299.58C556.785 298.328 559.118 297.724 561.47 297.85C563.868 297.705 566.254 298.283 568.32 299.51C570.8 301.17 571.32 304.09 571.32 307.41H553.7C553.77 310.94 554.92 314.06 561.57 314.06C564.546 313.982 567.511 313.648 570.43 313.06V314.86C567.466 315.469 564.454 315.82 561.43 315.91" fill="#313131"/>
        <path d="M593.2 300.83C590.976 300.053 588.635 299.664 586.28 299.68C580.34 299.68 577.53 301.68 577.53 306.91C577.53 311.86 579.84 314.03 584.31 314.03C587.311 313.891 590.289 313.445 593.2 312.7V300.83ZM593.58 315.45L593.4 314.45C590.372 315.263 587.269 315.766 584.14 315.95C581.969 316.113 579.812 315.484 578.07 314.18C576.07 312.52 575.39 309.84 575.39 306.93C575.39 303.87 576.39 300.99 579.19 299.43C581.329 298.339 583.709 297.802 586.11 297.87C588.511 297.903 590.897 298.266 593.2 298.95V291.1H595.2V315.45H593.58Z" fill="#313131"/>
        <path d="M624.55 299.75C621.547 299.881 618.567 300.334 615.66 301.1V312.91C617.879 313.711 620.221 314.114 622.58 314.1C628.52 314.1 631.33 312.1 631.33 306.87C631.33 301.95 629.03 299.75 624.55 299.75ZM629.67 314.4C627.537 315.465 625.174 315.99 622.79 315.93C620.181 315.913 617.591 315.478 615.12 314.64L615.02 315.45H613.66V291.1H615.66V299.27C618.628 298.51 621.662 298.035 624.72 297.85C626.888 297.698 629.04 298.321 630.79 299.61C632.79 301.27 633.47 303.95 633.47 306.87C633.47 309.79 632.47 312.81 629.67 314.4Z" fill="#313131"/>
        <path d="M636.13 322V320.14C637.13 320.24 638.03 320.31 638.67 320.31C641.15 320.31 642.67 319.59 644.03 316.78L644.68 315.42L635.68 298.29H638L645.67 313.08H645.8L653.09 298.29H655.37L645.73 317.53C643.97 321.02 642.07 322.17 638.57 322.17C637.744 322.166 636.919 322.109 636.1 322" fill="#313131"/>
        <path d="M683 305.68H676.36V311.68H683C687.58 311.68 689.31 311.17 689.31 308.68C689.31 306 686.93 305.68 682.96 305.68M681.76 296H676.34V302.1H681.8C686.31 302.1 688.11 301.56 688.11 299.02C688.11 296.3 685.83 296.02 681.76 296.02M692.08 313.9C689.63 315.46 686.68 315.52 681.29 315.52H671.14V292.22H681.05C685.7 292.22 688.55 292.28 690.92 293.71C691.707 294.179 692.348 294.86 692.768 295.675C693.189 296.489 693.373 297.406 693.3 298.32C693.3 300.76 692.3 302.39 689.63 303.48V303.61C692.63 304.29 694.55 305.82 694.55 309.11C694.625 310.049 694.433 310.991 693.996 311.826C693.559 312.661 692.894 313.356 692.08 313.83" fill="#313131"/>
        <path d="M714.84 308.26C712.84 308.09 710.84 307.99 708.67 307.99C705.18 307.99 703.95 308.7 703.95 310.3C703.95 311.9 704.95 312.6 707.65 312.6C710.075 312.52 712.485 312.185 714.84 311.6V308.26ZM715.84 315.45L715.71 314.45C712.678 315.305 709.557 315.808 706.41 315.95C704.591 316.073 702.78 315.633 701.22 314.69C700.55 314.127 700.029 313.407 699.705 312.594C699.381 311.782 699.263 310.901 699.362 310.032C699.461 309.162 699.774 308.331 700.273 307.611C700.771 306.892 701.44 306.308 702.22 305.91C704.02 305.06 706.43 304.99 708.64 304.99C710.43 304.99 712.84 305.09 714.84 305.23V304.92C714.84 302.24 713.08 301.36 708.26 301.36C706.4 301.36 704.12 301.46 701.95 301.66V298.2C704.36 298 707.08 297.87 709.32 297.87C712.32 297.87 715.39 298.1 717.32 299.46C719.25 300.82 719.66 302.79 719.66 305.33V315.47L715.84 315.45Z" fill="#313131"/>
        <path d="M742 315.45V306C742 302.88 740.41 301.76 737.56 301.76C735.195 301.865 732.847 302.227 730.56 302.84V315.46H725.78V298.32H729.68L729.85 299.41C732.832 298.532 735.906 298.009 739.01 297.85C741.118 297.682 743.213 298.31 744.88 299.61C746.23 300.83 746.74 302.53 746.74 304.97V315.45H742Z" fill="#313131"/>
        <path d="M760.26 315.93C758.05 315.93 755.64 315.62 753.88 314.13C751.78 312.43 751.17 309.76 751.17 306.87C751.17 304.16 752.05 301.2 754.66 299.54C756.8 298.15 759.44 297.85 762.19 297.85C764.19 297.85 766.09 297.98 768.19 298.18V301.85C766.46 301.68 764.39 301.55 762.73 301.55C758.18 301.55 756.04 302.97 756.04 306.91C756.04 310.6 757.64 312.2 761.37 312.2C763.788 312.121 766.194 311.826 768.56 311.32V314.84C765.823 315.477 763.029 315.842 760.22 315.93" fill="#313131"/>
        <path d="M782.73 301.44C778.18 301.44 776.18 302.87 776.18 306.77C776.18 310.67 778.18 312.33 782.73 312.33C787.28 312.33 789.21 310.94 789.21 307.04C789.21 303.14 787.28 301.44 782.73 301.44ZM790.94 314.13C788.84 315.55 786.09 315.93 782.73 315.93C779.37 315.93 776.56 315.52 774.49 314.13C772.11 312.57 771.26 309.99 771.26 306.91C771.26 303.83 772.11 301.2 774.49 299.64C776.56 298.25 779.3 297.85 782.73 297.85C786.16 297.85 788.84 298.25 790.94 299.64C793.31 301.2 794.13 303.82 794.13 306.87C794.13 309.92 793.28 312.57 790.94 314.13Z" fill="#313131"/>
        <path d="M821.74 315.93C818.86 315.93 815.74 315.45 813.4 313.52C810.62 311.21 809.77 307.65 809.77 303.82C809.77 300.39 810.859 296.32 814.479 293.95C817.299 292.12 820.79 291.74 824.32 291.74C826.9 291.74 829.55 291.91 832.43 292.15V296.32C829.96 296.12 826.9 295.95 824.53 295.95C817.91 295.95 815.099 298.46 815.099 303.82C815.099 309.18 817.71 311.72 822.59 311.72C826.077 311.6 829.544 311.134 832.94 310.33V314.47C829.263 315.32 825.511 315.809 821.74 315.93Z" fill="#313131"/>
        <path d="M847 300.9C843 300.9 841.5 302.33 841.19 304.9H852.729C852.589 302.12 850.96 300.9 847 300.9ZM846.28 315.9C843.47 315.9 840.92 315.56 839.02 314C837.12 312.44 836.27 309.76 836.27 306.84C836.27 304.23 837.12 301.31 839.5 299.61C841.6 298.12 844.28 297.82 847 297.82C849.44 297.82 852.319 298.09 854.419 299.55C857.169 301.48 857.419 304.47 857.419 307.99H841.159C841.259 310.61 842.649 312.3 847.469 312.3C850.53 312.233 853.582 311.939 856.599 311.42V314.78C853.195 315.427 849.744 315.801 846.28 315.9Z" fill="#313131"/>
        <path d="M878.72 315.45V306C878.72 302.88 877.13 301.76 874.28 301.76C871.914 301.865 869.567 302.227 867.28 302.84V315.46H862.5V298.32H866.4L866.57 299.41C869.552 298.532 872.626 298.009 875.73 297.85C877.838 297.682 879.932 298.31 881.6 299.61C882.95 300.83 883.46 302.53 883.46 304.97V315.45H878.72Z" fill="#313131"/>
        <path d="M897.09 315.93C894.78 315.93 892.68 315.28 891.53 313.48C890.587 311.924 890.147 310.115 890.27 308.3V301.88H886.81V298.32H890.27L890.78 293.13H895V298.32H901.75V301.88H895V307.38C894.936 308.487 895.096 309.596 895.47 310.64C895.98 311.79 897.1 312.23 898.6 312.23C899.747 312.209 900.891 312.095 902.02 311.89V315.32C900.391 315.672 898.735 315.877 897.07 315.93" fill="#313131"/>
        <path d="M906.44 315.45V298.32H910.34L910.51 299.41C913.246 298.481 916.103 297.955 918.99 297.85C919.194 297.838 919.397 297.838 919.6 297.85V302C919.06 302 918.41 302 917.94 302C915.672 302.009 913.414 302.305 911.22 302.88V315.53L906.44 315.45Z" fill="#313131"/>
        <path d="M937 308.26C935 308.09 933 307.99 930.82 307.99C927.33 307.99 926.11 308.7 926.11 310.3C926.11 311.9 927.11 312.6 929.8 312.6C932.228 312.52 934.641 312.185 937 311.6V308.26ZM938 315.45L937.86 314.45C934.827 315.305 931.707 315.808 928.56 315.95C926.741 316.073 924.929 315.633 923.37 314.69C922.74 314.207 922.237 313.578 921.906 312.856C921.575 312.134 921.425 311.343 921.47 310.55C921.423 309.575 921.675 308.609 922.191 307.78C922.708 306.951 923.464 306.299 924.36 305.91C926.16 305.06 928.56 304.99 930.77 304.99C932.57 304.99 934.98 305.09 936.98 305.23V304.92C936.98 302.24 935.21 301.36 930.4 301.36C928.53 301.36 926.26 301.46 924.09 301.66V298.2C926.5 298 929.21 297.87 931.45 297.87C934.45 297.87 937.52 298.1 939.45 299.46C941.38 300.82 941.79 302.79 941.79 305.33V315.47L938 315.45Z" fill="#313131"/>
        <path d="M947.92 291.1H952.71V315.45H947.92V291.1Z" fill="#313131"/>
    </g>
    <defs>
        <clipPath id="clip0_224_8">
            <rect width="952.77" height="338.7" fill="white"/>
        </clipPath>
    </defs>
</svg>
