<svg width="500" height="373" viewBox="0 0 500 373" fill="none" xmlns="http://www.w3.org/2000/svg">
    <path d="M500 327.4H0V327.65H500V327.4Z" fill="#EBEBEB"/>
    <path d="M449.9 343.49H416.78V343.74H449.9V343.49Z" fill="#EBEBEB"/>
    <path d="M331.22 346.21H322.53V346.46H331.22V346.21Z" fill="#EBEBEB"/>
    <path d="M415.78 334.21H396.59V334.46H415.78V334.21Z" fill="#EBEBEB"/>
    <path d="M95.65 335.89H52.46V336.14H95.65V335.89Z" fill="#EBEBEB"/>
    <path d="M110.89 335.89H104.56V336.14H110.89V335.89Z" fill="#EBEBEB"/>
    <path d="M225.15 340.11H131.47V340.36H225.15V340.11Z" fill="#EBEBEB"/>
    <path d="M237 282.8H43.91C42.3973 282.797 40.9475 282.195 39.8788 281.124C38.8102 280.054 38.21 278.603 38.21 277.09V5.66C38.2231 4.15603 38.8292 2.71798 39.8964 1.65822C40.9637 0.598458 42.4059 0.00257639 43.91 0H237C238.514 0 239.967 0.601588 241.038 1.67242C242.108 2.74325 242.71 4.19561 242.71 5.71V277.09C242.71 278.604 242.108 280.057 241.038 281.128C239.967 282.198 238.514 282.8 237 282.8ZM43.91 0.200001C42.4636 0.20265 41.0774 0.779065 40.0556 1.80273C39.0338 2.82639 38.46 4.21365 38.46 5.66V277.09C38.46 278.536 39.0338 279.924 40.0556 280.947C41.0774 281.971 42.4636 282.547 43.91 282.55H237C238.447 282.547 239.834 281.971 240.858 280.948C241.881 279.924 242.457 278.537 242.46 277.09V5.66C242.457 4.21273 241.881 2.82549 240.858 1.80212C239.834 0.77874 238.447 0.202644 237 0.200001H43.91Z" fill="#EBEBEB"/>
    <path d="M453.31 282.8H260.21C258.696 282.797 257.246 282.195 256.175 281.125C255.105 280.054 254.503 278.604 254.5 277.09V5.66C254.516 4.15511 255.124 2.71708 256.193 1.65759C257.262 0.598109 258.705 0.00254829 260.21 0H453.31C454.812 0.0052045 456.252 0.602249 457.317 1.66173C458.382 2.72121 458.987 4.15775 459 5.66V277.09C459 278.601 458.401 280.05 457.335 281.121C456.268 282.191 454.821 282.795 453.31 282.8ZM260.21 0.200001C258.763 0.202644 257.375 0.77874 256.352 1.80212C255.329 2.82549 254.753 4.21273 254.75 5.66V277.09C254.753 278.537 255.329 279.924 256.352 280.948C257.375 281.971 258.763 282.547 260.21 282.55H453.31C454.757 282.547 456.145 281.971 457.168 280.948C458.191 279.924 458.767 278.537 458.77 277.09V5.66C458.767 4.21273 458.191 2.82549 457.168 1.80212C456.145 0.77874 454.757 0.202644 453.31 0.200001H260.21Z" fill="#EBEBEB"/>
    <path d="M66.79 327.4H202.49L202.49 40.6099H66.79L66.79 327.4Z" fill="#E6E6E6"/>
    <path d="M63.78 327.4H199.48L199.48 40.6099H63.78L63.78 327.4Z" fill="#F5F5F5"/>
    <path d="M194.07 321.32L194.07 46.6899L69.2001 46.6899L69.2001 321.32H194.07Z" fill="#FAFAFA"/>
    <path d="M165.31 321.32L133.67 46.6899H97.95L129.59 321.32H165.31Z" fill="white"/>
    <path d="M71.48 321.32L71.48 46.6899H69.2L69.2 321.32H71.48Z" fill="#E6E6E6"/>
    <path d="M66.02 78.6399L197.24 78.6399V70.4799L66.02 70.4799V78.6399Z" fill="#F5F5F5"/>
    <path d="M274.23 327.4V161H219.44V327.4H274.23Z" fill="#F0F0F0"/>
    <path d="M271.22 214.63V165.86H222.45V214.63H271.22Z" fill="#F5F5F5"/>
    <path d="M271.22 267.78V219.01H222.45V267.78H271.22Z" fill="#F5F5F5"/>
    <path d="M271.22 320.93V272.16H222.45V320.93H271.22Z" fill="#F5F5F5"/>
    <path d="M257.63 165.22H236C235.993 165.885 236.119 166.545 236.371 167.16C236.622 167.776 236.994 168.335 237.464 168.806C237.935 169.276 238.494 169.648 239.11 169.899C239.725 170.151 240.385 170.277 241.05 170.27H252.53C253.197 170.275 253.858 170.149 254.476 169.897C255.094 169.646 255.656 169.275 256.13 168.806C256.604 168.336 256.981 167.778 257.238 167.163C257.496 166.547 257.629 165.887 257.63 165.22Z" fill="#E6E6E6"/>
    <path d="M257.63 218.37H236C236 219.71 236.532 220.996 237.479 221.945C238.425 222.893 239.71 223.427 241.05 223.43H252.53C253.197 223.434 253.859 223.306 254.477 223.054C255.095 222.801 255.657 222.429 256.131 221.959C256.605 221.489 256.981 220.93 257.238 220.314C257.496 219.698 257.629 219.038 257.63 218.37Z" fill="#E6E6E6"/>
    <path d="M257.63 271.52H236C236 272.86 236.532 274.146 237.479 275.094C238.425 276.043 239.71 276.577 241.05 276.58H252.53C253.197 276.584 253.859 276.456 254.477 276.204C255.095 275.951 255.657 275.579 256.131 275.109C256.605 274.639 256.981 274.08 257.238 273.464C257.496 272.848 257.629 272.188 257.63 271.52Z" fill="#E6E6E6"/>
    <path d="M301.59 327.4V161H274.22V327.4H301.59Z" fill="#F5F5F5"/>
    <path d="M420.49 323.31H435.68V198.03H420.49V323.31Z" fill="#F0F0F0"/>
    <path d="M287.72 327.4H433.58V323.31H287.72V327.4Z" fill="#F0F0F0"/>
    <path d="M420.49 198.03H285.61V323.31H420.49V198.03Z" fill="#FAFAFA"/>
    <path d="M312 271.24H394.06C397.935 271.24 401.651 269.701 404.391 266.961C407.131 264.221 408.67 260.505 408.67 256.63C408.67 252.755 407.131 249.039 404.391 246.299C401.651 243.559 397.935 242.02 394.06 242.02H312C308.125 242.02 304.409 243.559 301.669 246.299C298.929 249.039 297.39 252.755 297.39 256.63C297.39 260.505 298.929 264.221 301.669 266.961C304.409 269.701 308.125 271.24 312 271.24ZM394.08 243C395.87 243 397.642 243.353 399.296 244.038C400.95 244.723 402.452 245.726 403.718 246.992C404.984 248.258 405.988 249.76 406.673 251.414C407.358 253.068 407.71 254.84 407.71 256.63C407.71 258.42 407.358 260.192 406.673 261.846C405.988 263.5 404.984 265.002 403.718 266.268C402.452 267.534 400.95 268.538 399.296 269.223C397.642 269.907 395.87 270.26 394.08 270.26H312C308.385 270.26 304.918 268.824 302.362 266.268C299.806 263.712 298.37 260.245 298.37 256.63C298.37 253.015 299.806 249.548 302.362 246.992C304.918 244.436 308.385 243 312 243H394.08Z" fill="#F0F0F0"/>
    <path d="M312 307.59H394.06C397.935 307.59 401.651 306.051 404.391 303.311C407.131 300.571 408.67 296.855 408.67 292.98C408.67 289.105 407.131 285.389 404.391 282.649C401.651 279.909 397.935 278.37 394.06 278.37H312C308.125 278.37 304.409 279.909 301.669 282.649C298.929 285.389 297.39 289.105 297.39 292.98C297.39 296.855 298.929 300.571 301.669 303.311C304.409 306.051 308.125 307.59 312 307.59ZM394.06 279.35C395.88 279.301 397.692 279.617 399.388 280.279C401.085 280.942 402.631 281.938 403.936 283.208C405.241 284.478 406.278 285.996 406.986 287.674C407.694 289.352 408.059 291.154 408.059 292.975C408.059 294.796 407.694 296.599 406.986 298.276C406.278 299.954 405.241 301.473 403.936 302.743C402.631 304.013 401.085 305.008 399.388 305.671C397.692 306.334 395.88 306.649 394.06 306.6H312C310.18 306.649 308.368 306.334 306.672 305.671C304.976 305.008 303.429 304.013 302.125 302.743C300.82 301.473 299.782 299.954 299.074 298.276C298.366 296.599 298.001 294.796 298.001 292.975C298.001 291.154 298.366 289.352 299.074 287.674C299.782 285.996 300.82 284.478 302.125 283.208C303.429 281.938 304.976 280.942 306.672 280.279C308.368 279.617 310.18 279.301 312 279.35H394.06Z" fill="#F0F0F0"/>
    <path d="M340.67 253.48H365.43C366.238 253.477 367.012 253.155 367.584 252.584C368.155 252.012 368.477 251.238 368.48 250.43C368.477 249.622 368.155 248.848 367.584 248.276C367.012 247.705 366.238 247.383 365.43 247.38H340.67C339.862 247.383 339.088 247.705 338.516 248.276C337.945 248.848 337.623 249.622 337.62 250.43C337.623 251.238 337.945 252.012 338.516 252.584C339.088 253.155 339.862 253.477 340.67 253.48Z" fill="#EBEBEB"/>
    <path d="M312 234.89H394.06C397.935 234.89 401.651 233.351 404.391 230.611C407.131 227.871 408.67 224.155 408.67 220.28C408.67 216.405 407.131 212.689 404.391 209.949C401.651 207.209 397.935 205.67 394.06 205.67H312C308.125 205.67 304.409 207.209 301.669 209.949C298.929 212.689 297.39 216.405 297.39 220.28C297.39 224.155 298.929 227.871 301.669 230.611C304.409 233.351 308.125 234.89 312 234.89ZM394.06 206.65C397.675 206.65 401.142 208.086 403.698 210.642C406.254 213.198 407.69 216.665 407.69 220.28C407.69 223.895 406.254 227.362 403.698 229.918C401.142 232.474 397.675 233.91 394.06 233.91H312C308.385 233.91 304.918 232.474 302.362 229.918C299.806 227.362 298.37 223.895 298.37 220.28C298.37 216.665 299.806 213.198 302.362 210.642C304.918 208.086 308.385 206.65 312 206.65H394.06Z" fill="#F0F0F0"/>
    <path d="M340.67 217.13H365.43C366.238 217.127 367.012 216.805 367.584 216.234C368.155 215.662 368.477 214.888 368.48 214.08C368.467 213.28 368.14 212.517 367.569 211.956C366.999 211.394 366.23 211.08 365.43 211.08H340.67C339.87 211.08 339.102 211.394 338.531 211.956C337.96 212.517 337.633 213.28 337.62 214.08C337.623 214.888 337.945 215.662 338.516 216.234C339.088 216.805 339.862 217.127 340.67 217.13Z" fill="#EBEBEB"/>
    <path d="M340.67 289.82H365.43C366.23 289.82 366.999 289.506 367.569 288.944C368.14 288.383 368.467 287.62 368.48 286.82C368.464 286.021 368.137 285.259 367.566 284.698C366.996 284.138 366.23 283.823 365.43 283.82H340.67C339.871 283.823 339.104 284.138 338.534 284.698C337.964 285.259 337.636 286.021 337.62 286.82C337.633 287.62 337.96 288.383 338.531 288.944C339.102 289.506 339.87 289.82 340.67 289.82Z" fill="#EBEBEB"/>
    <path d="M282.83 198.03L420.48 198.03V191.66L282.83 191.66V198.03Z" fill="#F0F0F0"/>
    <path d="M438.66 191.67H420.49V198.04H438.66V191.67Z" fill="#E6E6E6"/>
    <path d="M322 91.39C325.07 92.93 333.39 91.27 330.62 96.9C329.025 99.8492 327.117 102.618 324.93 105.16C321.83 108.99 322.42 113.16 326.08 114.64C326.865 114.909 327.558 115.394 328.08 116.04C329.77 118.46 325.79 121.7 323.83 124.12C321.87 126.54 321.09 128.92 322.53 130.72C324.13 132.72 327.45 131.97 330.09 132.57C336.43 134.02 329.91 142.77 330.58 147.26C331.04 150.34 333.58 151.2 336.93 151.63C339.7 151.99 343.39 152.24 343.54 155.07C343.68 157.53 340.48 160.31 339.64 162.89C339.241 164 339.09 165.184 339.197 166.359C339.305 167.533 339.667 168.67 340.26 169.69C340.823 170.55 341.558 171.283 342.418 171.844C343.279 172.405 344.247 172.782 345.26 172.95C348.4 173.61 353.15 172.95 353.38 176.47C353.48 178.05 352.38 179.47 353.14 180.91C353.561 181.517 354.109 182.026 354.746 182.401C355.384 182.776 356.094 183.007 356.83 183.08C359.837 183.539 362.901 183.485 365.89 182.92C369.58 182.24 375.03 178.99 373.03 175.86C372.685 175.411 372.255 175.035 371.764 174.754C371.273 174.472 370.732 174.291 370.17 174.22C369.29 174.04 366.71 174.32 366.38 173.72C366.05 173.12 366.94 170.81 366.97 169.98C367.061 167.675 366.698 165.375 365.9 163.21C364.881 160.38 363.257 157.807 361.14 155.67C360.26 154.78 358.87 154.13 358.69 152.84C358.51 151.55 359.32 150.13 360.22 148.84C361.63 146.84 363.82 144.96 364.61 142.84C365.85 139.5 362.84 138.44 360.05 137.68C357.53 136.99 354.21 136.11 355.05 133.05C355.67 130.84 358.46 129.05 359.29 126.87C360.42 123.98 357.68 123.87 355.73 122.87C353.18 121.53 352.54 119.13 353.46 116.1C354.99 111.1 364.16 104.03 359.46 100.78C358.27 99.95 357.16 99.68 356.46 98.43C355.76 97.18 355.58 95.43 354.58 94.25C353 92.34 349.73 92.02 348.03 90.25C344.52 86.61 352.09 80.16 345.18 78.62C343.721 78.4322 342.339 77.8554 341.18 76.95C340.55 76.36 340.03 73.51 339.32 73.31C336.15 72.43 330.44 78.58 328.64 80.47C326.45 82.75 318.36 89.55 322 91.39Z" fill="#E0E0E0"/>
    <path d="M376.39 176.21C374.51 172.72 366.28 169.21 371.74 165.21C374.685 163.206 377.853 161.551 381.18 160.28C385.96 158.28 387.66 153.68 385.24 149.87C384.684 149.069 384.34 148.14 384.24 147.17C384.04 143.65 389.29 142.81 392.31 141.54C395.33 140.27 397.31 138.33 396.98 135.59C396.64 132.59 393.32 131.25 391.31 129C386.49 123.58 396.93 118.67 398.74 113.65C399.98 110.21 398.24 107.78 395.48 105.23C393.23 103.14 390.1 100.6 391.48 97.5999C392.68 94.9999 396.99 94.1399 399.11 92.0199C400.088 91.0614 400.866 89.918 401.398 88.6562C401.93 87.3944 402.206 86.0394 402.21 84.6699C402.162 82.2705 401.217 79.9762 399.56 78.2399C397.14 75.6099 392.56 73.3599 394.27 69.5899C395.03 67.9099 396.76 67.1599 396.86 65.1899C396.83 64.3369 396.629 63.4985 396.27 62.7241C395.911 61.9496 395.401 61.2546 394.77 60.6799C392.428 58.3848 389.691 56.5317 386.69 55.2099C383.07 53.6099 376.52 53.5599 376.61 58.0099C376.723 59.3201 377.305 60.5454 378.25 61.4599C378.94 62.1999 381.36 63.5099 381.33 64.3299C381.3 65.1499 379.33 66.9599 378.8 67.7899C377.475 70.1485 376.571 72.7205 376.13 75.3899C375.511 78.9287 375.569 82.5527 376.3 86.0699C376.59 87.5199 377.48 89.0699 376.94 90.4899C376.4 91.9099 374.94 92.8699 373.47 93.5999C371.16 94.7599 368.21 95.3499 366.38 97.0299C363.49 99.6799 365.58 102.64 367.64 105.15C369.5 107.42 371.95 110.38 369.56 112.99C367.83 114.87 364.4 114.99 362.56 116.68C360.02 118.95 362.37 120.76 363.56 123.04C365.08 126.04 364.37 128.84 361.93 131.37C357.93 135.55 346.03 137.09 348.44 143.37C349.05 144.96 349.87 145.93 349.84 147.65C349.81 149.37 349.02 151.25 349.26 153.1C349.63 156.04 352.34 158.4 352.9 161.27C354.04 167.18 343.9 169.09 349.18 174.95C350.413 176.106 351.329 177.559 351.84 179.17C352.09 180.17 351.01 183.4 351.53 184.05C353.86 186.92 362.19 184.18 364.79 183.35C367.86 182.3 378.64 180.36 376.39 176.21Z" fill="#F5F5F5"/>
    <path d="M397.47 168.34C397.47 168.34 396.47 191.67 358.29 191.67C320.11 191.67 319.11 168.34 319.11 168.34H397.47Z" fill="#F0F0F0"/>
    <path d="M250 372.56C357.083 372.56 443.89 367.492 443.89 361.24C443.89 354.988 357.083 349.92 250 349.92C142.918 349.92 56.1101 354.988 56.1101 361.24C56.1101 367.492 142.918 372.56 250 372.56Z" fill="#F5F5F5"/>
    <g opacity="0.2">
        <path d="M360.73 352.87L297.04 235.15L233.35 352.87H360.73Z" fill="#407BFF"/>
        <path d="M360.73 153.72L297.04 271.43L233.35 153.72H360.73Z" fill="#407BFF"/>
    </g>
    <path d="M308.71 223.22L299.39 240.44C299.161 240.864 298.822 241.218 298.408 241.465C297.995 241.712 297.522 241.842 297.04 241.842C296.558 241.842 296.085 241.712 295.672 241.465C295.258 241.218 294.919 240.864 294.69 240.44L285.37 223.22C284.53 221.663 284.108 219.915 284.147 218.147C284.186 216.379 284.683 214.651 285.59 213.132C286.498 211.614 287.784 210.357 289.323 209.486C290.862 208.614 292.601 208.157 294.37 208.16H299.76C301.525 208.166 303.257 208.629 304.79 209.504C306.322 210.379 307.601 211.637 308.503 213.154C309.404 214.671 309.897 216.395 309.933 218.159C309.97 219.924 309.548 221.667 308.71 223.22Z" fill="#407BFF"/>
    <path d="M298.05 323.15L327 335.05C327.565 335.288 328.031 335.713 328.319 336.254C328.608 336.795 328.701 337.419 328.584 338.021C328.466 338.623 328.146 339.166 327.675 339.559C327.205 339.952 326.613 340.171 326 340.18H268.13C267.517 340.171 266.926 339.952 266.455 339.559C265.985 339.166 265.664 338.623 265.547 338.021C265.43 337.419 265.523 336.795 265.811 336.254C266.1 335.713 266.565 335.288 267.13 335.05L296 323.15C296.325 323.014 296.673 322.944 297.025 322.944C297.377 322.944 297.726 323.014 298.05 323.15Z" fill="#407BFF"/>
    <path d="M297.04 300.51C299.089 300.51 300.75 298.849 300.75 296.8C300.75 294.751 299.089 293.09 297.04 293.09C294.991 293.09 293.33 294.751 293.33 296.8C293.33 298.849 294.991 300.51 297.04 300.51Z" fill="#407BFF"/>
    <path d="M297.04 259.96C298.095 259.96 298.95 259.105 298.95 258.05C298.95 256.995 298.095 256.14 297.04 256.14C295.985 256.14 295.13 256.995 295.13 258.05C295.13 259.105 295.985 259.96 297.04 259.96Z" fill="#407BFF"/>
    <path d="M297.04 278.69C298.239 278.69 299.21 277.718 299.21 276.52C299.21 275.321 298.239 274.35 297.04 274.35C295.842 274.35 294.87 275.321 294.87 276.52C294.87 277.718 295.842 278.69 297.04 278.69Z" fill="#407BFF"/>
    <path d="M360.41 347.06H233.67C232.132 347.065 230.658 347.679 229.571 348.768C228.484 349.857 227.873 351.331 227.87 352.87C227.875 354.406 228.488 355.879 229.575 356.965C230.661 358.052 232.133 358.665 233.67 358.67H360.41C361.947 358.665 363.419 358.052 364.506 356.965C365.592 355.879 366.205 354.406 366.21 352.87C366.207 351.331 365.596 349.857 364.509 348.768C363.422 347.679 361.948 347.065 360.41 347.06Z" fill="#407BFF"/>
    <path d="M360.41 147.92H233.67C232.133 147.925 230.661 148.538 229.575 149.625C228.488 150.711 227.875 152.183 227.87 153.72C227.875 155.257 228.488 156.729 229.575 157.815C230.661 158.902 232.133 159.515 233.67 159.52H360.41C361.947 159.515 363.419 158.902 364.506 157.815C365.592 156.729 366.205 155.257 366.21 153.72C366.205 152.183 365.592 150.711 364.506 149.625C363.419 148.538 361.947 147.925 360.41 147.92Z" fill="#407BFF"/>
    <path d="M194.63 350.68L187.58 348.39L191.96 331.76L199.01 334.05L194.63 350.68Z" fill="#FF8B7B"/>
    <path d="M187.47 347.45L195.39 350.02C195.524 350.06 195.637 350.149 195.706 350.27C195.775 350.392 195.794 350.535 195.76 350.67L194.11 357.07C194.004 357.4 193.773 357.674 193.465 357.833C193.158 357.992 192.8 358.024 192.47 357.92C189.73 356.98 188.47 356.39 184.98 355.26C182.83 354.56 175.77 352.74 172.81 351.78C169.85 350.82 170.88 347.92 172.22 348.06C178.22 348.69 183.62 348.41 186.12 347.49C186.553 347.328 187.028 347.313 187.47 347.45Z" fill="#263238"/>
    <path opacity="0.2" d="M199.01 334.06L191.96 331.76L189.7 340.34L196.76 342.63L199.01 334.06Z" fill="black"/>
    <path d="M218.28 165.72C218.28 165.72 205.63 224.27 202.66 245.32C199.41 268.37 187.2 337.59 187.2 337.59L200.29 341.21C200.29 341.21 218.43 274.08 223.73 251.67C229.48 227.34 244.73 165.67 244.73 165.67L218.28 165.72Z" fill="#407BFF"/>
    <path opacity="0.3" d="M233.92 184.92C228.92 196.26 226.45 220.92 228.39 232.27C231.93 217.72 236.19 200.42 239.48 187.11C238.37 183.25 236.53 179 233.92 184.92Z" fill="black"/>
    <path d="M200.62 341.47L186.6 337.61L186.88 331.9L202.66 337.35L200.62 341.47Z" fill="#263238"/>
    <path d="M184.57 347.87C185.222 348.06 185.892 348.181 186.57 348.23C186.603 348.232 186.637 348.225 186.666 348.209C186.696 348.193 186.72 348.169 186.737 348.14C186.753 348.111 186.762 348.077 186.76 348.044C186.759 348.01 186.749 347.978 186.73 347.95C186.55 347.72 185 345.71 184.03 345.77C183.918 345.776 183.81 345.81 183.715 345.869C183.621 345.929 183.543 346.012 183.49 346.11C183.39 346.255 183.329 346.424 183.315 346.599C183.301 346.775 183.334 346.951 183.41 347.11C183.694 347.494 184.105 347.763 184.57 347.87ZM186.16 347.87C184.82 347.71 183.9 347.37 183.68 346.94C183.634 346.839 183.616 346.726 183.628 346.616C183.641 346.505 183.683 346.399 183.75 346.31C183.775 346.262 183.812 346.221 183.858 346.191C183.903 346.162 183.956 346.144 184.01 346.14C184.53 346.08 185.51 347.06 186.16 347.84V347.87Z" fill="#263238"/>
    <path d="M186.5 348.22H186.58C186.609 348.214 186.636 348.201 186.659 348.182C186.681 348.162 186.699 348.138 186.71 348.11C186.71 348.03 187.56 346.05 187.07 345.11C187.009 344.992 186.921 344.89 186.814 344.811C186.706 344.733 186.581 344.681 186.45 344.66C186.308 344.618 186.156 344.624 186.018 344.678C185.88 344.733 185.765 344.832 185.69 344.96C185.28 345.68 185.85 347.49 186.42 348.14L186.5 348.22ZM186.5 345.05C186.567 345.069 186.629 345.103 186.682 345.147C186.736 345.192 186.779 345.248 186.81 345.31C186.977 346.115 186.883 346.953 186.54 347.7C186.056 346.952 185.874 346.048 186.03 345.17C186.03 345.08 186.17 344.98 186.42 345.03L186.5 345.05Z" fill="#263238"/>
    <path d="M231.74 110.13C231.36 111.03 231.04 111.71 230.69 112.47C230.34 113.23 229.96 113.93 229.59 114.65C228.85 116.1 228.07 117.51 227.26 118.92C225.624 121.751 223.821 124.483 221.86 127.1C219.853 129.807 217.629 132.345 215.21 134.69C212.633 137.227 209.711 139.388 206.53 141.11L206.28 141.24C205.875 141.449 205.445 141.604 205 141.7C202.722 142.174 200.363 142.081 198.13 141.43C196.274 140.875 194.509 140.053 192.89 138.99C190.173 137.163 187.735 134.954 185.65 132.43C183.713 130.129 181.951 127.685 180.38 125.12C178.828 122.599 177.448 119.977 176.25 117.27C175.941 116.554 175.901 115.751 176.137 115.008C176.373 114.265 176.868 113.632 177.533 113.224C178.198 112.817 178.987 112.664 179.756 112.791C180.525 112.919 181.223 113.32 181.72 113.92L181.82 114.04C183.47 116.04 185.26 118.17 187.06 120.11C188.814 122.042 190.677 123.871 192.64 125.59C194.375 127.163 196.304 128.507 198.38 129.59C199.156 129.989 199.989 130.266 200.85 130.41C201.332 130.5 201.829 130.458 202.29 130.29L200.76 130.88C202.827 129.487 204.711 127.841 206.37 125.98C208.176 123.952 209.846 121.807 211.37 119.56C212.95 117.26 214.45 114.85 215.86 112.37C216.58 111.14 217.27 109.89 217.92 108.62L218.92 106.73C219.23 106.12 219.57 105.42 219.81 104.93L219.87 104.79C220.599 103.252 221.902 102.061 223.5 101.473C225.098 100.885 226.862 100.948 228.414 101.647C229.966 102.347 231.182 103.627 231.8 105.213C232.418 106.8 232.39 108.565 231.72 110.13H231.74Z" fill="#263238"/>
    <path opacity="0.3" d="M215.39 123.71C218.53 115.37 225.2 115.23 228.09 117.44C227.88 117.83 227.66 118.22 227.44 118.61C225.871 121.34 224.152 123.981 222.29 126.52C220.379 129.132 218.277 131.599 216 133.9C215.28 134.61 214.54 135.31 213.77 135.99C213.505 131.83 214.055 127.659 215.39 123.71Z" fill="black"/>
    <path d="M176 117.79L169.5 118.03L171.12 111.08C173.358 111.191 175.579 111.526 177.75 112.08C178.145 112.2 178.507 112.411 178.805 112.696C179.104 112.982 179.331 113.333 179.468 113.723C179.606 114.112 179.649 114.529 179.596 114.938C179.542 115.348 179.393 115.739 179.16 116.08C178.808 116.597 178.338 117.022 177.788 117.32C177.238 117.617 176.625 117.778 176 117.79Z" fill="#FF8B7B"/>
    <path d="M179.64 111.92C179.002 111.414 178.272 111.037 177.49 110.81C176.95 113.65 173.49 118.44 173.49 118.44H176.2C176.549 118.441 176.893 118.365 177.21 118.219C177.526 118.072 177.806 117.857 178.03 117.59L179.93 115.31C180.138 115.071 180.296 114.792 180.394 114.49C180.493 114.188 180.529 113.87 180.502 113.554C180.475 113.238 180.385 112.93 180.237 112.649C180.089 112.369 179.886 112.121 179.64 111.92Z" fill="#407BFF"/>
    <path d="M164.52 114.83L166.34 109.93L171.1 111.09L169.48 118.03L164.52 114.83Z" fill="#FF8B7B"/>
    <path d="M246.25 353.92H238.84L238.58 336.75H245.99L246.25 353.92Z" fill="#FF8B7B"/>
    <path d="M238.45 353.06H246.78C246.85 353.057 246.919 353.068 246.984 353.093C247.05 353.117 247.11 353.154 247.161 353.201C247.212 353.248 247.253 353.305 247.282 353.369C247.311 353.432 247.327 353.5 247.33 353.57L247.73 360.16C247.73 360.507 247.594 360.839 247.35 361.086C247.107 361.333 246.777 361.475 246.43 361.48C243.53 361.43 242.15 361.26 238.43 361.26C236.18 361.26 228.65 361.49 225.54 361.49C222.43 361.49 222.54 358.41 223.83 358.13C229.75 356.89 235.03 355.13 237.12 353.52C237.496 353.216 237.966 353.053 238.45 353.06Z" fill="#263238"/>
    <path opacity="0.2" d="M246 336.76H238.58L238.72 345.61H246.13L246 336.76Z" fill="black"/>
    <path d="M232.74 165.72C232.74 165.72 229.91 230.13 231.11 251.36C232.43 274.6 235.19 343.47 235.19 343.47H248.77C248.77 343.47 252.19 276.47 253.01 253.47C253.9 228.47 257.93 165.72 257.93 165.72H232.74Z" fill="#407BFF"/>
    <path d="M249.32 343.47H234.65L233.53 338.01L249.72 338.82L249.32 343.47Z" fill="#263238"/>
    <path d="M235.82 354.35C236.494 354.333 237.164 354.246 237.82 354.09C237.852 354.079 237.88 354.061 237.903 354.037C237.926 354.012 237.942 353.982 237.95 353.95C237.954 353.918 237.949 353.886 237.937 353.856C237.925 353.826 237.905 353.8 237.88 353.78C237.64 353.61 235.54 352.18 234.63 352.54C234.529 352.581 234.44 352.646 234.37 352.73C234.3 352.813 234.252 352.913 234.23 353.02C234.184 353.183 234.181 353.354 234.219 353.518C234.258 353.683 234.337 353.835 234.45 353.96C234.843 354.254 235.331 354.393 235.82 354.35ZM237.32 353.84C235.99 354.1 235.02 354.06 234.67 353.72C234.598 353.636 234.549 353.535 234.528 353.426C234.507 353.317 234.515 353.205 234.55 353.1C234.557 353.047 234.579 352.996 234.612 352.954C234.646 352.912 234.69 352.879 234.74 352.86C235.23 352.67 236.46 353.29 237.32 353.84Z" fill="#263238"/>
    <path d="M237.76 354.09C237.786 354.098 237.814 354.098 237.84 354.09C237.865 354.076 237.886 354.055 237.902 354.031C237.918 354.007 237.927 353.979 237.93 353.95C237.93 353.86 238.1 351.73 237.35 351.01C237.255 350.917 237.139 350.847 237.013 350.805C236.886 350.763 236.752 350.751 236.62 350.77C236.474 350.776 236.333 350.83 236.221 350.924C236.109 351.018 236.031 351.147 236 351.29C235.82 352.1 236.93 353.65 237.67 354.09C237.699 354.099 237.731 354.099 237.76 354.09ZM236.76 351.09C236.829 351.088 236.897 351.101 236.961 351.126C237.024 351.152 237.082 351.191 237.13 351.24C237.543 351.953 237.715 352.781 237.62 353.6C236.98 353.05 236.24 351.87 236.35 351.34C236.35 351.24 236.43 351.12 236.68 351.09H236.76Z" fill="#263238"/>
    <path d="M261.64 105.94C261.751 105.315 261.735 104.674 261.592 104.055C261.449 103.436 261.183 102.853 260.81 102.339C260.436 101.826 259.963 101.393 259.418 101.067C258.874 100.74 258.269 100.527 257.64 100.44H257.56C255.17 100.09 252.17 99.73 249.23 99.59C243.618 99.2698 237.992 99.2698 232.38 99.59C229.79 99.83 227.26 100.26 225.24 100.65H225.16C223.897 100.905 222.728 101.5 221.778 102.37C220.828 103.241 220.134 104.354 219.77 105.59C217.35 113.74 214.46 130.38 218.24 165.71H257.89C258.17 162.17 257.38 150.65 257.96 135.98C258.539 125.898 259.769 115.864 261.64 105.94Z" fill="#263238"/>
    <path opacity="0.3" d="M261.26 108.12C260.44 112.86 259.43 119.31 258.73 126.12C258.73 126.12 255.11 119.02 254.45 112.95C253.79 106.88 259 106.42 261.26 108.12Z" fill="black"/>
    <g opacity="0.2">
        <path d="M234.67 109.06C234.588 109.056 234.509 109.026 234.445 108.973C234.382 108.921 234.337 108.849 234.318 108.769C234.299 108.689 234.306 108.605 234.339 108.529C234.372 108.453 234.428 108.391 234.5 108.35L246.86 101.94C246.948 101.897 247.049 101.89 247.142 101.92C247.235 101.949 247.313 102.014 247.36 102.1C247.406 102.189 247.415 102.292 247.385 102.388C247.355 102.483 247.288 102.563 247.2 102.61L234.84 109C234.788 109.031 234.73 109.051 234.67 109.06Z" fill="white"/>
        <path d="M240.33 109.64C240.281 109.642 240.232 109.633 240.188 109.614C240.143 109.595 240.102 109.566 240.07 109.53L233.29 102.8C233.223 102.728 233.186 102.633 233.186 102.535C233.186 102.437 233.223 102.342 233.29 102.27C233.361 102.201 233.456 102.162 233.555 102.162C233.654 102.162 233.749 102.201 233.82 102.27L240.59 109.01C240.659 109.081 240.698 109.176 240.698 109.275C240.698 109.374 240.659 109.469 240.59 109.54C240.555 109.573 240.515 109.599 240.47 109.616C240.425 109.633 240.378 109.641 240.33 109.64Z" fill="white"/>
        <path d="M249.26 99.58C243.651 99.2598 238.029 99.2598 232.42 99.58H232.14C232.004 100.095 231.972 100.631 232.046 101.158C232.119 101.686 232.298 102.193 232.57 102.65C233.51 104.15 235.48 104.99 238.44 105.15H239.55C247.55 105.15 250.64 100.29 250.77 100.08L251.05 99.63L249.26 99.58Z" fill="white"/>
    </g>
    <path d="M233.22 99.5199C238.12 98.3599 238.98 95.3299 238.65 91.9999C238.572 91.1659 238.442 90.3376 238.26 89.5199L244.4 84.4199L248.91 80.6799C247.66 86.1099 246.25 95.9999 249.91 99.6199C249.91 99.6199 246.91 104.62 238.48 104.18C231.41 103.79 233.22 99.5199 233.22 99.5199Z" fill="#FF8B7B"/>
    <path opacity="0.2" d="M238.26 89.5199C238.442 90.3376 238.572 91.1659 238.65 91.9999C240.94 91.5399 244 89.0999 244.32 86.7599C244.433 85.9852 244.459 85.2005 244.4 84.4199L238.26 89.5199Z" fill="black"/>
    <path d="M235 63.5C231.67 65.5 232.2 70.5 231.3 74.08C233.42 74.29 236.76 70.52 236.76 70.52L238.76 64.79L235 63.5Z" fill="#263238"/>
    <path d="M252.71 73.5599C250.58 80.6199 249.71 84.8499 245.19 87.7999C243.736 88.772 242.045 89.3282 240.298 89.4082C238.551 89.4882 236.816 89.089 235.279 88.2539C233.743 87.4188 232.464 86.1795 231.581 84.67C230.698 83.1606 230.245 81.4385 230.27 79.6899C230.27 72.9599 233.73 62.5399 241.45 61.0999C243.114 60.7443 244.842 60.8327 246.461 61.3561C248.08 61.8796 249.533 62.8197 250.674 64.0821C251.815 65.3445 252.604 66.8849 252.961 68.5484C253.318 70.212 253.232 71.9404 252.71 73.5599Z" fill="#FF8B7B"/>
    <path d="M246.06 79.55C251.06 73.75 244.81 70.89 249.92 66.86C244.17 67.13 234.7 66.72 233.01 62.78C231.32 58.84 236.52 53.5 240.85 53C245.85 52.42 244.77 58.61 244.77 58.61C244.77 58.61 263.9 57.42 257.83 65.61C262.43 65.33 261.16 72.77 253.16 79.05C251.15 79.72 246.06 79.55 246.06 79.55Z" fill="#263238"/>
    <path d="M256.68 65.7099C256.68 65.7099 260.62 64.5399 260.49 61.4199C261.91 62.3999 262.06 65.3799 256.68 65.7099Z" fill="#263238"/>
    <path d="M253.88 80.93C252.729 82.3516 251.121 83.3304 249.33 83.7C247.06 84.11 246.53 82.01 247.66 79.96C248.66 78.12 251.09 75.69 253.13 76.2C255.17 76.71 255.33 79.14 253.88 80.93Z" fill="#FF8B7B"/>
    <path d="M241.32 73.38C241.18 73.96 240.76 74.3799 240.37 74.2899C239.98 74.1999 239.79 73.68 239.93 73.1C240.07 72.52 240.49 72.0999 240.87 72.1799C241.25 72.2599 241.46 72.79 241.32 73.38Z" fill="#263238"/>
    <path d="M234.69 72.0501C234.55 72.6301 234.13 73.0501 233.75 72.9701C233.37 72.8901 233.16 72.3601 233.3 71.7801C233.44 71.2001 233.86 70.7801 234.24 70.8601C234.62 70.9401 234.83 71.4701 234.69 72.0501Z" fill="#263238"/>
    <path d="M236.73 72.76C235.601 74.4063 234.256 75.893 232.73 77.18C233.07 77.5465 233.486 77.834 233.949 78.0224C234.412 78.2107 234.911 78.2952 235.41 78.27L236.73 72.76Z" fill="#FF5652"/>
    <path d="M237.45 80.31C238.142 80.375 238.84 80.2986 239.502 80.0855C240.164 79.8723 240.776 79.5268 241.3 79.07C241.317 79.055 241.331 79.0365 241.34 79.0158C241.349 78.9951 241.354 78.9727 241.354 78.95C241.354 78.9273 241.349 78.9049 241.34 78.8842C241.331 78.8635 241.317 78.845 241.3 78.83C241.266 78.7976 241.222 78.7795 241.175 78.7795C241.128 78.7795 241.083 78.7976 241.05 78.83C240.475 79.3187 239.795 79.6678 239.063 79.8499C238.331 80.0321 237.567 80.0424 236.83 79.88C236.808 79.8757 236.785 79.8759 236.762 79.8807C236.74 79.8854 236.719 79.8946 236.7 79.9077C236.682 79.9207 236.666 79.9374 236.654 79.9567C236.642 79.976 236.634 79.9975 236.63 80.02C236.621 80.0664 236.631 80.1144 236.657 80.1537C236.683 80.1929 236.724 80.2204 236.77 80.23L237.45 80.31Z" fill="#263238"/>
    <path d="M243.88 71.7601C243.935 71.7784 243.995 71.7784 244.05 71.7601C244.092 71.7418 244.13 71.7152 244.161 71.6819C244.193 71.6486 244.217 71.6093 244.233 71.5663C244.249 71.5234 244.256 71.4777 244.254 71.4319C244.251 71.3862 244.24 71.3413 244.22 71.3001C244.005 70.7888 243.667 70.3386 243.236 69.9896C242.805 69.6407 242.295 69.4038 241.75 69.3001C241.657 69.2886 241.564 69.3134 241.489 69.3694C241.415 69.4253 241.365 69.5081 241.35 69.6001C241.344 69.6461 241.348 69.6928 241.361 69.7374C241.373 69.782 241.395 69.8236 241.423 69.8599C241.452 69.8962 241.488 69.9264 241.529 69.9488C241.569 69.9711 241.614 69.9852 241.66 69.9901C242.083 70.0796 242.479 70.2699 242.813 70.545C243.148 70.82 243.411 71.1717 243.58 71.5701C243.609 71.625 243.652 71.6714 243.705 71.7047C243.757 71.738 243.818 71.7571 243.88 71.7601Z" fill="#263238"/>
    <path d="M233.05 68.07C233.104 68.0896 233.162 68.0943 233.218 68.0838C233.275 68.0732 233.327 68.0478 233.37 68.0101C233.715 67.7226 234.123 67.5196 234.56 67.4172C234.998 67.3148 235.453 67.3157 235.89 67.42C235.934 67.4345 235.98 67.4401 236.027 67.4366C236.073 67.4332 236.118 67.4206 236.159 67.3997C236.201 67.3788 236.237 67.35 236.268 67.3149C236.298 67.2798 236.321 67.239 236.335 67.195C236.35 67.1511 236.355 67.1046 236.352 67.0585C236.348 67.0123 236.336 66.9673 236.315 66.926C236.294 66.8846 236.265 66.8478 236.23 66.8176C236.195 66.7875 236.154 66.7645 236.11 66.75C235.563 66.6148 234.992 66.6086 234.441 66.7318C233.891 66.855 233.377 67.1043 232.94 67.46C232.867 67.5172 232.82 67.6009 232.809 67.6927C232.798 67.7845 232.823 67.877 232.88 67.95C232.921 68.009 232.981 68.0516 233.05 68.07Z" fill="#263238"/>
    <path d="M262 103.09L262.83 104.22L263.58 105.28C264.08 105.99 264.53 106.7 265 107.41C265.91 108.84 266.77 110.29 267.6 111.75C269.263 114.669 270.772 117.673 272.12 120.75C272.82 122.27 273.42 123.85 274.06 125.4C274.7 126.95 275.24 128.56 275.73 130.18C276.784 133.404 277.652 136.686 278.33 140.01L278.41 140.39C278.557 141.061 278.569 141.755 278.448 142.431C278.326 143.107 278.072 143.752 277.7 144.33C276.411 146.307 274.883 148.118 273.15 149.72C271.367 151.353 269.343 152.703 267.15 153.72C264.984 154.729 262.666 155.371 260.29 155.62C259.127 155.74 257.956 155.76 256.79 155.68C256.21 155.68 255.63 155.57 255.05 155.48L254.17 155.31L253.17 155.06C253.052 155.031 252.951 154.958 252.887 154.855C252.823 154.752 252.803 154.628 252.83 154.51L254.21 148.71C254.21 148.66 254.47 148.65 254.63 148.61L255.18 148.5C255.56 148.42 255.93 148.33 256.31 148.23C257.051 148.029 257.776 147.775 258.48 147.47C259.843 146.91 261.119 146.16 262.27 145.24C264.522 143.387 266.321 141.044 267.53 138.39L266.9 142.71C266.04 139.88 265.13 137.08 264.03 134.31C262.93 131.54 261.73 128.82 260.42 126.14C259.11 123.46 257.71 120.81 256.2 118.23C255.46 116.94 254.68 115.67 253.9 114.41L252.71 112.55L252.12 111.65L251.57 110.85L251.37 110.55C250.381 109.14 249.992 107.395 250.289 105.699C250.586 104.003 251.545 102.494 252.955 101.505C254.365 100.516 256.109 100.127 257.806 100.424C259.502 100.721 261.011 101.68 262 103.09Z" fill="#263238"/>
    <path d="M248.78 154.48L246.63 158L255.96 157.63C255.96 157.63 258.41 151.35 255.07 150.36L253.77 150.71C251.691 151.292 249.908 152.639 248.78 154.48Z" fill="#FF8B7B"/>
    <path d="M252.62 149.55C251.948 150.004 251.37 150.585 250.92 151.26C253.46 152.64 257 157.34 257 157.34L257.82 154.76C257.924 154.427 257.954 154.075 257.907 153.73C257.861 153.384 257.739 153.053 257.55 152.76L256 150.26C255.83 149.985 255.607 149.747 255.342 149.561C255.078 149.375 254.779 149.245 254.463 149.179C254.146 149.112 253.82 149.111 253.503 149.175C253.186 149.238 252.886 149.366 252.62 149.55Z" fill="#407BFF"/>
    <path d="M247.45 163.42L255.14 162.74L255.96 157.63L246.63 158L247.45 163.42Z" fill="#FF8B7B"/>
    <path d="M153.06 41.34L152.55 40.48C154.016 39.6109 155.544 38.8489 157.12 38.2L157.5 39.13C155.967 39.7555 154.483 40.4942 153.06 41.34Z" fill="#407BFF"/>
    <path d="M138.46 59L137.46 58.66C139.831 52.096 144.119 46.3961 149.77 42.3L150.36 43.11C144.888 47.0917 140.741 52.6287 138.46 59Z" fill="#407BFF"/>
    <path d="M170.2 101.17C187.199 101.17 200.98 87.3892 200.98 70.3899C200.98 53.3905 187.199 39.6099 170.2 39.6099C153.201 39.6099 139.42 53.3905 139.42 70.3899C139.42 87.3892 153.201 101.17 170.2 101.17Z" fill="#407BFF"/>
    <path opacity="0.6" d="M195.91 70.3898C195.908 76.388 193.809 82.1967 189.976 86.8104C186.143 91.4242 180.818 94.5526 174.922 95.6542C169.025 96.7557 162.93 95.7611 157.69 92.8424C152.449 89.9237 148.395 85.2647 146.227 79.6719C144.06 74.0791 143.916 67.9044 145.821 62.2168C147.726 56.5291 151.559 51.6865 156.658 48.5271C161.756 45.3677 167.799 44.0904 173.74 44.9164C179.681 45.7423 185.147 48.6195 189.19 53.0499C189.198 53.0463 189.206 53.0444 189.215 53.0444C189.224 53.0444 189.232 53.0463 189.24 53.0499C193.551 57.7938 195.931 63.9796 195.91 70.3898Z" fill="white"/>
    <path d="M195.91 70.3899C195.91 75.3875 194.453 80.2767 191.718 84.4595C188.983 88.6423 185.089 91.9373 180.511 93.9415C175.932 95.9456 170.87 96.5721 165.941 95.7442C161.012 94.9163 156.432 92.6699 152.76 89.2799C148.271 84.3876 145.848 77.9481 145.999 71.3098C146.151 64.6714 148.865 58.3491 153.573 53.6668C158.281 48.9845 164.618 46.3054 171.257 46.1904C177.896 46.0754 184.323 48.5335 189.19 53.0499C189.198 53.0463 189.206 53.0445 189.215 53.0445C189.224 53.0445 189.232 53.0463 189.24 53.0499C193.551 57.7939 195.931 63.9797 195.91 70.3899Z" fill="white"/>
    <path d="M170.2 71.8899C170.003 71.8903 169.808 71.8516 169.626 71.7761C169.444 71.7005 169.279 71.5897 169.14 71.4499L156.6 58.9099C156.453 58.7726 156.334 58.607 156.252 58.423C156.17 58.239 156.126 58.0404 156.123 57.839C156.119 57.6376 156.156 57.4375 156.232 57.2507C156.307 57.0639 156.419 56.8943 156.562 56.7518C156.704 56.6094 156.874 56.4971 157.061 56.4217C157.248 56.3462 157.448 56.3092 157.649 56.3127C157.85 56.3163 158.049 56.3604 158.233 56.4423C158.417 56.5243 158.583 56.6425 158.72 56.7899L170.2 68.2699L176.83 61.6399C177.114 61.375 177.49 61.2307 177.879 61.2376C178.268 61.2444 178.638 61.4018 178.913 61.6767C179.188 61.9515 179.345 62.3223 179.352 62.7109C179.359 63.0995 179.215 63.4756 178.95 63.7599L171.26 71.4499C170.978 71.7304 170.597 71.8885 170.2 71.8899Z" fill="#263238"/>
</svg>
